<mxfile host="app.diagrams.net" modified="2024-01-18T19:41:26.847Z" agent="Mozilla/5.0 (Windows NT 10.0; Win64; x64) AppleWebKit/537.36 (KHTML, like Gecko) Chrome/120.0.0.0 Safari/537.36 Edg/120.0.0.0" etag="Z10WQ7I8ko5ES2YT23Fr" version="22.1.21" type="github">
  <diagram name="PÃ¡gina-1" id="E-mU5d7x9qSm-95eIepL">
    <mxGraphModel dx="1426" dy="793" grid="1" gridSize="10" guides="1" tooltips="1" connect="1" arrows="1" fold="1" page="1" pageScale="1" pageWidth="827" pageHeight="1169" math="0" shadow="0">
      <root>
        <mxCell id="0" />
        <mxCell id="1" parent="0" />
        <mxCell id="NW6OYBaImtfH7ger-ljo-1" value="" style="triangle;whiteSpace=wrap;html=1;rotation=-90;" vertex="1" parent="1">
          <mxGeometry x="310" y="210" width="240" height="300" as="geometry" />
        </mxCell>
        <mxCell id="NW6OYBaImtfH7ger-ljo-2" value="Stamina" style="text;html=1;strokeColor=none;fillColor=none;align=center;verticalAlign=middle;whiteSpace=wrap;rounded=0;" vertex="1" parent="1">
          <mxGeometry x="400" y="160" width="60" height="30" as="geometry" />
        </mxCell>
        <mxCell id="NW6OYBaImtfH7ger-ljo-3" value="Mana" style="text;html=1;strokeColor=none;fillColor=none;align=center;verticalAlign=middle;whiteSpace=wrap;rounded=0;" vertex="1" parent="1">
          <mxGeometry x="600" y="480" width="60" height="30" as="geometry" />
        </mxCell>
        <mxCell id="NW6OYBaImtfH7ger-ljo-4" value="PSI" style="text;html=1;strokeColor=none;fillColor=none;align=center;verticalAlign=middle;whiteSpace=wrap;rounded=0;" vertex="1" parent="1">
          <mxGeometry x="180" y="480" width="60" height="30" as="geometry" />
        </mxCell>
        <mxCell id="NW6OYBaImtfH7ger-ljo-7" value="" style="shape=image;verticalLabelPosition=bottom;labelBackgroundColor=default;verticalAlign=top;aspect=fixed;imageAspect=0;image=data:image/png,iVBORw0KGgoAAAANSUhEUgAAAY4AAAGcCAYAAADOGkfsAAAgAElEQVR4Aey9BXhU2ZY23BCixN2JkwQCJIRAAgQIBAsBAkGSQHC34O7u7u7u7jQN3WgL1kI73XPvzNW5d+bazHzv/7877KKqUhUjSUlOPc959rGyfdZa717+wb/9279B2ZQ5UGhAoQGFBhQaKC4NfFDcG5X7FKIyJRp48+YNvvrqKzx+/Bi3bt3C+fPnsX79ekydOhX9+vVDhw4d0KhRI0RGRsLX1xdOTk6wtrZG1apV8cEHH8DCwgK2trZwdXVFYGAgYmJi0KxZM3Tp0gVDhw7F3LlzsWvXLly+fBl3797FZ599hm+//Ra//vqrshBTFqNmTwMKcChEbjZETqA4evQopk+fjo4dOyI6OloIfTc3N9jY2AhAICiU1UaQsbe3h6enJ0JCQlC/fn307t0by5Ytw5UrV/DTTz+Zzdya0qJB+a3lv8hVgEMBDpMUbt9//z0ePXqEU6dOYeLEiWjZsiXc3d2LBIVq1SjsreDuZgs/HwcEBzohItQVtSLdUaeWJ2LreCGurjfqxXghJtoDURFuCAtxQY0AJ/h42cPV2QZ2tpaoUqVKkd9FMOnatSuWLl2Ka9eu4fPPP8cvv/xikvOtCOPyF8amNMcKcCjAYTKCjGagjz/+GIsWLULz5s0REBCA6tWr6xXgVatWEcI+KcEPWV2jMWl0I2xc3hp7N3XA4R2dcHJfF5w7lInLx7vj+qmeuHU2G3cu5ODuxRzcOZ+Dm2ezcO1kT1w62h1nD3bF8T0ZOLitI3ZtSMOyuS0walB9dGwfjrq1PeHoYFXI76gKFxcXhIWFISsrC9u3b8fr169NZt5NSaApv7ViAE4BDgU4jFqAUbP45JNPsGbNGrRv316YhrRNTVWqfIDqdpZCg6DWkJ1ZC7MnNcH+Lem4fS4bH13qVe7blRM9sGVlG4wfkYC01mGICHOFh7sdLC0tdAJKUFAQ+vTpIzQm+kcUTaRiBJ4CLGUzzwpwKMBhlMDxww8/YM+ePUhPTxfOa0tLywIC2MrSAg1ifTC0byy2rm4nNIhrp3qWO0gUBUQfXsjBpWPdcXRXZ6GZ9OgcJcxd2oDHY/pIIiIiMGLECFy9elUBEIUfjZIftQFXAQ6FUI2GUBkJ9fDhQyxZsgQNGzYsABQWVavAy6M64mO9MXZ4Ag5s7SjMSkUJcmO4Ts1nw7LW6JtdR2gjzk4FnfUEkc6dO2Pfvn14/vy50TwXbaGhHJfNqt2U51EBDgU4jEJAMaSVq+4aNWrAykrTX2BpWRWNGvhiSl4iju3uLPwRxgAGpf0NF492E6DXL6eOTk2EAFK7dm0RnfXdd98ZxfMxZSGn/PayBzoFOBTgMJhgooZx7949DBs2TIS0qptyrKwsEOjviO6do7BpRZsK81WUFgxK+76rJ3tg3rRkNGnkDw83O9ChL+eBkVuxsbFYvny5yBNRBGDZC0BlTks3pwpwKMBhEOB48OABRo4cKfwX2qGtjFKaNi4Jp/d3wZ3zFePcLq3gL6v3Mapr3+YO6JMVA19vexV4EESYmEg/yKpVq0DfjyLsSifslHkru3lTgEMBjgoTRAyn/eKLL7B48WIRmipX1hztq1uKPApGQ904nWVwB3dZAUJpPufkngwM6xcrNC4Li3caCAMEUlJScPDgQSgmrLITggqglHwuFeBQgKPCgINRUvHx8QWyuBvG+2LVwpa4fKx7pQYMdZC5e7EXTu/vitFD4kXyoTrIsjxKz549cfv27Qp7dopwLblwNec5U4BDAY5yFz70YwwYMECYXKQAtLayQM1wN2GSulVBuRbqgtmU9k/uyxAmLG/P6ho+ENbQYnmTly9flvszNGchqPy3koOiAhwKcJSb0GGtpg0bNsDPzw/VqlVT2e2ZGJc3NB7nD2eaTDitoYGGvh76QDq3D4eNzbu5ZCHG5ORkkQOiCMCSC0Blzko3ZwpwKMBR5sBBXwar0ubm5sLBwUEFGA72VujQJkyU/DC0IDbl7188qzmiI93ByDOpwVH7YP7L119/XebPUxGupROu5jxvCnAowFHmgubQoUOoV6+eRiHAmmGuWDK7OW6cNnxmtymDBn87/R8XjnTDsP6xsNXSPjIzM3H//v0yf6bmLASV/1ZyYFSAQwGOMhMy33zzDebNm6dRpdbRwRoZHWoKR6+pC2xj/P3rl7ZGQpwv1KOvmPvB/iNKWfeSC0QFRIo3ZwpwKMBRJsBB01R2drZGxBQT+JbOaVHpw2vLG3DOH+4GZqHTFChNV2xAtWDBAgU8FP4uE/7WBlQFOBTCem/CYoe9Fi1aqISWhUVVpCTXUHwZFVCVVx2U5k9PRkiQs+o50L/ErHyl7lXxVtHawlE51j9vCnAowFFq4KAT/Pjx46Ivhmy5al/dCgN618Xl4z2UnIwKBg5W5WXuR7OkQLAgJLUPJg22bdtWCdlV+LzUfK4LQBXgUAiqVAT1448/irLnDLWV5hE/XwfMnNBYAYwKBgx1rYP7DHNm4yp101XTpk1F73WCvS5BoJzTv7pW5qbg3CjAoQBHiQXJzz//LArvMYNZgkZ0TXfsWNdedM7TFmTKcfk3ktKe4xtnskQ1YfWcDzrN2cJWEYQFBaEyJyWbEwU4FOAokSBhjST20HZzcxOgQX9GXB0v0YpVW3gpxxUPGOpzTtPV4tnNRdFEdkkkyLNc++nTp5WGUQrfl4jvtYFVAQ6FgIpNQCyDzn7fss837ehtUkJw8ahSY0pdYBvbPsvSBwW80w4JHormUbIVtrbgrOzHCnAowFEs4KB5asuWLfDw8BArV9aaSmsdirMHMxWfhoF9GsUBqu1r2iEmykOVlMkEzevXr0PxeSgAUhoQVIBDAY4igYPCZe/evXB0dMw3T1WtgvQ2YWATouIILeUew5qs5PzvWNsOwYHvwnUTExPx4sWLIp9/aQSL8h7zBiQFOBTgKFJw0KwRFBQkQINNl5IS/HD6QFcFNExA05CgIUearZiYKYMaGKqr5HmYt5AvDxBXgEMBjkKB486dO4iOjlaZOGLreOGS4tMwadBctaAlbG3zK+xyIcBilAyvLg8Bo3ymeYKSAhwKcOgVGOzzkJ6erlqd1ghwwp6NaSYtNOXKuzKPjLaaOjZRlefBDPP58+cr4KHIAr2yQHsBoACHQix6iYU9wZl5TLOGl2d1rF7UChQ6lVnomst/v30+GwN61UW1alXF82Wk3P79+/XSgrbgUI7NU5Mo7nNVgEMBjgLC4pdffsHq1atV5ilLy6oYO6yBAhgm6NMoDOiYYc7yJNLfERkZqZRkV+RBAXmgC0wU4FAIpQChfPjhhwgPD1cJlIwOEbh5JksBDjMDDoIK/VXM+id4sN5YWloavvzyywI0oUt4KOcqr9ahAIcCHBpCgn4NWemW2cYN4nxw7pCSq1HYyt3Ur62YlwJnJxvVQmHGjBlgsqcCDJUXGIp69gpwKMChEhAUFhMnTlSZqBh5s3F5a0XTMENNQx3s6O8Y0jdWBRwsXHnx4kUVXRQlRJTrlQ9gFOBQgEMlIJhJ7OPjIwSItXU1jBocrzjDzRw0JIDcPpeNFk1rqBYNjRo1UpIDFdmgkg3aiwMFOBTiEMTx7NkzJCUlqVadyYkBil+jkoCGBI9ta9rBzjY/io4+j0mTJikmK0U+6AQPBTgUwhCVUmfOnKkCDXc3O+xc314xUVUy4CCA5A1tAGtrC0ELAQEBYAKo9mpTOa58pintZ64AhwIcYL/w0NBQFXCMGBiHO0q+RqUEzptns5DU0F/QArPK27dvD5bS1xYcynHlBg8FOCo5cFAoZGVlqUCjYbwvKDyk+UIZjaNAYUU+hw3LW8PRwVpFE+vWrVOq6FZyOaG9UFCAo5ITxIEDB2BlZSWEBEuls45RRQop5buMD5junM9Gzy5RKuCIj49XtI5KLicU4FAIQGV2+OGHH9CqVSuVgGidEoxrSql0BTgv9cKp/V0QFuIiaIMLC9ay0hYeynHlNVcpGkclBpJdu3bB1tZWCAcfb3sc3dVZEZqV0CGuT+ubMLIhqlnk17Jiq+CPPvpIAY9KLC/UFwoKcFRSQmBZidjY/KSvqlWroHeP2gpoKKChQQOn9nVBUOC7lrNMDmUdM3UBouxXTq1DAY5KChybNm1SJXsxdn/f5nQNoaFvFaqcNz6fRHk9k7uXemHGhMYqU2bNmjXx+vVrBTgqqcxQXyQowFEJiYC+jcaN3wmEPj1jcPdi5RGI5SVozfFzWUY/rq63AA+G544aNUpxlFdCmaEOGtxXgKMSEsGRI0dgZ2cnhAHbiF4+3l3RNhQzlV4amDO5iapvBx3lKSkp2Llzp9L4qRLKDgkgCnBUoofPRL8NGzagRo0aqhVkr2619AoMc1xBK/+p5JolfR0Bfg4qk5WFhYUwc9atWxdTp07FrVu3FN9HJZIjisZRSR72559/jry8PHh4eMDa+l1il411NWxf204BDkXbKJQGaMYcPSReBRw0WcnmT+zh4ezsjB49euDcuXNKomAlkSmKxmGmD/qbb74RjDxgwAD4+/urHOGS4TmyGuoNpUFToUJT0VDyNZSLR7ppRFip0xEXI46OjgJA2rZtiy1btuCzzz5TnOhmKlsUjcNMH+zhw4dFMyZ7e3vhy6BpSn2VSKa3srLA+qWpitBUtI1i00CPjCiwuZc6aHCftMXe9Pb21WFjYyO0WtLcwoULleq6ZipjFI3DTB4sO/cdOnQIqampkDZoOdKcoM3s9et6F1tgKKvukvsFzHHONq1oA5al0aYl7WO5SOFYu3ZtzJ07Fx9//LFixjITWaNoHGbwINm1b9u2bSKZj6s9goRkXG2GlsdM+Msb1kABDkXbKBENXD3ZA7Ui8/uTS1oqaiQtVqtWDS4uLqK/x/fff6+YsMxA7igah4k+xFevXmH//v3CJEXm5KZLs5CMrX7NxqYadm9IK5HQMMcVtPKfSq5JTRjVUKVxVK1SBVZWlkUuVNQXMkwiZO+Xjz++rwCIicoeReMw0Qe3b98+sGIpNQx1ppQgoWu0sXkXTdWwvg/unM9RgEPROEpMAzfPZMHHy14FHqQ/C4uqsLW1EqMu2pPneC+3fA3EGTNnzlB8ICYqgxSNw0Qe3LfffovTp08jPT1dMB6ZUV2LkMypPtKRaVG1Kiwtq6nu5bmZExqXWGAoq/OSr87Ndc5SmwepgKNFi1gkNIiCoyMd41aC1ggk6nSovS8XO6Tf2Nh6WLlyBdi6mCtZZTONOVCAwwSI9ZNPPkHnzp1FhFRRYCGZtFo1C9CXQaCIiAhAdTsbwcy+3va4dS5bAQ5F2yg1DcyZ0lSlXdSvXxNXLy3H1k3j0Tq1gThPurO1sdIZgSXpk6PQPiwsRD+Y2rVrYd++vYoD3QTkkWKqMvKHdP/+fYwbNw5eXl5C6MuVmjrzae/zHq74HBzs0CA+EnNn98O0qb0FiPDelOQapRYY5rqCVv5XybSpvZs6wNammqBJRu7t3T0Nd26uxY2rq7BxXR4yOjeFj4+bKlCjKLrlYoj3ODo6oGPHjiL/SNE8jFvzUDQOIwSPX3/9FStWrIC7u7sIrdUGB13H0jxAJmzatC42bxiHq5dWCIZObZWf9cuV4JS8RgpwKNrGe9EANdaYWh4qc9TM6bmCzgge3G5eW4XzZxYjJ6uVyO8gvVpaFh3GS9rl5uTkhGHDhuLTTz9VTFdGKJ8UjcMIH8qxY8dEVz46vnUBhPo5rtIIBjRLOTnZo3FSDJYvGabBxGdPLYSzU74zkzH421YrJUYUDaNkGoau+Ro+IE5FnxmdmuLW9TUadCdBZNf2ycjOagV/fw81DaRgEqGka6kxk6ZjYmqL2mqMIFQ0EOPSQBSNw0jAgyUaBg8eDGZ7c9UlGUnfaGVZTWVnbtqkDrZsHIdrV1YWYN41q0apPsvDzQ4XjyqVcHUJQuVcycDk4LaOovoA6bNOTCiu66A9CR43r63GhbNLBICQtvMXPIXTOO9hUAer8SYnJ+PatWsKeBiJrFI0DiN4EF9//TXYwpWVRiVT6QMLMpOVFZmJ5R3sEBsbgYXzBxYAC8mwHMeMylQBR4c2Ye9lolCEa8mEq7nPV80wV0Fbnh7OAhjU6U7f/rYtE9C5U1O4uzsLANFVwkSd/uUCiX6+SZMm4cmTJwqAGIHcUjQOAz4EahkZGRmitg+djOoMo71vY20FZ2cHwWzhYQECMKQPQx+T3rq+GtK/wc+bN62pAhyKf6PMaKBtyxBBs1zQrF45stAFjDqN0ol+YN8MtEypXyzw4OdbW1sJ7SM8PBysxaaYrgxrulKAwwDAwcq1dH5HREQILaMw0OA1ahkEjpAQX4wYloEzpxYWi0lpPoipnc/cDvZWuHCkW5kJDXNfTSv/r2jtKm9oAzB7nIuSPrlti0WT6gBy5eJyLF44GAkJUcJPR4DQXjDJY15j4iD5ge0BWPWZYeoKgBgGQBTgqGDguHfvHtq3by9WT6woWhiz0Mabn7xXRUSoXDq/VK8TUp0h5T4Z08sr35wQHemugIaibZQpDaxexKipfF9FXGxEiYFD0ik152lTesHP712klgQM7TFf+7AWC67o6GiwioICHhUPHgpwVBBwfPXVV1i/fj2oanPVVJiWQeZgeC0zcVs0j8X6NWNAs5NktOKOe3ZOEcBD5muTElKmQkNZkRe9Ijf3OaKDnHXPSF92djYiBLe4tKnrvsMHZyEnKxWeni6o8oH+yCt+H7UPLrzYAnn48OF49OiRAiAVJMsU53gFTTQd4JmZmcXSMmREVY0a3pg3p7/OSCldTKfr3OSJ2W9t0B9gSN96CnAoGkeZ0sC1kz3h4Z7fu57CfPvWiSVe3GjTLRdIO7ZNQmKjWm9pt3DzFaOuuHFBdurUKQU8KkimKRpHOU/0jh07VBFTRZmmqGm4uzshu2crHDk4+72ZkBm8ZGhqLwtnNCtToWHqq+l7l3Nx70pfcDT1/2LI35+cFCBojHRWVISfNkgUdswQ3vHjeiA42KdQc26+ds7yOlXh4+ODKVOm4MWLFwqAlLNcU4CjnCaYWsbYsWNha2tbZBVbEj8Zr17dUGzZNL5UZildTCgd41aWFti8so0iIN9qHB9fG4TP7k3H84eL8em96fj46gBlbkqpjQ3KrasCjrzRme+92FGn49s31uDyhWVIT2+s+g7yib6NCzOagFNSUhTTVTnJNelPUoCjHCb45s2bwgFOIpagoIvYZQw7HdiDB6YXOxZenbn07TOiysHeVjAZ7dBHdnZShOOlXrh3uQ8+uz8L928uxPED4/H03jJ8dm+GonmUEjiWzWmhEuQ9e6Tg9o38siP66LI0569dXoEF8wagVnRQofxEHpP+w8jISGzatEkpmlgO8k3xcZTDpLIbH7O/C3N+q4NIgwaROHJwVplpGZIxjx2eo2Lo6naWuHKihwIcl3rh42sD8fLJSixf2Bvubg44dWginj9cgvtX+irzUwrwOLE3Q0VnzMsoTRCHpNmixnOnF6Fn9xQRNFL4gqyKcJrT9zFq1CgwMEWulJWxbCKwFI2jjMDj+fPnGDNmjChMSKLWR9jUMnjN28u1RDkZRTGV9vVtmyeoGDoqwq2SCsXebzWJ3vn//3IuPrk+WADHmmX9EBLkhbNHJwvgoL9D5Sug/+NyH8336hSq+Z9fvHvNNwrLxTm/rhrzMZjcp02LZX28cP4gREYGitwP9UWY+j55jJFXBA/2sLlz544CHmUk6xSNo4wmks64Vq1aqdRkdQJW35dgwto+jEChDbesmUp+3vKlw1XAwcY7KqGoUwCan1C7f7UfHt8Zj8/uz8TjO+Pw6PYY4dd49skCvHq6Bs8ersTjj5bixeNV4h4K//tX++PRrdHivi8+mYfP78/Gkw8n4pPrQ/DRpbfgI+avt9BcHt0eK8xe8l5+38fXB+HeZfV7zW9utWkpJMhZ0Fqt6OD3igKUtFvUSHMYe4B0y8w3kxUWukunubW1tVjQHTlyRAGPMpJ5isbxnhN58OBBETVFUJDAoA4W6vuurg4iw/b82SXlBhiS6WbP7KsCjtyeMZUKOBgpRb/FFw9W4vblOQIoCBYPbi/CpdPTxfHT+8tw58pccQ99HgSW5w8XiWuf3F6Ea+dniusEmJePV+DJhxNw7wq1kD4gYDx/tAQvHq/G3evzce38LNX3vHi0DE/uThIRW9oC1lyPY+vk94thBFRRZXAkfZbFKHwfcwcgPNxfRevq/Cb3CR7cfH19MW/ePMV09Z4yT9E43nMCV65cWeyeGSwXsmFdXrnagNWZkaGMknEmjGpYqYDj/pV+wvx0bP94VLezxucPVmBAbgrs7W1Eb2yCyIpFufDydMKpwxPx6ulqvHqyCgSM9PbxsK9uAzs7a/He4BqeOHtssriHGsXDW2Pw6slqPL23FKkpdVBd7d76sSG4c3Vu/r0fjq80mkezxoGC1ry9XcFqBep0WBH7TBxMTq6nondJ99qjTBrs1StHcZq/p+xTNI5STOCXX36JvLw8kblamJZBfwYFS5vUBji0f2aFMtTwYZ1VjLR0dvPKBRxX+wmN4MjesWIOBvdPhZurAzp3SMCEMR2FVrFkXg4c7G1w4uAEcUzNomnjKLi62IP3r1zcB2NHdkBwkCe8vZxx7dxMvHy8Ei+frBDaRWiIN7y8nDF8cBssnd8L40Z1QESYj3j/xZPTQM3jk2uDKsW8p7UOFfPs4uwgwmcrAiy0v4O+FUYmuro6quheGzh4zD4fDFxp0aIZrl+/qgBIKeSfonGUYtKePn2Kdu3aCcebLsKU56QTfFxe9wpxGGoz0oB+7VUMtG1N5WreRP8GTUkSOAga3KdpidoGN23gOHN0suiRvXBONl4+yb+H9x3ekw8+M6dkqt5LYOGCgY71l0/efebFU9MEyLRNrYfnj1YJk9VHlcDf0b1zlKA1lh1hPTVtWqyoY0Z00XdIk5nkQ10jnx3BIzIyDKdOHcUvv7xRfB8llIWKxlGCCbtx44ZoKlOYlkFC5XU6wNlEqaKYRvt7euW0VjHP0V2dK8XKV/oQtIGjf26KAI3PP56Nx7fH6gSOy6eni/kaPay9CiAkyAzs2xJrl/dXnffzdUVuVjPVsbyPY5+c5vD3c8PNi7PxxYMFwicif5e5jn16xoi5Y0HOiwYEDskDhw7MQquW8bC1tVbxgDaAkEfzs809sXzZPPz442tF+yiBLFSAo5iTde7cOVWorTYRymMJKOyBcfzoXIOBBhmI8e7yd1W2curawEFfB01H968OEOYjCnhtjYOaQ1LDmqI8S+PESOzfMVonMJw+MknM64zJXbF/5+gC29zpPYQv5dwxhvkurhRO8sF98v0LbGN88ZzhNA4JHBxpuho+tJN4Vvqirsiv1DxsbayRN6Yvvn39HL/88ouifRRDJirAUcQk/fTTT6J0c2BgvgNQCmPtkUzj5FgdA/qlFdpGU524y3O/+9tQRf7OG2eyKrXG8ejuEnz+8Rx8dClXL3AQTBh1RR9Ig/phwldhY22J+LhQTBmfgcd3lwggOXkoPz8mPNQH9eoE6d3OH58igKMyJBaq9x+/eK78IwaLyzc3r6/GovmDEBLsK8yQ2jyrfsx6bgMGdMOjh9fx888/KuBRhFxUgKOICVq1apWoNyW1CXVik/u85uPjhqWLhpSoX0ZxGaA09/Xo9q4UxPVTPSs1cBAUmM9BUxEd1ro0Dp6TG8N4WYqEEVdx9UKE6ZFOcF6XwLFn20h88WCF3o0aDPM7GL5rriYq+b+G9Y9TreyNCTgk3+zdPU2YjiW/6htpukppUR83bxzFTz9+q5iuCpGNCnDomRx26Zs9ezbc3Nz05mdYVK0qTBu1agVh04axuH2z7Ov0SOIv6ZjVs6XKVHX2UKbZCy8pxDhqm6oo8IsCjjVL+2FQv1a4d2OBCLd98WipCkjatKoHTw8ncUzNw9bWCsMH5QMJo6yePVggTGH8ntVL+6JNaj0RecXzlQE4BvbOL3TIVbuxmKq0+eXMyYXo3LGJME3pAw6e5yKwaZN6OHVyM15/8wy//qqYrnSVaVGAQw9wjB8/vtBwW4b1MXKqRYu4Ck160mYIfce5vdqogIMNd9QFq7nvlwY4Fs7OgrW1JXZtHi4A4uWTVSrgGNCnpahrJTWStHb1xYLho+vz8+8R967G47tLEVXTT4TlEoDyNQ7zL9veu3ttQWtWVpYGjarSxwvyPEu1DxnUUTjNqV3oAxCCR1iYPw4dXI6vv/5MAQ8dMlIBDq1JefXqlegoxkKF+oiL/gxHRztk9WyF0ycWGNQJLplCexw4oIOKMTatqFwl1UsDHBT6TPbjtmxBb9BHQXPUiMFtBaAwskoCB6vqujjbo26dIGxcPRB0mO/cNBxdOzeCpaUF6CDnvY9ujdEqVWKe5Ue6dqwpaM3e3haXzi8zSn6Q/MEyP1Mm5YDJilz4FQYetWuHYNfOuXj54hMlZFdLTirAoTUh/fv3Fzka+kBDEtqY0ZngCkYSpLGNo0Z0UTHFgunJlUvjeJs5LvM4KMQ/u5fv42AvDmoT2lFVvIchub4+LuDCwMqqmkgWo3DJSG+IRx8uEeYomrzovyBQMD+E5hkry/x76UxfMq+XuM77WKLE3LU7/r+2LUMErTH5jv0zjI0XtH8PwYP5HuyyKflZ3+jt7YbtW2fgxYuP8ebNz4rT/K28VIDj7USwUGHv3r1F0yV9oEEVlv2Q588dYJCkPm0GKOx40tu2sWSIMUPjK4UAk0KafoXP789SaQgECuZv8DqvffrRNAEeBAteYzOnp3cn48Xj5cLZfXhPHjavHYxdW4bj6tmZooTIsweL8ODmCLCcydO7U8T7nny0FHu3jxT37tg0DB9enSe+k8URWb5d/h5zH5s0yq8V5evrbpCSI4XxQWHXdm2fjNq1goXfg6ZnXeDBhUN4mD82b5qKZ8/u4pdfFPBQMsfVtI1evXoJAioMNJycqmP1yv8+gEwAACAASURBVJFGv6Iis7BfuWSEnl2iK40Qk0KalW4JFk8+nISHN0dprP4ZIstzrD1FMCCYsDDigxtD8em9aXjxeJkAgPzIqPl4dDsP96/0V80h739wY4RwuNM5LgGIIb8Pb4/B/Uqiaci5rlPLU9BaWKgfrl5eYRL8IQGFVXYbJ9UWZitqj5JntEc3N0ds2TwVL57fw5s3P1V6zaPSaxzUNLKzs0XpZWoU2gTDY56PiqyBjevHmgxTEODkf0lODFAJPcnsyqjb30AAoVbBdrIEH40+HVol6cW9V/u/u7cShN7qoptA//z6UKyWwM6TUiibynji6DyktWsElkzRp3mQl0JD/bB54xQ8f/ZRpfd5VHrgyMnJEU5wfR37CBpMINq9c6pJMQTVcAkcwUFOCnBoCX1dAlA5pxtMi5oXB3srQWtJibWM3oSrD8wIeEyapWmqMM3D1cUBmzZOwatXDyt1tFWlBY7iaRofIKFBFPbvmW5SoEHmOHV8gQo47GwtUdnKjhQl7JTrpQMJ7XnbvyVdRWesAn3revk1J9Mn9Mvq/Pkzi9G3Tzs4ONgVCh5skbBt62x89eXjSpskWGmBQ2oa+nwaXK3XrRMK9u4uK8Ks6M/xcM/vzGZjXQ0HtqZXaq3j7sVeyN9ycOdCDu5e5NZLlGO5eqIHzh/uJsD10rHuuHaqB26ezQIz7nntxumeuH0uW8zfhxfy368tQCvr8ZwpTVXA0a9PO5PlFcmbMteD/F+YbHB1ccTOHQvx/XdfVkrwqHTAQU2DoMF2kvp8GiSaZsn1QNunJChTHBsm5Je7trSsinVLU80eOAgEFOy3zmXj6skeAgjOHuyKU/u74MjOTgI8925Ow64N7bFjXTtsW9NWtW1f01acUz8vz/H+nevz37NnYxr2b+2AQ9s7is88uS8D5w5l4uLRbrh2qidunc3C7fP5IFMZwCQnM1oFHBPH9zRpfpE8zmZUo0d2hbOT/lwuyoiwUH/s37cKP3z/daVzllc64OjXr1+R0VMUuGdOLTR5JsjJbiWY2qJqFcyZ0sSsgYNgcfZgJg7v7Ig9m9Kwfe07UFAHiPLcJ9Dwe/dvTRegcuZgVwEkBLO7Zupjia/3Lhdi+dKhJs8zEjzY22PsmO6CfwrTPLy93HDq5O5K5yyvNMDx1VdfYejQobCzs9OrgrL8covmsUabDS6JurjjXLWQ3Nwetc0GOCiIaT46fzgTR3d1ArUAQwBFUSDE38SNGsuhHR1xfE9noZlQG+J/MHWNhH4zZ6d3PS9YTLC4tGkK9127vBLjx3aHs7N+zYNWi7p1I3H50olKBR6VBjhYe4o9hwuLnmrYMBpnTy8yG+I/fmQObGzyI16aNw40eUFFUxRNQns3palMTEUJb2O8TnPY7g3thVZy5Xh3YVozRRDZvTEN1tbVxKrcxcUB10wsh6M44EXNI290t3zNXU+eB8EjKioUd+/erDQmK7MHjm+//RYzZ86Es7Nzoe1emzSpg1PH55sNaJApmNwU4J+fnBUa7GKSwEGnNB3Wx3Z3BgWVMQLB+/4makwHt6fjzIEuIJBI572xg8myOS1QrVp+0lzTJnXNinfUQeXqpRVgCR9Hx+p6rRU0Z7Vq1QyPHz+oFOBh9sCxevVq4QintkGHlq4tJibE4B371Am1rPavX1mF+nER4j/TQW5KLWQZ9XThaDfhr3hfwWxK79+xth12rm8ngJImLc6DsQLIgN51VYUC27ROMFvgID8y2mpg//zCoaxlpkuOUPNIbdUcL1++MHvwMFvgYAvInTt3wtfXt1BNo169cBzcP9MsiZ5qdts2CSoinzCqodEKIQpH2v2vnOgBRipxFW5KAr88fuv2te2wf0sHnNiTIbSuO+ezjcrJ3qxxfldMrra5JSXWxsrlI4yyzUBZLMbYa6RXdmvY2emOyCRwcIE6aNBA/PijeXcRNFvguHTpEqpXr67Xp8EVg6+PG3bvnGKWoEHH3uiRXeHu7qQCjuQk4/RzEDAuH++OQ9vTC4TJlodANtXPpJOdoHrzTJbIQTG0JiJLjQTV8MXieaMRHOQnQtzT2ieala9QHXTYy7xzpyaCpwgU+jSPCRPGm7XWYZbAcfPmTURFRQki1vdwg2p4Y9OGcWYHGrTHrlo+QmS829hYo2nj/LaeJHAnR2uc2tfFaLQORkadPtAVB7algyYaUxXoFf276VxnHglzVK6fNkxbYPZ4kaU5mjWtjx+/uoT7t3ZjxNAeCPDzQo0aXsIvcM6Mgk0kgNAX2qpl/bdl93WDB/PElixZYrbgYXbA8fDhQ0RHR+t1YlGAWlpWw8rlw80ONGiHlb3GQ0MCsGvLHHz38jxqBPqIlRGbDK1bYvhEwGsne+Lwjo6KdqGWgFha8Nm1vr0AkRtnqYVUnD8kJ7OWarWdNzIHv3x7Fb9+d01sH93YhdSURuJ6XFyE6H0hha65jAw8iYvN9x/q0zqcnJywf/9+swQPswKOL7/8El27dhV2Rn1JO4zJZj8NcyFg/g9muk4Y1wMR4QHw8nTD4P5dcf/WHhUjD+qX39SJ2teQvrEG0TiYTc28C66UKexKKyiV9+lPbGTiISOzhCmrHBMOLx/rDmmmotDcs32eitYkeHzz7AyWLcpDdFQI3Nyc0LN7Cg7um2FWfHdg3wzUjAjQW4GC/FajRg2cPn3a7MDDbICDzqhBgwbpfYhyVZA3phvYAcxcgIMFGBkKyf+XEF8LV85uLMDEJw+vVPl6Gsb7Vihw3Dmfg5N7MxTtogy0i+KCpvCF7M1Q1dcqa1/I1tVsp5vf+Ih5UedOrC9AcxJAfvjyIvr26igsAAEBnli8cLDZ8B5lyJFDc8D/Jc12Us7IkeARGxuLr782r7IkZgMcCxcuhJWVlV7gsLa2Qq/sVFy+aPytLYsDakxUnDwxWxBtSLA/5s8ajhdPT+pk4Jefnoa/X35pCPo5Tpajn4OlNZh7wVXp0Z2dRNZ0cQWecp9+baI0c8O8F2arM1KtLDPVRw+JF+11KRyZHxUcFIipk4bgwYcHdNLfdy8v4NiBZWicVA/sS961SzPs32t6Fad18SUXoQvnDwLb5uqzchA8WrdujefPn5uN5mEWwHHw4EG4uLBXtP4OXikt4nDNBJvM6CLWc6cXiiKMJMiU5g3w5P4hnQzLVd/dG3vRvl1+zSq5ChoxIK5ctA5zyewujZA29vcwAIEAwmf0vhpIYgM/lX9j165dyMrKEhptSHAgdm+bj1++zfd1SK1Djl8/O4OxI3PAoA0fHzesWDbcbLT/6dNyRSMoXZoH+ZSa2YgRIxTgYN9ZY9iuXbuGiIiIQkGjXt0wHD002+RVZK5upkzKRnCQt3B4L5o3Ci+enNAJGp89OIY5M0YhOCgAkZGRwvcjgSM02BmXj/d4bwEicy9YelzkXph4KRBjF/7v+/sYjUUAYTVf5oSUBkCYwe/okF/GhnT1l7/8BX/9619x5coVtGrVCo6ODsjukYZr5zfrpEuCyIFdC5EQXxturo7I6tHSLJJvb1xbhT692wpAJVBIXpMjF7Vc3K5atQo//2z6fctNWuP49ddf0bx5c72gwQzPGoFeZlG0kKaprhnNxH9NalQXd67t0MmYjG45eWQ16sZEilVOz549BcC/fv1aNU/WVhbYuKJ1qQSHFDYy90JERymhtCbn7Kcf5MLhzBKbsPrl1FEJRQai/M///A/kiwCyePFiuLu7w9rKCvNnjcBPX1/WSacEkGGDu8GialVERwVh/94ZuH1zrUkv7pjj0bp1A8FnusCDyYEODg64fPmyUSy632fhb7LAQWdT7969VcJQIrsc+eBYW4YRVKbsDL9+dSWWLx0Gak0uzg4YPyYXzx4d08mMd6/vRv8+XeDm5oJGjRrh5MmT+POf/yz5Giwpz/nh3JS2Wu6NM1k4w9yLrelgGfH3XQUr7zfcHLJyL5/jucOZxXKk87n7+zqogOPo0aMq2lLf+eSTT9ClSxd4e3khsWFdHN63FG/UwnWl6erbF+ewd/s8REeGwM/XHcOGdMKlC6btgzxxdK4I09UFHDxH8EhISADTBt5HcBv6vSYLHCtWrAAd3roeEIWjlVU15I3ONOkVDEuGDB3SSTBqZM1gHN63WCdgvHl9Fft2LoSvj7fIlp8zZw7++Mc/qvOy2P/oo49EWXnOT0SYa7Ht3bSLXzvZA0d2dhQNjRRhbzhhX15zz9ImLCZZmA9kxfwUsOYZ6cfDwwMs61PYi2GoXl5ecLCvLhY8BAoJGurjJ3f2Ij0tWfAyfZGHD84yab7dtGGsCALgPGlvNFkxiCcjI8OkI61MEDh+xblzZ0QNKn2gwfOdOzUFG9Drci6bwrl9e6aL2j+enq7I6tYWDz7cp5PpPr69D7m9OsHTwx0tW7YEfT76Xn//+9+RmJgoiNnCogpmTWxcqLmKobRcjYrciw1K7kV5CW1j+dz8jPT0twBSMJmwTcsQlSCcNm2aPjLTOE/LQF5enljQNE9OwMnDq3Sar5iounDuSAT4eyEi3F84zpnQagq8qus30tLh5FRdNV/qAMKscoIHF3iG1hxK+/0mBxyffHwPYWHvCFj9gXCfiF4nJsRkS6TTrLZ5wzgEB/mIkgarl03QCRj0ZRw/uAIR4cGwtLQURKjBsToO/t//+39YtmyZiphrR3rgig4nOf0XJ/ZmKGaoSmqKowly/5Z03DidpSqqeHx3Z7i52graYeHQN2/e6KAw/afOnDkjygCRR2dMGYKfvtHt+7h1eSti60WK72Epc1M1M9+8tgq9clJVvKYup7iwpa/Dzc0Nx48fN0nwMCng+PnnH5Gd3U2VzKb+MLjPB+Ln54HtWyaa7Epl7Jhu8PR0EVEnZ4+txpvXVwoAx4snJzF2dB94eLijRYsWuHXrFqhNFOf1xRdfiNh7zpeVlQVWLWwptA5mdrMXBDvq0XFqjB31jGVlXll+BzP8CRgsEdMjI79/PekmMzMT//znP4tDbhr3sLJD//794efri5YtEnH94jb88rZMibrp6uHd/ejWJRVeXq5I75CE40fmmiQ/nz6xAImN3pVmUZdXDM+1tbVFnTp18OCB6fXwMBngePPmZ8yfN0WvT4Px04yimjWjj0kS2dlTi9AlI1lkoLZv2xiPPjpYADAYH3/94lY0S24kNKvRo0fjP/7jPzSYszgHbKEriTi1eZBZdNWrLMLcEP9zwYxk2Ni862fDoIv3ee3du1f0yAmqEYAt6+eCPjp14JD7M6cOFvxQKzo4P+rqhulFXbHII5upValS0N9BkxUXu4x8ZIRoac1GhnifSQDHr7/+gpMn9sPb210l8KTg40jzlLW1paiHw+JjumyOxnxuz66paNI4Bs5O9piQl4tXn50qwEivPj2FFYvHI8DfBzExMdizZw/+7//+r1T8++LFC/j45Bc+dLC3wuxJjRWzVCU1SxUHiLp0YJ5Ufm5CgwYN8Ic//KFUdCffRJPp48eP0blzZ7Hq7ts7Aw8+3F+A5r9/dQH7dy0QUVf+fh6YPbOvyfH2retrMG1KLyGf1GWW3KfWwfwOmpBp/jMECJTmO40eOIjEX335KZo2idOpbZCgidq1awXjsgmG8m3ZOA5+fu7CKbh3R8FicVx9sd5Pty4sY22Bbt26vTfj0szAqA5JvI3ifbFlVRsFPBTwKEADm1e2VoXgkv4OHz4s5f97j3/729+wfPlysIpsVFQ4zp1YpzPr/N7N3UhsVAdOTvYYl9fd5Pwe9NN0z2yhU35RdtnY2Ajz8Y0bNxTgKA2K6XrP118/w7Bh2SK8lpMshZ0cq1WzgIeHM9atGWNyqxGG7YWH+aFenZo4fnB5gRUX7b8nj7D9ay0EBgZi5cqV+N3vfvfeDMsPYPQVNTXOo5WlBSaNblhAaBRnNarcY36hufKZbl3dBp3ahat4LikpCRT2Zf06d+6cyDvy9/PCmuWT8fUXZwrwwtOPD6FXVhocHOwwfFhnk+P1C2eXIL5+TdVcSvkl+M/KCvb29khLS8M333xjEuBh1BrHmzc/Yf++dahe3VanQ5xZp+ytMW5sd5MjpDWrRgn1Na5eFBjHLu26cqTdd8v6GfDz9Ya3tzfu3r1b1vyK7t27qwg5Ic4H21abrxCUwlAZi/+M50xpAhvrd74N+ibK60VAoumKi5mhg3roDNl99elJ9O3dUfD8oAEdQDOQMZugtX/b+rV5sLXJL9eiDhzcp7+DyYHTp083CX+H0QLHL7+8wf17F5GQUEtnpy1qHzRTtWoZb3I9jpcvHS6KvCU2rIM7VwuWDnnx9ATYHMfZyVEI91evXpULv3766acClEi41e0sMW54A0XrUMxVKhpo2zIEVd9q+XFxcaUKxCgJ4VKbnjt3LgICAtCiWQKuXdhSYEFFv8eoYT2FTMjt3dakgINAMmFcT9jaWqsWbBJApMmKiZWm0L/DaIHjyy+fol/fdLECkY45Ockcq3zwAdzcHLFrx2STIh5WBKUjP7lJfdGdT2oYcrx/ew9SWjQUGtbYsWPxpz/9qSS8V6J7//Wvf6nKkHBOQ0OcsWpBikpwKKvz4q/OzW2uZk9uDGenfAFH/mNl1+KGfJeICHXcfOTIEbECZ7XdoweWa3QXJJ+w/tXUif1hZWWJ3jmtTUrzYGvnJo3f1ftSl2nUtugsZyIvs/J1me6N5ZxRAsdPP32PLZvng9366MPQ9m3wmHX9TS3KYtP6sSLPJDGhjk7z1PmT69AooQ6Cg4Owe/euUkdN6eBFvacY3cKyECRghjT36l5LAY5KrnWsWdwSdWt7qlbF3u5WCKrhA5asYURUeb/4HU+ePEG7du3g7e2JxfPHFNA8fvr6EsaP6S3kw+BBHU1q8cjFLnNU1EFD7tNcRbMVM/N/+uknowUPowMOmqiePrmOhglRIi1fOnDlxMqxZUocrl1eYTIEs2nDODg52iEuNgq6avacO74GAQE+qF07Gg8fPChv3tT4/AULFqjAOcDPERQc5raCVv5P8bWnYf1jYVktP3CC+QcZrVzRsI49hg4eiP/+7//WoJ3yPOCqm344VxdnzJ8zqkAyLDWP/n0Y0muN8WOzTCraatpU/SG6rATBBlkMYDEWDUP7dxgdcHz15WcYMbwHbGyshLNIAoUcaaLy8XYDcx+0nU/Gerxn51RERdZA3ToRuHpuU4HVEyOqwkID0DChPh4+/KQ8eVHnZ//+978XUS1yjpOTArB+aSsFPCqh5rFsbnMEBTqJ1TBBo0Fte+Tl+mBAF080jAsTVQpKmz+kk/iKOMlinax1xeZPk8f3L8A7rHFF8GAl7EkTsk1GJtBkldoqXqfWQYsKNY/09HSwJba20DaGY6MCDmobhw6uE0TAidM2UVGwWVtZYtrU3iZDIEcOzkat6CCEhwWC8ejSlyHHs8dXC6Zo1IiJVWUTalsELxa4TEFArUMCByug5g1THOWVTUthLk9Kcg0VHXi6WWJ0jg/G9/XFuD6+aJXoii4ZHcvdSa5NoPSt0N/HatjzZ48pkGn+8ulJpLVtCm9vN6xdPQa3TSTDnCYrF5d3Zeol/3Gk7OO2ZMkSo4yyMhrgyE/0e4r27ZKEIKVvQ30i5X7zZrEwpezwDmmJcHZ2wM4tswuABn0ataJCkdCgHl6++EKbXyrsmCuYDu3bIsD7XbRHSJAzuPqsbMKzMv/fof1jRU6P5LV2TV0EYBA4uA3o6okgfwfs2rUT//u//1th9MkvYsOoiRMnCtkwf/boArz09P4hNGtSH4EBXti903SsEcwqt7Oz0SnraKYPCgoSviVj0DLUf4PRAMdPP36HhQvyhIOWNj5JvOqjrY21qBxrrCYp9d/FGPPRI7sK5928WcMLEPrNy9tQI9AX8fXr4vXrryqUCdW/jFnk27dvR/3aHhjUzQseru/mvnnjQDBzuDIL08ry39ctSUVwjbcmqg8+QO1wOwEWEjSk1tEpxRXNmzfFb3/7W3UyqpB9mq2GDx8ON1cXbN0wo0BzKC7EmNfVOCkGplKS/crF5WikpxAiZR+1jtzcXKPTOowCOKht3L51HhERgbCy1G2iYujdiOEZJmOimjenv8hy7ZXVHj9rlZBmnkbrVomoEeiHmzeuVgjT6foSRq+wWm5SYhwyWrqJ1SVXmTL8mQ7SfjkxCnCYua+DwRBJDfxUizVPV0sMzPQqABwEj1E5Pkio64F169biH//4hy6yKtdzBI+srJ7w9nLHwT2LNBZkbDWwcc1U+Hi7o2ePlrh0fqlJyAtWkHB1dVTxnfpimcBBRzlLvaiv+A29bxTAwQzxUSNzxeqcKwb1iZP79BNcNBFCYDnlkGBf1K0Tjkd3NYu3/fzNFZH96urqjPPnTpUrkxX14dQ2Jk+aiDo1q2NktrdKUMRF2auqefp42WP+9KYKeJgxeOT2rI1qb6Ooqlb5ANQq1DUN7f3MVDdERtQAi2Ua4sWyHDVr1kS9upH44atLBcBjzIhsYbmYbkK+0MED9eesUQbGxsbi+fPnRgMeBgcOVr69ePG4cGyxwb0ECvWRCXOL5g8yidXD8aNzUbduGEKC/MCmNNIJLsdFc0eJpMa5c2YagudU30mH+L179xAfG45e6R4atuyhPbwR6PPO3xER6orl81oo4GGG4DE5rxFcnPNt7NUsqqBRXQeM6Z3vENcGDHnMRUZ8bSdMnDChVH05VET4HjuPHj0U9ds6dmiGLx4d0+CzZ4+PC43e28sVXM2rm5CNdf/8mcWIiQkRi2ep8UsZSK2DuR2soGtoTUN+v8GB49tvv0ZaWguRKc0JkpMlR57rmN7EJB4+q2BmZ7USD3/7ppkaxMyChWePrwELuWVmZujsCf4efFTit7K8Q25ubzRroOkAlcKhZzt3WLwtpU1Cbtk8SKmga2bAMX96Mnx97FU8x8XCmF6Fg4akjz6dPFEvJgyPHj0qMe2V1Ru2bt0iwlYn5PUpkF3+zbOzonhoWKg/GNlorICh/rto3mYFYl1WFzrKo6KiwGZYUngbcjQ4cOzduwPVq9upKrVKwJCjv78nDu2faTIP3t3dCUMGdsXrF+c0gOPDaztFSG6TJk1K3HazrBhNfg4jYg4cOIDIMHf0y/DUa5Zo39QZNtb5iWC2ttXQs0sUNq1QnOXm4DCnX4Pl9OXq1s25GnI7euilBQkYchzbxxfJ8c7o2zcXzAMyxOs///M/MXZsHrw83bBzs2bUIhdqOzbPFgVSu3RONgn5QUd5m9QGYuGpq/ETF9FswmYMuR0GBY6ff/4JLVo0KUTb+ECUUDaFvsN7dk6Bi7MDmjaOBf0Y0jTFkf2VW6cmCXWTZRsM/fr3f/93dExvi3ZNnTE2Nz/UUgoE9ZGJX0wAk0TMVrN5Q+MVk5WJax4E/9YpQSpNw97OAvRbqD/74uwzKTAowBXsCFgRpUh08Q2/t02bNrC1tcGFU+s0+I68N3XiAJFZzvJEpiBHqB3RxGZlVdDXS22ETZ+uX79ucK3DoMCxZvUKIUx1m6g+QOT/n219+uQCk1gtpLWnrdgBxw4u0yBeOu+mTRoIXx9vsCx1RWbd6mI0RsKsWbMasdFuGJH1ziGuT1AM6+mNmsG2KvDw9LDDlLxGCniYMHh06xT5zhletQpaNHQCNQh9NKDvfF5vH7Ru7IIe3TPKrE+MLpot6hyrPAcHB6NNahJoolJftL1+fhYtWyTAz9cdu3dMMXpZcvPaKuRkpwp+05aLPLayshLhuYY0U/G7DQYcfNihoaGqVY80TXHkBDEpZvHCwUb/oJmvkTe6m7BLzps1TINoScCH9iwW5oCBAwcYbFUmGY+rs6dPn6JmeCC6ti7+CpPZw36e7wIXPN3tlHazJggcW1a3Qb/sGNhY5yfXUpNsVMehxIChDiRcfMTUdBHhokzSM9Tr2LFjcHR0xLDB3Qpo/GePrxKVdFmV1hTyOw4dmCXaLmgDB2UjfR3Vq1fHqVOnDKp1GAw4Fi9eJNBTe3J4zC25aV3Q5qfuPDLG/fVrxsDVxQGZXVqBFTvVVzvM10hqVA916tTBDz/8YCieUn0vC9RNGD8W9Ws5aITfqgsCffu0f3u55ScHUuDUDHfFvKlNFM3DhABkYG5dODm+i5arW7M6RhfTGa6PLni+Yws3xNarjZcvX6poraJ3uCiaMGGCMEvt2a7Zgpn5HSsWj4WHhwuGDulkEuAxaUKWyJLXJR8JHikpKfjqq68MBh4GAQ46dxiHrT0pElFZbmTl8hFGDxo3rq5CQoMouLk64dblbRqgQb9G/9wucHd3F1UuK5qRtL+PjJUffhtaqEO8MAGR28kDdKJK7ZCZxuwSZw7OYnP+D6xBNUgNNAj8kcG2GF4MU2Vh9CCvUeuoFe6I+fPngT1eDPX67rvvEB0dhdh6Ufj+1UUNfqTfMaNjC+F43rDW+NtMXzi3BNHRQTqDhmiuYqtZ+pYMZbKqcOBgljhrzkjhoz4ywoM9IVjf6frVlUYNHFR5B/RrDy9PV1H+QF3T4P7qZRMFkbKjGYW2oV+/+c1vkJHRES0SXAp1iEthoGtkobuuqW5wccoHDwogggdzAcxZ8Jr6f8vOjIajwztTY0SQLQZ3050Zruu5F3WOdJGV5o5mTevj2bNnBqV3hgezg2D3rm3x6rNTGuDBMj+hIf6ixAer0xqjBUP+JjryWcdKXT6q77MILIMCDNXwqcKB4+OPP4an57smMXIyqH3Y2VnDy8sFhw/OMuqHyoe7dvUoAQzduqTi59eaUVRfPDyGyJrBopMXI5gM/aJDfufOHfDxtNNbSqIo4aB+nTkerm/Bg8/Pwd4K40cmYOvqNgqAGJHpauPyVHRuHy4WY3xOBPqwQJsyBQ1JF3SUN6nvhnFjx+Ivf/mLwUiei7SlS5eKSM21KyZpAAcXdKxxxf4dXPTdur7aqOUMF88N4iNFt1MpJ+VIcxVl5o4dOwyidVQ4cMyaNUtnnw3WqOJkdO3SDDQBSeQ1Nd5ZtgAAIABJREFUxpGrlUYNoxEWGoi713dqEOfzJyeQ1q6ZcPwzWccYXjQNtmvTHB1blF7bkAKCI1eYPdq5q3weJGZmH7N7oNLHo/gNk8pTk1k6pzmaNwlUgQafEQsXDuledpqGOk1wP6eDB2oEeODChQsG1TqYV9KmTWtEhNXAnWs7NPiTi7zcnA6ijtyalaOMWs5Q9q1bPVr8VgkYciRoMDw3ISFB+JYq2mRVocBBG2RkZKRO9YtFDNm8afvWiUb9MBlFNaB/BxH1tX3jLA2i5Ipm1dIJ4oFu2LDBoMwjAYu9DFasWI4GdVzLxBGqLiwGdvWCj/u7arqsd9QuNQQblytJguUJCkV99typTRFV013FZ1WrfoC4qOqiQKH68yvrfeb9NE9wRE52T/z5z3+WJGiQ8fXr14iIiED7tk3BkFx1U/Ltq9vh7u6M+Po1wfBXY1ycyt/EAKH4+JqqZymBgyOriDPCij3azRo4Zs6cqXMCLKpWFeGsjF+WE2as47bNE0TzlaxubQuE/XF1ExocgA4dOuAPf/iDQRhG/Uuptj98+BCREYHo1qb44bclESgEj/BAG1hY5JeLYROo2lEemD25sWK2qmCz1cYVrTFiYBx8vN8lbVpbVUWTOMci60+V5JkXdu+Q7t5oVD9YOG4NGZ5L2l+7dq2wYiyYM0IDOAgiW9ZPh7ubE/JGZxq9zGFaAq0x6qDBfWodBA/6OswWOB4/fgwfH58Cf54TQJujr687WFXWWAGDv4s2UfY6Zyeyy2c2aBDjN8/Pon2bZBEtRtOQMbwYftuvby5iy3m1yfpG/A5Z24rPlMKLQmzzKsXvUZSGUBbX6c/o1D4clpbvGqA5VLdA+2Tn98rTKAwk9F1r19QNLZon46effjIoG7AkSceOHREeVgOfPTiiwa/sV56a0khYDnZtn2zUcoeyp0lSjN4oVPLbvn37KhQ8KsxUtXz5cp15G9LJ0y2zhdH7NubM7gd3N2fMmjakQFG1ZQvHilXBunXrjMJERYf41atX0SA2WPSL1sfkZXWeFVNTk5xR3fbdysi+uhXatQrBUqWTYLlqX1PGNkKtSHcN0PD1tEL3Nvk9VsrqGRf3cwZ390J0uAtWrVopOvcZEj2Y6xAeHo60dsn48vPTGuBx6sgquLg4omN6Y6MHjvVrxwhfR1WtQrDUOihDk5OT8fXXX1cYeFQIcPz8889o0KCBsP0THdW3fHWrGrZvMW7fxoG9M0Q2Z+PEevhRqwfAd68uIKZWOJo1a2awgm/azMmw5w5pbdCqke7qt8UVAiW9j05zdxdLVYkSPuvQYGdMG5eIzSsV7aMstAv5GRuWp4qABFkWnXNNrS8yxLbc/RmF0QWDJzJbu6FJUgK+/fZbbdKs0GOarFiOnGH+u7fO1QAOmqwmju0jBPKiBYNw++ZaowWQyxeWIS42QkN2SjnKvA5mzZ87d868gIOOYtriCBLyz3LkMR9oZtdmRvvApOksq0dLkcl5YNdCsPKmdLZ99/I8BvXvAl9fXzx58qRCmULfl1Hb2Lx5IyKCHcsk/LYwIaHrWv8unqI5lKy8ymft7GSNti1DwGgfKfiUsXQRWEzomzymEeLqemtETTnYWaBlI+di1SDT9dzK8hzNl0lxHmAU5V//+ld9pFoh52n/r1+/PhIaxODFk5Mq3iUPM9cjsWEdBNXwxtFDc4xaDrHsupCbOhfflsjJyTEf4GBIKrUNbdDgBNAe6+HubPT18vfumgovL1f079NZg+hIeEf2LRX5HGPHjjV4AUPJhbQtJzdtiM4tXTUaNJWlYCjOZ7VOcoaj/TubO595oJ8jhg+IUyKvSuE437q6LdYtbYWMtAhYW72bV3bt8/OyRnaae4X7Mwqjg57t3VErKhjGUBH6xo0boorDmJG9CgS17Nk2TwTnDB/a2aiBg0nHcbHhqlL45Ce5Ub66urri9u3bFQIe5W6qOn78OBwcHApEBfCPckXaOrUBrl023ixOduZKbFQL4aGBePTRAQ3goImqeXI8oqOjDa6SS9D4r//6L8yZPQvxtZ3LPPy2MCGh6xpNFmz4UzPIFpaW77RNG5tqaBDng4mjEhTzVTEBhPkxfbNjEFzDWVPLqG6BpFgHDO1RfvkZup5tcc6xOGbjOBeMGD4Uf/vb3ySJGmSkFj569Gg4Otrj+KGVGnzMirrpac3g7++B/XumGzV4sBMqg4m0F+I85jZw4EDQNVDeUVblDhxZWVk6fRsEjWoWFli+dJjRPyjWzpo/a7iGQ/zNt1cxd8YwVaVKg3CD1pfSnvvRR3cRHuIDZncXh7kr4h7G97dp7Ax7O2a7vlslWVlaoGWzINGWluYXxXRV0HTFnBiapWpFeqhWl1xlMvw5wNsKOR2M5znroqUBXT1Rr3ag6CFB4W3I16tXr+Dl5YXUlo0LaB0PPtyHwABvpLVLNOoiiFzIRtbUTOyUWged5Px/n3zyiWkDB4vqUX3SRkf+Uf7JpEa1YMw1Y6gJxcaGI6ZWGD5/cFRjlcIkIh9vd3Tv3h3sqGcML9qShw4egMR6juBqTxcjG/Icuw3G17ZHddt3ZhbSAsu0t20VglmTGoPmGAVA2oo2vWOGxqNubU8wOk0KBzFfrpZo28QZ7JViyOdZnO+m1tky0QWdOnYQdZUMzSc7d+6Eh4c7tm7UdJS/eX0FY0Zkw9raEqtWGG+BVSYgjxiWobdfB33JS5YsMV3gYPGtkSNHCoDQBg4eM0vcmPttsMjY6JGZsLO1wa6tczRAg76NfrmdhLP8zp07huYF8f1czV2+fBkxkV4GcYgXR4jIe3LS3BHsb41qb5MGpVCk3b5NSjCWzG5eKVvUEjQ3LEvFpNENERvjpQEWnCM7m6qiI2N5lg2Rz6gsRxZUDA1yw549ewzuB2T13pYtWyIwwA+f3NE0PbN8EDPKGyfFGLXWwS6Bbm6OOhfklK0sQ1Le5qpyM1Ux4Y9duahZSMEgR54LD/cH1S4ZtWRsI22dbOGY1q4pftTqs3H57EZ4uLtgwvhx+Oc//2kUwMF+Hy2aN0arRGeDOsSLK3BGZHujSytXhPjbaJivSCOuLjZIbOCHUYPrY/3S1EqhgSyZ3Qy9etRCZLgb7OzelXHhfNjaVEXdmnbo3dGj1JWNi/tcyuM+tifu2MIVndLbipWwoRmGYauUQZPHDyiwIFy2KA+uLo6YO6uf0comyspeOa3Ff1CPXJTyleG5u3btKleto9yAgyqhjY1NAeDgHyUqGnsEQ6/sVJEhfuyAZivY18/PIbVlImrXrmXwMEPJgCztsGb1KgT722JoD+M3X2gLp/QWrvB2t0K1au8c6GQC0klIkDN696gl/CDslW1OZixqF/OnNRX1vdQbLMn/bmlZDcH+NgIwtOfM1I7ZMKpetAs2btxo0J4d5Bmalnv37o3wsGB88eiEBnj88OVFEZ4bHOSDY4eNNzyXv83Dwxl2drYFFuakn9TUVNE8rryc5OUGHGlpaXqd4kR0JtQZm5Yhfw9LEDBMuG/vjvj+1QUNwtqyfoYIv12xfKlRZIiTEb59/RotkuNFO1jalE1NqPD3sqlQl1Q30d/cxkpTS+Vig73OmbfALnY0ZZkygMyYkIQeXaIQEeYKR4d3HfnkijEsLAwM7x6bNxpxtZzKrOGSoekis407goICRPtiuegx1PjNN98gKCgIvbIz8O3LdzzOboGsY0WNZOjgjkYro+gbbt6snggjZm8OSTtypG/55s2b5aZ1lAtwXL9+XXSo4opR/hE5MkKpS+emRvtAGCud2ioeoSEBePGk4GokqVFdREdF4M0bw9bhkQzHelQzZ85AgxinCitkV94CKCfNA4G+trCzsxOJo5J25Mhw3qQEP4wYEIeV81OEX8BYneqMFlu3pJUAOzZUYtVabb7gMf8rK0ezlwSz/vmicGPr4fTmhs3HKavnPSrHBw1qO2PSxAkGN/HSJzhp0iRYWVrixKHVGotDVoZIa9sEISG+Rh28M3dOf9Giwta2oNZB4Js+fbrpAAeJfvjw4YI5tBmEf8bJsTq2bp5gtMCxcd1Y4bgfPTwLjLSQGeIc588eAU9Pd5w6dULKbYOODL+9evUK/HxckNXeuMMySyJ8+mV4ISYqQDSp2bZtmyhUx5IKEjjkSE3Ew80OURFu6NA6VBRVXDyrmcG1EZrUZk1sjH45dZCcGCByL3RpFvwfoaGhGDx4MK5cuSKYnM9Uvv7xj39g69YtqBPliqHl2EejJM/mfe9lZF1Sw1qgD1T9v8r/XJEj61iFhIQgPS0Fv353XYPXr57bJOrSDezfwWhl1cVzS1AzogacnZ0KLEZIW7GxsXjz5k25gEeZaxxPnz6Fv7+/zj/C8iJ1YkJw8dxSo30Y7do0hK2NNdhmUh00Pry2A87ODujYMR3/8z+G66uszlis/tm7Vw8k16+4stnvKziKej9t4cnxbhg7Ng9MZpQvMvm8efNEsqWTk5NOMyiZhT1BWBurdUowhvWPxaJZzbBqYYrIuKZALyvNhJoEK9KuXdwKKxekiFBi+mIaN/SHl0d1nfTP32dtbS1C1Nu2bSscmNQYC3v99re/RUbnNJEHM9ZEzZDqz5ym1JRED+TkZOOPf/xjYX+9Qq5xYUI/wY7N8zX4nVpH+zZN4Ohoh/1GbFYfMbwLqHGQrkhf2tv+/ftNAzj4Q6l2F9Q28p3io0Z0AUNdpT/BmMad2ybD2dkeeSNzNJL9CCAshsYV7vVr1yqEoIv6EjrET58+jfp1fMEeCOrMaar7FCrd27qjcWJ9kcSkaw4obLhaZf0z5tBwxajNLPKYyYa2ttWEf4RO9phoDzRvHIjOaRHI7VlbaCiTxjTEnClNRA2tNYtailIoLMa4flmqAIRFM5th5sTGGD8iAUP61QPNTWmtQ9Gwvi+iaroh0N9RRIGxD4n8Xu2RTM1aScOGDRPPjGV4ihuNx1X5qVMnER3hjT6dPMziOVPrCPR3FQ2IDK11ELibNGmC2rVq4vljzTpWh/YsFr6OQQPTjVJeUXYeOjAL3l5uopyKNt3xuHPnzmCbh7J2kpe5xsFCWzRJaf+JfDuuDQ7sM06nODuBpbakb8O/QJP7b1+eR2TNUKNK9iMxNKgfI1aipgoU2r97ZLYPEur5CM2iqJW4BBXeR5/a1KlT0ahRI3h4eIgSN0yE0qbB8j4mjRMknJ2d4e3tjfT0dKxatQpffPHFeyWJ/ulPf0JWj0wkxZqHZknNKS3ZBekd2htFNem9e/cKX8GOLQs0tI6fv7mCtLZNjdrXQSd5YmJtIXO1aZ70SDosj0zyMgUOMgirxGprGzym579DWqLRIvfG9fp9GxPHDRAPgP/PGF7UNhYsmIewwPLtIa0t2MvzmNpGpxQ3tGvbEmz7WZqVKH0C33//PT7++GOxmqVzsGfPnmjYsKF4fmUNHGRUajwpKSkYMGCAcGyz3/ann34qVnhlVVGAjtz79++jYf0I9Eo3D62DeTyN4vyFH6u42ld58d5//Md/oG7dumjeLBG/fn9DAzyuns/3dQzol2a0smvG9FxhutVlruK5zZs3G7fGwbr3BAlt4GBrWBbmWrNypNFOfru2DcVvLODbuL5LFEbr1q2bwZvSSMahqSMxoY5ZOcQHZnqhXi1/MP+nNKAh56awkVWDWT109+7dWLBgAUaMGCG0yFatWokKzrVq1QJDYQkG7Fddp04dJCUloV27dujVqxfGjx+PlStX4ujRo3j06FGFtgcmKM6YMRUJdZwxKts8TJOdW7ojvn490H9l6Bf7djPvbMdmTa2Dvo52rRuLnh3GWgCRnVO9vV3F79deHFEWd+rUyXiBgw1baCvU/uE8trKshtAQX5w7vcgogWP3zinCt8FaNYzjVneKTxrXT6iBNIcYw+vPf/4zRo8ahsR6zmYTfpvX2wctkzzQrVsmfvOb3xjDNBvlb/j8889ROzoMnVPMIzx3eE9vxNVyw5w5s9/LlFcWD4vVexs3bix8Hc8ea4bhH9qzSMiAwUbs6+jZI0UAh4WFZh04yl8XFxfhFyxLP0eZmao+/PBDYV/W9m+w1SFRr3tmC9Gz25ic4fwt7CPeKb0xgmr44uWnms6xb1+cQ2RESLn7NmiKoBbx4MED0QyKkWlsCqVr27p1K3w87dGuqQt6p3sU3Dp6iExjlqdQ33LVjrlPR2vu2623nn15vU9nD8itb2cP6N0y3l7L8AAdoPq2/hme4Cavd2vrjob1I0WUEVefbIHJHAZucl+O8jxHmrS4YFHfvvvuO6hv8hrP0YzF0izqo/o+r6lv9CNxo6ZS2Ma6QLzOkRtDINU31m3jxlB19U0yMsGSGyOoCtv42Ywsi412BZtlscihvo1CmRuvi/0sb9HgaURRY7Y3aEZiK2D6nEqyMU+juBuLcHJjMESzpg1AUGQUHX1Wura///3v5aaJSuCRvo7tmzQLINLX0bpVIqIia+D6lZVGufhlB1UHBzs4ONjrXLyTbiS9lcVYZsCxevVqncla0nS1arlxVpzct3ua0DZ69WyPn765rKFtTMjrWyG+DZohGHFDW3l2drYwi9A0wo3BBnLjtaZJcQj2sxHtQaNCbKFrY+tQ9Y33RAZrbXwvz8nx7b7qffJY6301g21FdjdH7c9UXQuyEffI66rzau9VPxcd5oKUlObo2rUrevTooXNjBBWv6Rp5TnuT96qfp7mRmzynb1/9elH3yHvlqH6/PMdR/bzcl6O+++R/UL+vY8eOqBsTgfAadogIevssOGrvqx8H2+bfq3VO/RkU2Jf38pmp7799hvLZylH7/ernuc/r8pz6yP8QEuiKtm3biOfLNgzaG/9/v379yj1893e/+x3q1auHZskJGnKAFogj+5fC2ckes2f0MUrgYN2/iPAAkYOm7Sqg1kE/HxdaZQEa/IwyA44OHTrojK1n7gbrx9+4usooJ3zMqEyRts/QO3UT1b2bu+HkYI/MzMxy923Qpr99+3ZRAmHQoEGYMGECJk6cKEbuF7XR9s5N3ieP5cjzcl/fOG7cOMiN93BfjvK8HEU5DJbEKGLLy8sT93AsyTZmzBiUZmOjHm7a75XnSzuOGjVKfC5H7X15jiOrQcuR+3LTdU5eo59FbkyclZu+c/I6Ry42dG3yHl3XSnJu6NCh4vN1jTynvQ0ZMkR1jvvyWO7LY/k+9fPcZyKk+jkec2O0XG5uLhhdVt4v6evYvVUzr4MtouPjohFjpHloTHHo3auNaPLFGmfqLgMCibu7O1jJ26iAg1EkrI2i/mO5zx9M4Bg0wHizL5mQ2CSxHli8UB04Fs8bI377xYsXy5tWxefTlMH6XnTEzp8/Xzhv6cBVNmUOKisNkA8IoPSdMhihvIIm1BmcZjKWJW/aOB7sDChlAn2fs6cNgZWVJdauHm2Ui+C1q0cJmcvfqC2LGdW6Zs0a4wKO5cuXix+srSKxLhUT6ow1d2P2jL6wrFYNu7Zo9tugTTO5SX2h3v3lL39Rp6ty2ydTsDdzfHy8WO2rC4uZM2eCmohcqZV25GpTrvrUV3Yl3de3MpQrxMJGfpd8P0f+L10bW2Dq23i/+jXtY/Vr6vsMmdU+5jl5Xo68R31fHstzHHVt/fv313me92pf43FxNppouOm6V56XI++R9+sb+/btK+7hKPe179U+L4/le0oy9unTB/o2fo72NWoWzMkh/TOcmiaWyZMnl7vWLxmbfLho0SJRGfvMsbUq4CCA3L2xC3Z2NmiT2sAogePm9dWIigqCvX3B2lUEElqFjEbjoDORjVG0EY7HBI6aNQNx4ewSo5vo82cXI6ZWMOLqRYJqqFxZcDyyb6mo/3LgwAFJTxUyMrKDJp3mzZtj1qxZKm2DwpaVPJs1awaGjhZnY1llufF+uV/U2Lp1a3EvR/X9Nm3agBuJj4lt3LivfizPy7Gwa7yH9np9G0MIucnr8lh9ZFas+paRkQFu6ue4r35e7nfp0gXceCz3dY30u8iN1+U+R5oxi7vRTs97ORa2aftDpJ9D3Q8iz3HkxlwVbur78pwc5TX6D3hO+hHU9+lLk761wkaWJJfX+R4ea28EAG48L8GBx3JffZRAxGfh5uYmwJfAwfu5kHr27FmF8J/8EuZrsazNwH6ZGnKBsmH08Gy4uzkZ7WJ44IAOoouhroq5NFfxv5UFeLy3j+Phw4ci6a9ANNXbvhs52alGWWJk1YqRQu2cM2OIRggu47bbpDYRBcIYyVHRL7bbjYqKEqtyqXVMmzZN5BQwAOHFixciAotRWNwYhaS+r34sr/Oc9sYoJW48r76vfZ88lvdqH/O8eqRTUft00MmIKO7LTb6Px4yEkuflsTwnR3le3qd+Xl7jOUZTcWT0FEf1c+rRV/I+eU7ep31eXufnyX2OPNbedJ3nOfXILkZtqUdycV9Gc8l99VHeK+9hNJf6vnr0l4zykqP6NbnPa3JfjvJ+9ZFRYjzmSLMqR7nJY47q++rX1aPJ5H0c5XneS18cc2mmTJkCatnJyckiec0QCYLU6kNDahQwYT++dxB+vp7o2T3FKOXa3t1T4eRUHa6uBYuCcjFfVuaq9wYOJkOxNpU+4FixdJjRaRsMw+2a0Qwuzg746MZujVXFuRPrhJrK8DWGyVb0i33D586dKxLPZs+eLbQO2nq54mRSGv1JLG6obMocmBMN0IdB3wLNl6R/akLU6hiebIgXF0Qs1zFl/EAN+cBuoBkdU0QTpSOHZhudbDt3ZjHCw/xFcUZtmUzgoAZPkH5freO9gYPOK2Zcavs3eOzv74HLF5YZ3eReubgcAf6e6JXVQYMoqIoO7NdVACHjyg314qqyRYsWQq2XjnLafWNiYgRTsdCfOQkN5b9UbhCk1kE/VdOmTUWeCs21bDvNHuWGelHLoZnT18cTD+9q9ibftnGmMMPPMcL2ssxL65KRLCJctZ3klMmBgYGqkjjvAx7vDRwNGjSAn5+fhsbBKrL0b3Tt2szoQIPaxsjhGXB1dcKdqzs0gOPF0xMICQ4UIZGsB2WoFx10a9euFWo7w3JpsiKAcDVG/8dnn32mAIeidZkNDbDKM314DCOmpt+2TSoS4mvjmoErUZ84cULU2Fu/aqqGnPjys1OIrBmMxkm1jVK+zZ87QESEagMHNQ72tbl06ZJhNQ7W/WGhN2oc/FHciGpubo7Cf7Bi2XCjm1gmyoSH+SG5SVyBtrBLFowVYcUV7YzTBVC3bt2Cq4sDMjI6q5zkc+bMEXZf5ldwtaCs1Cv3St0cnj9NUXTUMxSd9E1to2aYL5LjXTF82FCRRa6LPyri3O9//3vUrFkT7dsmawAHLRPzZg4XEaPG2Kvj1IkF4rcxFULKZTnSfMV5fh9tg+99L42Dq2D+EG0zFR0zfn7uOHlsvtEBB2Odra0tMW/mMA2n+LPHxxEWWkOYiJjJbcjXv/71L0ydPAEhATaoFRUqnIXSUU6VnoX4Ll++rACHonWYNA3Q5Hrw4EGhWTPklg7xpMQEJMQ4ipIqSQmRuHr1qkHrWK1YsQKOjg64cWmrBng8uX8I/n5eyOrR0uhkHK0qbH9tbW2lEziYK2Yw4GCEBcM1JZKpjwST+vVr4sql5UY3qd0ym4u0/LvXd2oQwqE9S4SWxMqphnzRTPXZZ5+iQWwosju4IyrEDh3ersYIHnSYMyyX4Yz//u//btKCwxxWzMp/KL3W9/z5c1Hig2HOXIT2798Pzg7WyOngAZbZb9vUC2lp7YWQMxRPMo8rPDwcA/p21Wglnd+XvClcXR1w4uhco5Nz06f2FuYqdbks9728vN67/EipNQ4W4AsICBA2QPmDOErtg5Ukb99ca1QTevXyChFx0Dm9Od681qyC2y+3E9zd3US4pqGIlN/7hz/8Ad27dUKTOCeMzfVBtzbucHN1EvZfqXXQVMUIlLNnz4r6PYrwKr3wUubOMHPHKs+LFy9G7dq1RYIf85ZiY+ugeYKTqurzoEwvRIZ5ib7rXFAZ4kVfJ/NJvLzc8UDLSb5u5SRYWVXDkkVDjErOUeM4tH+mcBlom6son7nt27fvvbSOUgMHHSy6ej/LH0aTEP+AMW3Tp+WKnhvHDizV0DaYABgaEiDq8hiCOOV3kjmOHjkET1dr9OnsKdqEstpoXLQ9miU3ERFVBA86EGkTZoId8x8U4WcY4afMe+nnnflIzNNgVj3puXevXogMdcKwnl6q9rjUOjJauSK1VQuRHyL5pKLHU6dOiQoTWzfO1pAbzOnw8HBBqhFmktOXy+RrBilpL+wpoxmI8D7mqlIDx9KlSwtoG/IHsqkIQ16NCTQuXViGunVCRaY4y6XTwSW3dSsnw9XVBc+fV2yGqjYDsBNZuzbN0baJM/JyfVUMxPLjEaGeAthkeC4LDEZHR4Nl1hUBVnoBpsxdxc8dBRYFV2JiojC9MnIwOMhP0D3BQr3T5OhePkis7wc2iTNEQi55lFaA0NBQdO3cWiUzpOzIG5kDD3dnHDtiXOYqhuV2TG+sARpSPtOVwCrAXHSWFjxKDRxMSLOy0uF8qVIF7KZnTKDB37Jty0ShbUzI661hpmJxw8SGdUXCHUt+GOrFuPHNmzehXpSz6Iegzjxkpib1nVCnToyo3yO1Dj4Dah7MRlYEYMULQGXOSzfntFaw/AVL6XAh1KFDe4QG2mJI93fahjr9d2/rgf+PvfeMjuLa8r6xQUgCSQgFQCILEEEiCyEQUWSRcw4m52SMjU1wIGOCMcbYBgwGAzY2GDBgwNjGJjrbN807d+ad55m582m+zb137po7s9Z+399pTnO6VN1dLVW3GlCv1atCV1edqjpn/8/e+7/3bt26pYo/KK/xuXbtWqlXL1N+uvuhD3jc+vKIpKfVlMWLRkWdzHv+uSkKOJ54wsN41cBBOdmMjAxVYjniwNGiRQuf2A3dKNCMBkcbcCxfNlY5i86c2unz4s+d3qOc5du2bY1I9k1/HZ+AwxbN6sqIPikylP0vAAAgAElEQVQ+My49gGaMqCW10+Jl/Phx3uy5JIHr0KGDKmeKtlIhyEonyCqeW+SeGwWryE0FsQaiB/66Zk3qypj+qcohrvu7ucRc26VDmjzzzKpyY1gRlEu82rNPz/GRH5i5C/JbS25OlmDViCa5996RF/yUuqgs1atXl/Pnz0dW47h+/bqtCgR4UOwEx0w0PUDaQrBO65wm8k+/9U1ouHTBRImPj1cVyPwJ9XDvxwG3fNlCaZ1dXVVeMweNXl8xLVMG96gpbVq39GodzNZINkdtbFI2VAjA0AQgdFDiCCqeW2jPrbTPi+dNsF/79u1VXioc4n2Kekm7FglC/9Z93W6JuTavQwtVJbM8UgFhESBdR4MGdeXnew+0jn/7pyuyeuUMZc3AqhFtcq95doMSshofBxN8nn9ENQ7SqHNhGqA1DZbsy2qcKZ+c2RRVDxD7I7ElLzznm3cGO2Wnjjmq1nV5RYrjEL9165a0zaknlHRdOcP/AKLsZ+vmNVVGV/L5YLJC64BhRSeoSEUSmgCE2fP73/++gtYcoXgY8j+RJp0MxzjE58yZLZm1E2VicVpA0ABIMNf27pwmEyaMF7TrSH8Yp4cPH1axER+d3O2jdZz9YJeyZqxYNi6q5B4gNm5sb7GaqpDVTJbJRhwx4CCvDCmaraChAaRz51ZyNcrq8i5aMFLSUpPl9pdHfV74xTN7JSGhupw+fTrS/dB7PWIxhg3uI907JvlV1c0Z2NBeKVKvbi0VYQtwoHVQZ6Nr166qRnlpZ4Nu/g+BTHZZMid//vnnKojrzp07KhOvG+BGkjayCFMRrqztJpMuqaadtIu+T1aB27dvq+uj6tMO7g0AwgxT1vY4/T9xVLQbTZMUNFyfbLM8e6fniORxvCsc3OSgIgsu0ctdCzpJ1/aJsmxKRlDgYAzMGl1bmmbVERKrlgc9l2eMwF26aIqPHMGKQTnfwq6tow44Nr0yR0gBpeWzXpJ2nfiU0iY8DNk5Tlpt2DyVK/vSvHSDyAcfTeoaSRZzchpL506tS9TdmDtztDRvnq1YE15JHuGVdw+/LY3qxqtIWRMg/K0vnFBHcpslSJ+i3mrWBngwCKmSRkEeOkIkBYL1WswGiQLGB2amooFIgdBYvXq1rXmIspY4+mHrWc9pbpPmhmR45NzBRu5E4Jv/t64jbL/77ruABAOoo5SjZbZM8JS175N2h+RxtIvU9+H2Nx08eFBpmbVq1VK2ampYNGzYUO3DdMlECCaQ9V7Z/uGHH1S/IZ2G/p3obdqtt8OxJNiPPGsErqIt01ezGtSQ2aM9tHN//d3cjzlraO80GT9utND+SH+wSlBLJb9TWx/gwHKxbs1cZdU4HWXsqhPH10vNmoklgIOJP2Pyxo0bpdI6QgYOZlt45K2MKhqCSrRtS3QFw7x78DlVtWvlsik+KUZ+untKpQwgdTMpPsrjg7YxaGBPGdyzZlAbrzmAJg1Ok2ZZmaq+tabnUtcaQXLhwoWwCoBAQgUHor+iXnpiwRIBawW4o0ePqs6N+mx3DZ4VAg4hqc8FO4RkkGXRPAAeZu18UdvNa9NGgJlZpr6mkyWgSYK+srTLbIdeR6NB8DppQ3p6umItkfPsd7/7ndKU9u/fr4CGsYuvAf/Orl27hOfIOa9du+Zz//q6ZV1yHbI7Q7/FpMrkoWmTBtIrPymgadbs83p9yaQ60q5VLZU5tzzGLaCcmJggl87u8wEPrBlYNZ55ekJUTZzPndkkWVmZJSxEuBWYADF+SmOuChk4Pv30U0lMTCwx66LjxcVVjbr8VBvWzVBBMO8f2ezzok+/v0PZK7FblscHTvrmTS9LbrNEvw5xPVisy+VTM6SgbZJ0Kegs0AS11kFAIILFKgDLOvCd/J9ZNhUC6ZDBBBtqMjmAzPMGAg7MMtRn0ALOPD+1YMrq34HRBnBg+tEzdTjuhYWF3n6enJysNG20bbQOsw1262hEmGbcBA9iH+wqu9ldX+/j+Hr16qnJnt5XXFysyCBU7+N3vhQuoiCU+U7cWsdcSS0ZStsy0Rk5Yrg0rhcvc8fa02+t/d26PapfumRnNxO0mEh/dOLD+XPG+8gTaP0d2rWUrl1y5fMru6IGPK59tlO6FOSU6K+eif4T6p1EBDioIGVV1XWHzGnVKGoemDaXDRncRWql15TffH/a50UvWzRJzSSxW5bH5969u9KgbrKM6pfqyL5rHTxThqZL/cwaitoIcPBlJtexY0chHXRZTTihCA3s6hAmdD9wssS0Ypp07ICDe2DGjBko0DkBFACU8yGoqd1+6NAhx0IbkNBaB1oT5liYP1wTLW7r1q3yH//xH16hSrsoK0y1ukBACeWR4zCHYU4sS7zNiRMnAj6DQM9H/8ZzYnJx9+5dVZJV76fCpAbMUN67k2PRFEnMSZS41jZyW2XJyD7+6bfWvm7dXjypjuS3y5CXX34pYrXItYxAyyG3VoP6mT7sqn/9x89k+uShqt53tLFKp08daNt3AA/o/PTLUMEjZI2DmhCm7Vp3PpYkENQCO1qW2c3qyeQJg3xAA5tk967tZeiQIRHveHRAqH1Ll8yTjjkJsnhynVIBx7KpGSqvT6e89iqrKMABU4XiM5gEYLA4GdhuHIOwJWOv2RecrJNQUl/fChyAAOYNbZpiBh/onExmmEEjBBH2aCLHjh3znl9fx26JRqOBgxxsaE4MKnj7gcw3lIqdNGlSwHalpKQINWuY1SO0S+NAh2hQmudrfV6bNm1SpkyioLk//Xu4JhmcF9Np27ZtFZkDn9TAAf2lbYtEWTLJmUPcChpswzycOjRdinrmK60j0o7yAwcOSHx8nFAtVEeQs3xr3zqVKHVnlJWT2PjSLO+71u+cpfbN4fcKO3Dg4LL6N2gEHXH92ulRBRyv7V6qXuTxwxt9XvCPt09KakqyvPPO23oiEbGlh357U1q3qO3YIW43eNg3Z2xtadIgUdUzADQAD9I3YBbYuXOn4xm3nTANZR+OVbND0hcQ3AkJCX61U46HF6+vYwIHJqO+ffuqczKjLygoUAKCSYtd3zOvzTpCmgzC2Pb1+QMtscHjIAc8eI76fIBQoP/p3/r16+cjiPX/zSXPAtKAqWXp/wdbfvjhh977zszMFLQP6oN/8sknKgEf7BjOb15PrwOomNdOnjyp2Eh2k75g1y/t70xeCPQjjTfPFXNYzRrxMrqUWrY5DkgA2rsgQ+bOnaP6ecQGsIhiL1IkaeOGxT5y5e6NY1ItPk7GjekdVXIQDcia7JD+Qd9gYkZcXliBA2chHddOPa9ePU6OHFoTVQ9s/NgiyWpcV37/0xmfF7z55SWqnjAmhEh/oHR2L8yTHnlJssKSl8ccGE7W4bYP6FZTmjZppCJwAQ5syGTzRJhhhivtoHf6PwQhtZm1oML/tXnzZvnss8/UbP3tt99WM3f9u7mEZUWH5VoaODBhsZ/jcEpj4kEj4BjMHlCPzXNY1zHHUNcBwer0HjBDMevCxIXqrs/p1OYP0AUyp0Emwala2pk9LCTaxNiDfWa9L9qJZoRGgaAGKPgisF9//XWlfWJOpEiSvjdzaT2fG9tcD2d8y5YtZeXKlR7mX2GB5LdOFCLBnfTvYMdMG15LshrVU47+SI5j6vWgRVoLPP3pn67IsME9pXXrrKiSg+StalC/Vol3zwSPiQR9M6zA8fXXX6uZlanm0gGfqFRJMjJS5XQU5aWHTZCZmSYD+naVf/nDRS9wUGy+Z/c8RV+NdG4qtI23DuyTjPSqMntM6RyD1sE0f1wdadYwQYYOHeJNRYLgxFwFiCBs3RAE/s6B41MLIbQM/CvWY5nJAyj6OL3EFIR/ASGD+q/3MzFBENudi3OTUVUfay4pPwrH33r9QNtoG9j8EbwwjUzHN+0K9F/zt3feeafEhIr7wA9CnId5bKjrzz33nLpf6Mqh+CJgQPIc8dHg+4kkcBAfA3BBagD40AyaZ6WUWcs2+//yaRkyoFuqTJ48MeJaB2Orfv0M+aMlYeqbe19QLM7D7zwbVeDRt0+erVZMH+VewgoczB65EF9zwAIkLZo3kE/PbY2ah/XmvpUqDcArGxbKn/7pQSbcG1cPSVJidVmz5jmJdOoCNJyinnkqH1WwFAvmAAm0jtYxpn+atGrhq3XArmrdurUA9qEKqlCOhx2l+wJJ68z4AH0e7Po4R/VxekmiO0xE2MExt+j9UKQJtNP/ty7RDPSx5pKZUyjCnvPCqqtZs6bi50P3NQGO+A3rtf1tI9CJiDbbwzaOdn//cbpfAwfPxel/ME1RL4exiakPwRAp4GCygqYIwQDSAr6qnFbNpFcnasz4z4wQqJ/7+23BhDpSmN9MmeIiSc/9wx/+oMpM73/tBe+kFD/Hz/c+UDT/WTMHR40sxN+8YN5wW+DAz6GZmKGAR0jOcSI+6YhWjYPBQtRkNNHQSLSIXe/TM74OrIP7N0hMTBWBVhzJD9rNyy+tk/YtE4VU0f4GQmn2cz4cjkVFvRVzBZMVA5ZocoSFnTB3KoCCHbdo0SIlLLGxB3L8Yj4zhSrr1HNhRmruZ5Ya7Jr+gINgpmD/tf5OvWuuz2zeChyw1EJ5dqSOwRkOm4q099Zr6W0EaygMK8xNTNYAAEyd+jx2S8xucPPR/vRzvXjxovpPpICD94CfDYHEbHbs2DFSt3a8kG+qNP072H+G9akjPXv2UM80UmP6L3/5i2KmDR3cW2BUaSf5P//uUyns0k6Zq65f3R014LFrxyK/fg7iqkIBDY4NCThwZurOaF1Omdw/ah4SCDt0SFepm5ku/+/vP/W+VF7utMlDJDMzQ5lwItXJuM4339yQzDo1ZOyA0tFvgw2eCYPSJD01SVEfta8DoZ6Xl6ecX27GE5gCi0hl+gLsInO/dR0gs/YZc1vHaPgLADTP5xZwAHQ8H9qBdmAFDthZ0IHNawdaB2R49pzHpO9a/8Mx2P7RCqy/2W1jSsOJic8HR6bdMewDVHgPVgc4Wh2/RwI4uG9Ak0wGmEwhBOS0bOIJci2jT8/fGJg/vrZ0bFNPUcIjZUX43//9X1VTJDU1We7eeM8rY/BzzJ89RpISq8nJ4+ujRiYef2+t1EiqXmIMogQQ5xM24IASiMPNqm3oBFrRlkq9ZYuGMml8SRpu2zbNZfbsWZHEDEHbmDF9knTKTXDNMWgdRKrgTbskKSwsUKk4EE4wWYjkRrhDmfUncMqyH0BgdomNP9B5/AEHLKmhQ4cqFhgCPJLAwawfAa6vC3sJjcEENIQwtGHMjIHuz8lvmNHwo3BOGC2Yc5z8DzMYtVdoFz4LxqLd/yjqZbZdr0cKOLg/UsJAMCCTAfTbIUMGS+vs0INcrf070Dbm2nEDU6Vnjy7KNBgpei79JTa2qnxwbLsXOJicvvna8xIbGyO7dy6OGuD4+MOXpV7d9BLymz6CTKePhAIejjUOEqnBeLHzbwAe+/etiJqH9MGJFxUN9+D+9T4v9N6NY+pFQ2OM1IeZyWefXZY2LdJl9pjwqOp6UM0aVUtaNEnzRugCHkuXLlV5o06dOmUrbOwEUKj7AKVAZirOZwcczKChDcPM0qyqSAIHdF0c6gyeMWPGqDQhxDhogauXaEMEVuJk1gyvUJ8Rx5P0kdkd58XBj2Pe6Xl4xprxBdXYjvFV3sABEGNqZLKCQ3zx4sXSqH6a3xozut+6sSSuqUfneiqBIs80Eh+IHQjdF1b7Zt3+5vPDaj9+hWiJZ/v0/FZp0aJBCeBAnjOJQT6EBTgwD8A4sWocDALq2sJiipaHRL4YqnL99vuPfIBj+6YVKvUCtMhIff70p3+Tbl3aSp+CGo6y35ZlEOF47JWfLC2aNxMcqgAHAxgzDLZ8a34op0LLjePsgAPzC2YYzl/ewEGAHewvooI1YNgtATuyQ587d07RnZ1SbKEH43PinDDeSqMBMptnDBLkySC3vpfyBA60DYgGACMmMfpdUe8e0q5F9RIVLcvSxwP9d9KQdOnYobXSeiI1vvPzO8mQ4h4+cgato03rZtK7V/uokYn4nzvne7Rrs18DHHy3bNkSHuC4fPmyykhqXlSvN2pYR768/lrUPKQ+RXmqtjj5Y7TTiuWgAT3U4P3rX/8aqX4lr+15VZrUryZzXKLfBho4/EbqaRyRo0aO9NJzsTPDsDpy5EipYwmsQirU7WgHDmZd+BzOnDnjt5/r/s6S49FWEOKAXqDAPrQxGFH8j1gMACrU58fxCGdYcnbaBr+XJ3AQRU9kPCY1THDE2zRpmCqkxglUYyZYfw7ld8y1RQXpsnjxImUejsQg37BhvYolMeUM60sXThTkYrRMpmnHqJElmY0oAnxhRIZF44Afbxe1y0W7d2sTNQ/o0oVtkpmZKkOLe8r//X8ue4GDbLjJNRJVOmfMR+H+YGdlMBV0ypWRfVPCrm3oAYa9d0TfFGnVoqlX64DZguDC1EGwWmmEVln/4xQ4YFqR0wgBCZUVLYkvM3aS2jGBwaxkCnG9HiqryjRVcQ6YVcQ+MFvWznp97mBLfCMIS5zXvHeEvH5mBOYxq+Pe8HHo/W4vyws4NJMLcx7R9nw7tm8tXdoluk6/1f3c35IJWl77ZgKTLBLjnBgdMhVY2Zsnjmzx+D9OvBg1snHxQv/aNGl2IFc4BQ/HPg7SL9P5rQOIIiETJ/SJmodDnd2EhHh59ukZXtBgBnDh470qvwy1DCLx+fOf/yzLls6TDq0SHBeq8TcYQt1PZG6b5klKEDL7w2QFl56cQWRsNYWa28LL3/mcAofuX+SmwnxELABfyuPiGIZ3ro+xLkMFDrj4WVlZ3vNBo33jjTdURUaeV6jgQXugwRL0B7sJkPPkNfKkZeddhBLA5+9Z+ttfXsCBY7V58+YqVxiTlMmTJkqDzOoyY0R4fXp244KJ06AetWXgwIHKHxXusc5YatIkS1Ytn+Yjb368Q1qjGrIuitIwbd44x9vXzbGDXM/NzQ0p2aFj4KCoPOq5eUHWAY5VK8dHDXC8un2hcowfOvCiz4t8c+9a5YvBTBCJz/Xr16RBZoKMHxS8LKbdACjrPrLuZmakKnYLwMGAnj17thQVFUkogW3+hFSo+50CB4Ic5y+ggT0fAOFLWnOAo127doolZu2HbIcKHMywtMNZnw8KLiwqZpKwZoidMIMC9XGhLvFvBCMQhPpMrceXB3AAhKQU4TmiaVDKuEO7VtKvMFmWuxzs53RMkK69TU5DxfQLNz2X8giQAboXdpB/++ODeI5/+OUTyWnVRAYXF0SNGf/wwWdLyG/6MZMxxh0avesaB5lH7TWOJ2VPFNHO5s0ZpgDizlcPuNVoHIsXTFQRwsQzhPuj6LfTxklh+yTXg/2cDp7FkzOkY06i9OzRXdFyAQ9MQDhm8XmEwuixCqjSbDsFDlhVvCOd6pzcTHwhZ9CxabdbcRzMFjXN1QQCgAKQ5ToE9eH0xSFeFgDhvwgYAk9L8/yc/CfSwMHz4xkRC0PMECY+yAXZjRJkwfjSZX122r8DHUcOuNH902XE8CHKzBnO8Q4w4R+AjPPLtx96J6v/5x8uyaD+hSoV08Xz26JiYn3x/FYV/Gz2ddYxtZH+B9af68BBp7djVMXHx8rRd5+PigeDA6hvn46q/q/VWUXOKhLAhftDeclPPjkjzbOSwk6/DTR4+G3a8HTJapimOjYaB+CBQCTpXqBAMidCKtAxCBRiDUhRg98AM4a1s7Jd3qwq7gEaol3b2EfKDjL/ko+LQUUwICYstB7a7u9/wfYTIBdK5Li/Z03A4Y8//qic81BfKTxld+1wxXFATcYkR8ZsQIPyunUzUlWwX6Qc4v7GAOZaanZgmg13TjrMm9Wrx8uV8/u9wIH8ef6ZWcpsHk3ykZyC1j6CQkD6H1h7rgMHNjA74EhJSYqqCMlmzerJvNmjfV7gv/7jZWlQP0Px8MMNHDhGO7bLln5dkiPmEPc3eEg9jdbTvn1bZUbQWgeTABy54UqAiCkMR6m1g1q3owE4cOwGaitqPKVgEYoACBmH0XowZQEqOv279d4CbTPDI7sqWpU/UHCyH7AwMxP7u2a4gAPQxaRIOwg2HdC/j7TOri6LJpaftmGOhQnFtaRRo4aK8h3OcY9GHPP/z9rfecM3buzIOy+rQEDSfUQLu6pjh2zbcYlGfOnSJfeBw18MB9GIRCVGw4O5eGGbQnjyUZkax8UzryuGA6mzw/lBbd229WVpWj9e5o1zJ/utORBKsz5jZC1pWDfJ67gEPODZ5+fnK+et26lIEKoIWn9CzNwfDcCBgD5//rwjMxSDa+rUqco8Y6Zth51FcCBpNqzpPsz7ta7jbyqN3wNNA/OI9Xz+tsMBHDDdoCITI4TTn0DT5k3ryOQh5ePTsxsbSydnSO8uDVRQIKnQw/XhfcCYWzBnrI/cuXn9XZUf6plVE6NCPiKjBw8qKKEAoBDAmP3444/dBQ7MDsySrB2TCzZtWk/On90cFQ9m6+Z5kphYTe59fdznBa59bo5y/oTbv4H5oSAvW+Wjgt1h15kjvc+TerqmtG+X69U6MCsQ4Qvv3g2TiTk71oF81r5itx0twMHAN7P82rXV3AeAEBeD2c90yF+5ckUJEI5Fo8Chb/7Puo42Qylm8/k5Weeawc5tXstt4MAhjhkS9himO3JSdc7voGptLJ/qbgLPso6XmaNrS/cubZWvKpypSDDJ9i0q8JE7lHCoX6+2DB/WLSrkI8AxY/ogW181spxyy66aqoju5cR8zQ7Jdm5uY7n86faoeDCTJvaVZk0byB+Mwk1/+uerMrB/ofTo0T2sts7//M//lIXzZ0j7ltWF9Adl7fBu/h9HJTU7Ro8epWzRWutAM4BBhE/CicBycgwmHd1H6B8EvJEPym4mHi3Aoe8LRhCatW6/0yWORarb6QJUaHOYLAnUI4KfNCZ2jETOTyR6qGlMKJDktG0c5zZw4FeB2g1hAN/ZjBnTpWaNWJk6LD2q+j1jiAncgO51VRwTZslwfbZt2yaNG9UTkhya1o6xo/pJu7ZNo0I+Ahxk1bCrBshY5R5cBQ6CaTgxX2uHzevYPGrSqWO/gxb3z0ZG3H/4+axk1ElXKTdwXIfrc/7cGamVWk0mDY4eVV2DD4NnaK8UqV+vjjJTARxoHQTSMVNyU+vQacrpJ8y6EVqk15gzpySHPJqAA22UCRLFo2AGBYoXsY4B6zZAgflG131nCZPNDjz5L/m6NHg5WTLL19ckbuTNN99UbC2CuPR+c+kmcPCcuDcd7Ie2QbBf3y7Qb6NrwqT7P9kUqFdz/PhxCZfWQcAq5p47Xx71AY4dm1dIelqNqAGObVvmiU5Ma/YRZDt91FXgeO+99/wCR5+ijlHxUEjilZqaJCD8vxp86i8/e0cSE6qplMvhAg0G+6Txw6VnpxpRp23owbNwYh3JbZYgAwf092odCCColNR7CJQyw4kw08fouhswNczUGqHQcfW5/C3douOa54coQHv1F00MnwVFnswBFso6Ji2SGeJIJ6fVsWPHvKYs8zyYDUPxNVEnhP8ToEisib6PcNNx0Uy///575R+j/juTj0kTJ0qLrESZHyU+Pd3fzSUTpxF90mX4sCGqn4dDDmC+g6iwe/szPsDx2bk3pErlykLd72jwAx98e7XExJSMxwM4Qkk74igAkMIwdtoGnXfkiO5R8UCOH12r/Btrnpnp8+JOHNmqHOPhKtyEFnPq5DHJzU6OGoe4OWj0OoNn4qA0adGsrmIIoXVgZkBD6Ny5sxIIWgCVZUkQGP2CTMrmeaIdOEibrkFDL4nhINXOwoULJT09vdQAgmYFOAMeJ06cKHGeUIMDNXBAc8Ykpp9zuIEDhzjxXMQCkTL9mWeekQb168ig7uXPINT93N9yyaQM6ZLXSNVB/+///m/XsYNMEUzCJo4r9pE/xHakpSbLi+ufigo5eeTwGlXa1py4sI58p6iaqxoHMwvrhfT29GkDo+KBvL5nmcTFVZW39q31eXG7tq1SziBqIIfj88c//qO0zK4rA7slRyyZm7/BEWz/sikZ0ik3Sbp0KVAOTcADrQOTEnRKp5letaCyW5I1lr5BtLepxTgFDmbfmIwIukM4ESfAl9gH0ncQSwH7Q/c/c2k6qu3aFmgfAlgDhr8lOafQQsgAa0cWMdtit06SSWbtuviVPoaUKiZLK1A7+Y3zMNAjCRy0mwSQTAgI9qO/FA8aKNkNq5VrsF+wPm/+Pm5QpuTn56nMCW7LAsCIQne5Oc18KgL+4eez0qJ5Y5kwPjrSMlHQKTk5ocT4oT8VFxe7CxykG9Gd3Lpcunh0VADHxpdmqYjxKxd8g3AWzhsn6empEo5ZBknUNqxfI9mN4mX+uOjgrpsDxW598pB0qZWeqMp6aq0DdhBaBwKzrI5ywILZOQ5xckFpIegUOChBywzdn4aLTR+Hu7Ufsl0W4IBS6w8wzP2YnfD5UbjKrg2B9gHQzNqpB4NTXB8bKnCgPfMcAGczfUw4NQ5dXRAmHj4OgLxZVoaMG5Ba7vFKdv3cbt+iSXWke+eGsn79OnE7FQm+E55JSs0a8vO9BxHklJLtXtheOndqGRVy8tT7G6RWekm2H+MtlBKyjkxV2DN1J7cuX1gzNSoeCAAGc+WXbz/w0TgGD+wufYp6uT3BUE62X3/9RTq2bSQTo9Ahbjdw2Afjq1d+Dcnv1EEVVwI8mNmTk4mZJIKtrOBhF5vgFDjoXwAHaj8Dcd++fcq8gFmEyGiiuf0xlEoLHGhaZA02ASLQOhG25NOirTCqiAMhjoEgWYDPOkb0NhH7v/76qxBPZAbuYfrBRKBBNtgSMgMR0SZo8J9wAAfPBroy5XBJNMl7IHVNz57dpH3LBFk+NTpo5/76u3X/1GG1pGtBe2WaddtRTl9NSKgmn198yyuDCD4ePqSXZGakydXLr5a7rPzog5ekbt20En0U4CDfmKumKuyauvNbl5s2zin3h4HTaeyYXpEES0sAACAASURBVKrGuJloDFoc9Y6fX7PadeBAuE4cN1g6t0mMWoe4ddDobVJPt2qWouzVmBwADyLJKQHLbJYgvrKCh1X4OQWOHj16qPQeduCDECNfFZmarf2Q7dICB1oSwjwQWJi/zZgxQ5mqADgy4Op7hX6L4x7Trp1WROp1qKwIfF0JkHaTydUNM2E4gIN+wDMnboU8YvQXSi/Xy0iMSgah7uP+lhQ761NYX1XJxKHt5uezzz5T/tSTR7d6gQMZtGj+eEmukSAffVD+gdJnP9oojRrVsR0/mD5dBQ4iRO0GKvv27FoSFcBBTZC+fTr7vDDQHtXxzJmP3Owf6lznzn0s9epUU4Vq/HXSaN2Po7xf12TJbtpYzSABDswP0DmhzRJXUF7AEcnSsVrgc78mMPhbx/eCdka/R+th3Z/AB3yZcJm0XmJE0Gygx5KFV48pnN26LWVZhgM4YHvRP9CmoGuibRR07iDdOiRFvFyAW+Npxsja0rFDrtIU3RQMpJChX+zbvcZHDm3ftFzlsjr09upyl5Xnz26RZk095Yt1/9NLtHlXgYMZkT65dfnWm0+X+8NA48jNaSyL54/3eWF3brynuNXY2t38MJiKB/aW3p2jl34bbJCRerppw+oyeHCxt1IgviwCuy5cuPBYAYdTMxVOabQMxsCSJUuUCSeQoEdratWqlXfsEBiIr4AIc2p/6LEExTXQeZz+Fg7gQEPCRDhz5kylbZBypVG9BJkdoYqWwfpxaX4n3qS4Zx2ZOfMp1c/dkg1/+ctf1Ht99umnfOTQ8cObFHFn7+6l5S4ryZDbskVDb9/TfZAlvklXgYPsl+YFzPVoyfxYNzNNtm9e7vPCDr65QdLT09QAd9o5cHgzUHmA2JJxmjJ4mG0S5ENW2U0bX5G6teOkuEeySi8ybmCaTChOExzP04aly1Mja6lSsQsm1Cm3tOrBBhRax+h+qdIiu5Gqp8CsEjMEAYGYi8qagM8q7JyaqiKtcdjRcO00DswQOPzp+2THpTqh9R6t25jAmKnzH2aiJEXkGJOliLPZ+j+9jTaDNgTjiqhnvd/f0m3gYAzorLtoGvg3yMzQp6BG1DrE8eGRZJGJ0cxRtWT68HRlFZhYnKZq44wdkCpj+qdKcY+a0jQrQ70TkhRS+REAxyxH38fXhykr1BxX9I2J4wb5yCFiOWJiqsiWTXPLHTjI8pGb+6B4mSnLIVu4ChzwzM0LmOunoqA04qVPt6ugltPHt/u8sNUrZ6h8Ogw0fx9mhWQ9hWePc7hfv37KCYi9n8JBmBcIAmOGSMAVNEwz8pL1J5+sJFUqPyFVY56QuNgnpXp8ZUlKqCwpNapIrZQYadYgTjrlJsiAbskyaXC6LJ0cHQwsUk+3b5kkfYqKlNkF8EA4YOskrYWb5qpoBA40RwSFCRRQfQnU40u1SJZQg9EW6PeYmDjGpBr7E+Qme2r69OlqAsNERGstDFQmI9b/Qw1GUMNyIR8UWguOSwomBQJ0t4GDbKnNmjVT5ktifsaOHSu5rRqoiVGwiUkkfkdzoMrg0N41VRboVk3ipXZajKQmV5HkxMqSUK2yxMc9KbExT0iVKk9I5SfJflHJR5YRqErENyw1EhUy64bwQPQ/z573jk8LKjZ0ZCYMf//73/2JE1WaulePPB85RDVAnM9Pryj/gndXLr2qUqCYMlyvw/RzFTj0oNEXMJc4W8o7IpKglvi4WPnh9kmfFzZpfLHi3f/1r38Vvjgv0RxgP6B6MxjpMOb9RGI9ruqTUr9OrCorO7hnTVU3g2y6pEGPxIDT16BmAjOw+nVTVNQowIGAIM4AzUOnzLAKttJsOwUO4jiCCWW3Iseh1hLcyv1qzSDY+0eI84wQ+Pgx7J4FgItmqvNeoUWh2SB0AAN9DfJbMavV52DQ0h7T/6GP1UsGN+Bu927sgAOHPODINciKrM9jLvX1zSUmNZ4LGXy1tkEMy6SJE2RYUe2Iahxox2gRaPL0V2qZN2kQJzUSSiZeNe8rHOsAAKBCWho0dN4z7wLtEIrvli2bJTenqY8c+tM/XZWUlBoqwWB5y8prn+2UDn5SqzMpdhU4ELD+XsKn57aUO3Bs3jhX0tKS5VejAhdsBmh3cORx/DIAGjVqpGYVvHx/96P3p9aMl2ZNakqnDhnSt1cjGTkkW6aMy5FZU9vKwlntZdXifNm0rqds3dBL1q/uJisX5susKW3VcT26NpCW2alSs2Zc0OugrcTHPinJSVUku2G89O1SI6Izuukj0iW3ebqil/KcAA+S/RHXQarwYELcFDb+1mEsEcOgn61eMvMGyPmfzqqLZqevbUZFm+cuK3Bg+oFizsyyNIF8uvANgpT8R2bbWEeY6EhzhC/mJjQNmEn8l/uHgos5xPwv/gPTma6fk3XJOaiDQVS7marEChwIOAIm9TFOgQMhSK0NzC74vSABQJxAa8LP06FNA5kXgbgl0uQM650i7VpUV1oEmjyavfV5WLfj46pI44bJ0jkvUwYPaCpTx+fKkrkd5fmVXdWY3bWxj2zb0EtWLOgkC2a2lxkTW8vYES1kUN8sKexcT3JapElG7QSpapOao8S14uMVgw6qMpTsZcuWSq1aqT7AgSzKzcmSYUMLy11WXr+6Szrl2Zc9oF+5ChwIX+sD09ufXdxR7g9jyeLR0iSrnvz+xzPy451T8umZvSo3flxcrN92x8Q8KTWT46RuZqLktkxTnWbGpNby7PICefWVInl7z0C/33ffGCyXPhwr31yaEvT74bsjZPfmvrJyYScZM6y5tG9TWxrWr6GuTb12/RzNJSp1o7qx0iMvSWkj4SqMQwpsCj2NGT3c6wBlNs0XIcbsWgt2U8A5XUdYMpjMezPX7YDD/B1tkHQfpP4wZ+b+gAMTUqDiVPgJyLtGPIV5nbKuE3NCLIf2QxCrQRJArWmgnWDy0dfB9EupAv0cAedAsVL6f9YlIIu/RNvjYT1xDP4UrmF9d06Bg2JV+DWHDh2qzo9mRPsBRECIbLj9Cmu5TkPHPzFrVC0Z0rOmYHbC1GS9Z7aZ+CVUryqZGYnSIjtVBhQ1lvlPtVegcHT/ELl2dkLQccnYZQwzlv2N9de39ZP1qwvVuUcMaSb5HTKkYf0kSUuNF8DJavYy2zpqeB/Bx3r7y6PyL3+4KEOKu0u3wtblLiu/uLZb8vM9vjqzvfq5Rgw4UH3KW/0aN6a3ypkzY+owadyoriQmPmCsmA8ntmoVadU8TYYNbCYrF6Ex9JBdm4pk/6v9/XYea6c6eWi4fHF+kqOOaQcsdOpz74+WE+8Mk41re8q4ES1V54+p4pmJmu1lHRttWnIVBSI4+7SZyY0labDz2jVRjsEdO3Yo7Yw04FrrICgQuzoBYFrIOVkiXIisRsMLpN0FAw79LDC30A59bX/AgQYBK4xkbTCl9PF6yT2aEdv6/G4sATkz07B2sJKbSpusuA6ahtVPQUbe0rYLkMDBjv0dWz3XIP+YXQoTO+Cw5hTDzEaNELSjVatWKW2DKodkwYU1xAdWWF6HHNeo6EyMcFY3qR+nwKKyH60CLWBAUZY8s6SzvPfmEPn46Cj57KPxcuPTyaUej1+cmySMaes4t9s+sGuAvLal730rQ6FMGtNKgUlKsr1lITYWcEuXwYO6S++eeZKT07jcZeWXn++Rgs4PmH7Wvh8x4ADBygM4Pr+yS06d2CAvrJkitWvbZzCNi62iVM7uBfVk9tQ26oXbdQgn+w69Xixnj42Sry8G1zLsACPYPmY+KxbmS7eCelI3I1FiY0vOtvCN5DStptI8wNgqC3gsnlRH8lrXkHVrn1fMEcxCzDJJdIbGAXgw28dsBOtEmzu0EPa3ZMaPgA4UQa07q1Pg0MfjayO3lpmxFmHJNl/tr0LlJtW4biOaAJHW+jx6iS8BcwzxFghGZu98mblrPwOzeoSz/k+wJdoMUdb4CGBRkSGX/0Cs4Dr4OnS7WKItmNoIxwKAaPmQM7RpK9h1AUyeD8Bvnt9cJ1OvPg8mOtLqmyn1AQ38IfQDTGw8C9LR4HcyKe30BdhWRV0bSGkLN1Gdb+rQdOncJkGZoXS79JLZfHpqNTWpempSG3ltc1+58vH4UgNEoPHHmGZsM8adyALrMYDJ8vl5UtyvidJIEhOr2moj+GGfmj5IDr/zrJSXpebL669Jl4Icbz/Qz1svH2ngOHzwORk/trdkZqRK1aoxJR4C5ide4tpVXeXVV3oLMwXryw5l+919xXL1jDP1N1AHdfLb9U8mypn3RilzGZoRvhb9UvUS9lbt1Bjp3TlJ5o8PvUQtzsYRfVKkXZts+fnnn9Uskiy/p0+fVjNirXVo3xBmK+z0phCyW0egIHSdCtpQgUPfP0uosQg2bPiaFYVJiNny6NGj5aeffvK2lxTp5oweNhNBd2fPnpWbN296/6/Pw30DSNTPwM+DwxqmmXn9QOuAJowcwILj0Jhog52/CE1Kn4vrAYyYunjeRJgDgKbGoo+1W8IKAvSt5jrMfPgquG/dHsDNGp3PNsdhZgNIaQv+TaojmkwiUnXQb4p6dZUpQ0PXgocXpUjjurFSLc5ey+6aX1dpFR8cHqE0inBN1qzj8erHE4SxHopsMI99a/dA2bOlj7zyQneljeArsb4nNPCaNROlW2Eb2bp5XsQn3cGAgwmPE/BwlKsqkI/ji2t7InLz5Hl59+BzMmJ4txKmKHwFqSnx0iW/riyc1UH2v1o2oNCd4Z09A+WDw8PLpApbO2eo22ePjZbVywqkc8dMdY9W009qcowUdkgUitU41UAWTqgtOdnJsnfvXh+eOgIGtoiuI43WAUUZxhH+AzuwMPeR/M+qaTBjZ1aP89A6iEIFDu49KytLFT6yE8JmW1hnBg0lVhdQ0jXD7927VwIsAA3242DWAh8NAT+BCSihAAjtxU/Ec7G2jW0yNmMq0s8FJ7SdZgcbiwzBWvDr4/0tISIwCaDdxJ/g2KYtON4BBTsKMO25evWqaq8O9qPCHywwTGvWDxMNgDu/XV1Z6ED7RUMe2qum8t3hwzPbXr1ajDRplCxPTW4jB/cWh0WrcDruMHsx5hn7Wg6UZblmRRc1ic3MSJDYqr6aK7EdXQpyBXLPuTORK7/dpYt/jeORAo4DbzwtA/pTwzmhhArYpHGyTBrbSrZu6BmSryJYZ0BtvfThOLlxsfT2U6ed1clxqOknDw6X6RNbS2Yd30R6qPXEjXRtlxi0Jgi5egZ2rymjR5UsagOdkNxL5FkiMhrgYPaNDR3BZWUBmcIQE0damu8Mi9kqQhMatFM6rilQrOuwmJjpmtcNtM6MXZuBuCfagr8GbUSDgbkkJbwW5PgrrNoIwIJ9HwEPIFrbZ91G8AIO/tpIXjANaqTk1s51u+NhOnE85ivrdey2AQnMbfr8HIPPwp/mCBAzSejdu7ei36I5EjGO/4WgWLsPgNK5cycZ0TcjID2Xeh1pNatITBVfwEisXlUG9GmsyCMXTo0t1wmaOQYZ8xc/HFdq05VVtmDx2LmxSDG7YGliQjffWXx8rDTPri8b1s2IyCQ8SoAjPD4OfBgUZ8IklVDd11wDoyK3ZbrMndFOXtva15WZgfmy3zswRK5FyDRldlin658cHy1L5+WpWZq1ExL81Ds/yS+AEDDVvGmafHT6tJ0sUEIO0GCWyowS8EDgoHVAxTTZTVrAMUs22VMIVWv+JafA0adPH2VX174BBhh2ftrjL25Ct8NcIoQRxvwfjQehz++01QQLvU4QqI6xAGwQ0vo36xIhDsAys7czy+FvIWDMbI/dOsfQPrQ0QMruGOs+ngH+BTO7rimE7NYx6wXSGHkmpJnRlFKAkWeH5sH79vehVAHBkd06NxOrz43g0lF9PSYpKOdmu5j4TBjZUt7ZMyhsPkOnYynQccgAZIEpG8q6Dog8u6xAendvoCwI5nOhUiDMq507FgkR3uHyHQfycURQ43AfOC6e3yazZw2ROrVTSjgH8ztmyAtPd5W9YQAMOsVHR0fKV2VgaQTqiG7+9vXFyXLh5Bh5eU13aZv7IGEeHRFTQEZaVRnSq6aP8xJto2v7GjJjxlQ1u7UTCNp+TdoRZqDYzAl0glpKKnFrKm8EGxqFntlj5iEGwMrEcgocXAdhhYlJO7sxD5m1PazC1G578+bNqu+gaZj+DgSvFQhgaeEA5tkxQyc+wnqM3jY1Hii1CFdz8JP1FpMP4GLXLnMfGgn/xXwUSJsz/8M656YdgLN+RmYb9DoaB+BEgBpmO+t59DaaA++2f39PWWEmDpinAc9gdSt4z1OnTJLBvdKF/oW5FKc3MUmxVX19GLXTq6tYp9PvjpSvLkSHJh9sTCILPjo6wlXwQM68uXOAbF7XU4r7N5GkxAdhA1gPEhOrSb++efLuoTWug0fU+DjcpONevrhdOYzatm3qMxirVYuRNjnpsmxenuCAKivq2/3/8L5iOX9yTLnaV4N1Yn+/f3l+kjy3vItkNUr2saPSCeHDzxhZSwHI5CFpkte+mbLbB6pF8Le//U2ZK4hPIBgQrQPTBcIE57PVDs/sG2HF7BuHqhZI5tIfcBC9zXE6ABDg0P/jNwCMOA69z8kSgc4sG6GKrd/8DzRVDQJ6SblbAA8HOo5gvd9uaRexzTPBTIdJz2Qpmde1W6eNPDdSedj97mQfQEhsCtHkJCPlu2zZMvU8rQwuu/MBKDjgSbGDZolpEgBBq+E9B/vQjzBntWzeWMYPSlfm0sTqvrb8OrWrKxPrqUMjHsrxxbhDNiAj7GRHWfe9tKa79C9qLFZab0ZGqsybO0zOnH7FNQAJRseNmMbhFq3s9KmXZHBxQQmzVPOmKbJiQV7YNAxeOkyKaDZN+QMMcz/Mk/Mnxqj4FFhletYJeBBIVdA2Udo0T5T169f6MGTsBAPCAGYP5ikcxFrrmDZtmorAJ7DPFEIEiHE9IpXt4gc41g44MOnoGhp2wIFQC2Umrtv09ttvKxDDlGRlDllLxEKZ1bN27pVkd3aAoffZCWM0AKLjYaPoNjhZauCAyeTk+HAcAxCSnw0fFqZJAhHRPtDSAk0uzH6DhgjAJyVWlSeNXFCJCVVl1JDmcvytoVHjvzDHTKjryIiysK4CAQwayIvPdpPuXepJXNwDH0iVKpWlXbumsnPHQlfAI1gAoKvAETjlyNYy3dCVSztUIfemTep6hR1CiGCf8aNaKqdSoAde1t9wOD8sarPTjn7q0HAZPbS5pFhSntRISpCTJ0+aY97vOvTLQ4cOqQhkZuRoHQh/tA6Wpr+Bei1QRkmM6E+42QFHcnKyMklBH7UDDn/nCrafIDv60LZt20q0B7OMBoEPP/xQEQFgHCEs9X5/S7KnOmFzBWuf/l0DB9qC3hfJJffCpADNkneMtoifBwBxWmoZIOW/ZqoUoqo7tq0juzf1EUyqTvvtw3AcsuLkwWFh0TyQZQAI6VGym6SoxK16AogDfeaM4jJrH6QcyctrYRuYiy/RVeAIV5LDMx9tVPTa6tUfRF7i7O1Z2EA2r+shb+12h1ZrBy7vvDZQPjk+6pGYCdkNOOJBYIbld3xQnxsBSYDaG2+8IX/+85/9gob+gdk6MREEiiFMEDIEhKFZaE0BQccsnkhtq1/DFIL+gIOIZ1JckImWQWKaqsz/h7KuhRgpMqz/41oAA5RUQJBnQoQ75jZ/gKH341ewIwdYr+F0u7yBA4d848aNBU2Sd0u8DqwqM9hP9wW7JSV00Up1xDrvD8c3FNTLH457pADDHGNQds8eHyXIEDvZ4sY+QJfI9BQjjgv6LrU03nh9Rakn6zrJIf1eg5Jeup7kUM/g9AXMJdHbpfH+v7Z7qbRv9yB/D2kGMuokyLyn2smbO52nACnNS0Kg4lg2O8Ojus59EtuSnvYgCzAdhEp/OLUDfXCM6lrTBKqhdZAplchi6oEHoo9ahWcg4MAsRpAd/coN4ND90y5eAec++8nDxHGYy/ARaHAItMREF8jJbL3nYNvEy9AGt0rHBrue+TvvDic4lFveDVoD5iZYUmawn13/4Dz4dagYp581sRj9ejWWYweGPhbjCnnB2CpttLlTubVuVVeV385kTxL4vHL5uFJFn5NWHR+yFTjYhhjiJPiPYxwFAKLG6w6il9jOWT/6bmiefwL5Vq2ccD8m4wHq9enRULa+2CtsCK5f1JH9g+Vzh0nQHhUwwf9xYNdAlS1Uvz/AAyYU6UQCfTBJMRMtLi5W7CrAA+ot5kv+61SQBgMOnNK0zU3gIPjNFJa0lXgTcjahleAQJz1KILAwfwNozfOVdR3aK/cMDdbtcwdqG88B+jEaF+CBNslz5x1jNgz0oT+QjsSMxEfL2LC6W8SyK0TTuESWIFO0fAnHcu+2vopckFzDsMzEVZWhQ7rKJx9vCmni7ink1NgWOKDAuwocJDnTAkcvNWK99eYqxw0/+/FGmTSxr8TGPkgTQqebOblNmdOCOHlhx94aIphwoqnjRbItOPemjssVswNiqmCWqRPYWYUGDlJMPpgrETKYNBA0OFQxYzkVeE6Bg1l4IKHn5DddeAx2kUmLxZTGTBnAgAFmjQw3QcK6Tp3wQKY4J+2yHkOhJBzztId16+/h2v6Xf/kXFafBuOZd8pzIdUWsRyD6LaYttE0tA+JiKwvpQd7dN/ixHVOMX2QKssWJDCrtMbBJn1/RRaV8NxOids5vKaHIYF06Vstv/S5Zwgx0FTigGZoXYJ0Lo3Xs2bnYEXB8eOollVwLO50+V+tW6SptcTh9GfpFkUbgUXOClwZ06OSkja9f9wHzilQWmCr8fSiCxSwdUwYAgNaBsCH9B0GBTrQOO+DATES+KExVWuNww2wDAQCNCuc7lR0RwMyUoRTriG/8NtbIcCtYmNu00W1BDgMNfxHjgWy0bp/f3/l4Z8TG8A4BDsx2ZBQGZP198EWhoZoCZ870diq7Qmn64aP2H2QLpBQtb8K1JAJ9cH9Pn9FyuGHDOrJty3xHcvj82c3SrGk9n/eo5TExSK4CBzxzfXK91MCx6ZU5ARtMLityTLVp3cTb2GrxVaRPz4ayd1u/sD/og3sHyUdHRkZ1hGp5DCLqFpD/qur9/DkI2qeeekp1HKvwQOsgZxNp1smwCnAQFIjwRevwV3DJFFz+gINAPxM4iCGA+WSNFTHPFWwdpo9dn6XvYmKhzWZyRBMg/K071ayCtc36O7mxdPQ5MRSmhmQ91o1t4kwAZ54BoEG8BloE79eOfkvNbYgLZiQ/RZJefr6HfO2gHk159O3yuiYmYWQNMidcwKHOu3ugPDW5tdSu9SDtTY0a1WXdC9OFjBuBfM5UbG3UqI48Uck3mp+xwcTAVeBAoGjA0Evt43h+zdSADcUJXr/eg8hmoiSnT8yVfdvDDxo85PMnRleAhp8BfuHkWBk/8kFRF+h42Lqh5Fk///Vf/6XorWgdOMgBD7LoEvV84MCBoGYcO+BAYC5YsKAEcOCHsIuXCEVwcg8Etpm5nQA+zHIEFPoDCLv9xGi4ScM17wOAhNXEuCK7LUBq/u7mOqY2NDt8KmiYZMAl/xd0YN6v9QPzDtOkmbiSQmTRniqkvICD63riqUaHFzj2DJQDu0ld0lnI1adlcrVqcbJwwQjBAe4PPD764GWpVzfd+x/9X5ak5nEVOMw8RPpCSuOoVEmWLRlt20iQb+vmedKgQW3VSICG/PqL53SIiD/j8P0kheXZiR6Ga5NKeuncPJ+0B8z6Ed7WDwn7yCWFbwCNgy8zewSymYrDTtiZwEHfwVSiBRKpNwAj+hbXRgOB/eS2T4F2wYyyA4dA+2hPWTQgu+dh7uNeAWDuH2YL5WjdpP3qa5GvC5OYDupkQgglGCq19YP5kXemqc1koO7Ts5FK+f8w9OvybiPVBZFBYdU89gyUTWt7qJRD2oQYF1dV5swaIpcu2Oe6ggVbq1ZNr/VHy3OWxPC4Chx6UJsX0esznyq2BQ5MWLXSH6AhJRdfWtMtbClDzBf0zmuDwlb0pbw7ZDiuTz6eDc92k6QETwU5OiHmC0xG5odU2gT5IXyYpWqtgwAyciL5M7Mw+9cJBOk3zHJJFU4AHiYQNB2dtE8DB8KaY9wW2MQoBAIJu99CSSOihXSoS0BZgwd+GHxK1roaoZ7TPJ53Q/oYqPUAAl/eA5UarfRbjoUIoTPrUnt77PAWqjZGOPrfo3pOMloji0zZFI51Ckl171pfqlT25AaDfAQJyQ48jr+3VjFatfw2l7DqXAUOmCjmBcz1MaN6+gDH9au7ZcfWBV51iPgM6gJveLYw7A+Ql3L0MaTbujXwtr3YW9VD1++XYDAC5swPIIAzFf8GZgy+zFwRSAhd01HOOvtI/cE5YQ9hU9cCDVDAea01D44xgQOth+vp491YmpHjdiBh3RcONpW/+wDUIKLwnHgWkA8AZJIm8h7wJfHlucCM8nce637eA7ErmKhID4NvgxQj+DkwCZofiBCmplEtPkamT2gt5ENzq589TueBrotMCgdgmOd8fXs/6derkbdyKGVr0TysZqsjh9dItWoPkirqsc7kjeqfrgIHAVL6AtYlWRxNe9r+fStUZT59HMwpamWYNxmudfjUX5x7fOm2ZR2Q2Gf3bO4rmbU99T7QPAAJZqD6A12TrKlQXrXWgUYKcGDSNAU9DmXspvQFZq8kHLQGDQIeZKPV4MH10Db0F9OSm1oHgtcKDoG2EdhWQRxsm+dV2jbD/mK8wXDRY4hnQzlZaoXwJeNvKGlKqMFBgS60Phzw/Ldp06ZCPXSz1gbJLTE/6hiNhOoxKv3F548xhb2sY4r/Xz83MeyxHshU/MYjBjfzggdmK3wepsP8nQPPCPmvdN/SS/yNTCpcBQ4Ehb6AucTumdexubdh7x15QRUk4RiETnbTFJX2O1xAYZ6XRGpfXqiYFbnR0Xe+UqTqnut3PXHiROVv0OCBYJwxY4bSDghiQ+sgOR6xAGbQHTNdan1j2iLgKJ5vfAAAIABJREFUzJ/ARcjitAVkqAuhQUMvMRWZmoy/8zjZb5cdNxBwlCbJIqlayuqfwUxFhUbMB6T1IEU6PHsoxqxjdnJyvzw30tyT/Rb6LcCAVoNfyRrsR3JIre3ExDypgs4qNI0prmhayCZklCmzwrEOeKB5aLNV9Wpxim2lJ/dbNs21leWwKslV5ipwkN5aCxFzCaLl5jRWRUfIbtuy5YMymJkZibLxhe5hf1A8/GMHhlSo0n6YU6UBEhLTUecD4cH7ZjaC0NEfaJvQWZkVM0vB1wGAEBS4cOFCn4y0CFAndF06LHUxcNRqwNBLnMdusZq4TiCgMH8rLZsKc5hVs3Ii5O2OwUmOWYpngIkKEgJLp6wzgBJtA7acDvbDt8GzNum3xGkQV8P7ZkI4dkRL+fxshfZemvHj7z+AMLIqHIBhnhOzVfeuD2I1oOrqOI+nV45Xk3rNitXynDFOFgVXgQPHHSfWF9HLhIR4FUxy4tg6GTSws1S+75whK+vqpZ3D/oB4WCfeGVYR2OciaJidfvXSAiEHEe8bc8muXbsEcwYfIs2hdMKy0loH4IJ2QVAfWomdIPS3j5kxZikNFtYlNTb8/TeU/Qh0ExwCrQNiod4H50ewuwUcodyb9VhAG0oyGgtFnzAp8r7IM4YvQ3/wf5DoUY/rvr0aPdYZFswx4PY6gYLILFPQh2N9z5Y+PgXeCBIkwnzalAHe96zfN0t8HO+++667wMHsBo65eSHWAQ4Sbg0dUig6IjwxsaosmdMxIuyp99+uAA23O7Z5vi/OT1LmCv3eU1NTlSlJCxycuUVFRSpjLuYqZrQEl+HgZtZtFWTBtpkdWwHD3Mb+H+wcwX4HoHB4BwIM/Vtp/BtoB7TZjbYGu5dgv//444/KRDVu3DhlosKcSOoY7k9rG7QTBp2mcxKnQRCb2Q8q1t0xV+nnCHggu8IBGOY5oerqOA/eb+f8VtKzp8fnqMc0S37DRInW6arGgcOzceMHMxJ9UWhfVavGeJ0tmDZGDc2W/a+GN7stDwfUJr2xfhkVS3c7t36eVD5jBgo7jveORoHpiQ81G6h5QbI8tA9MVro+OYF2ofol9GzdBAtz3S16LuYeDQ6BlqFGi3O/tJE2MwCDCfZw/o6JC00QqjS2a4L9SFa6detWr9ZIe/Ff6fHcpHFNOfyY553S/T7cS2RXJDSP1cs6CyV79TuuUcNDfNHbLNE2SDtEaQFXgYOTdelS4L24vqiepeht7Gr7doQ/Ivz420MrzFNhMk/ZDZhPjo9WhWX0e8aXgQOYD5oFjCqofGgdOF8RRrCjQo1/wEmOFmOChbmOCciNmTzCPRBg6N9CvRamIW1uQ3sKJzAEOjeAwD0AGqTP551Av8VMhUakP9i0zVoar7zQoyLLQgTHFZpHuB3mRJiTnkSPXbslwAHxgmzXrgPH2LFjAl6cilUk4DJVpXCsv1+haZSLlrVnS1+pmexJ60w0MdoFH+icsHaI1SAFCfuZ4aKFUJY1VHYRYGOChXW9NCYwq5BFeGpw8LfEnBUqpRagAdxosxNCgLVdbm1jWob1Bv0WvwZaYOfOnYW8WJp+i5DQ6Vio9TB3RruK3FMRBA09QUPzCLvZavdAlRjRzKprAggKAHRvMgu4DhwrV67w2kHNi7JO/qmnF+eH3a9BIM1XFZTbcgEOosufXpQvlAXlnePzQrXlgwOZ1CPDhg1Tfg40D2o24HCl3GooAhFNxgoW1u1QNQHr9bmGP8DQ+6m5bf1fsG3TR0Mt72DHh+t30qOTdZc8YLwLgjX5IhT4AJy6+iDvsmdh/Yqo8HIADQ0eyLRw1/RgUp/TPM3v5J9gUyY9rgPHrl2v2gIH2VUnj8kJu6Zx9M0hFcF95di56eSkZMffoScOpMhACBEUSHI+IpMJAkTrIPoYExa29VC0Dmb5etZuBQy9jdYRqv/EFNJQe6HaapCwW5bGMU67dBsxWZnXjNQ64EWMxqBBg1Sw39NPP63S4V+8eNFbawOGFbx93iP278e9noYW4OW5JHAZGRcOK40+JyV9zVo8ehyzhHmHtu86cHzwwUnlCLf6NfLa15HXtvYN6w2Tpvhxq9pXnp040LXfe3Oo1MtMUkIH26iO70DgL1q0SDGqsKkDHsx4MZEQBxSKoId6qwWw3ZKYhrLQXXEcB3OQQ0EPVdjTLrO9odxzqNeyO577gpRAICbmKU2/pYIjx/MhmJfiUQiLhISq8vKaCr9GoP4eyd+unZ0Q1pTsFIOaNjFXzDK0Gjxg1kGCch04Ll26KElJD4r/cEFs3utXhzcH1eF9xY9lScpIdthQr0Uthmr34zuIYiZanA81HQAKggIxkcDqgckze/ZsxwFrCDgn5qqyOJ8R6Ah5O01D70OTshPO/vahVZmgwXoompa/84ayn2uSCkYH+1GciWh84jSg38ISw2GuhcWgvlkVWnw5a/HWsXf1zARB5mktwe3l3q19VQ1z3QdQBPjqWjyuA8fXX9+QWrUe5HGPrVpZpk3IDdsN6gdGemLrw63YDg/11ulzxWSF0NGdDxMVDlmK/uAYJ806KTEADyLJW7RoIefPn3csiJk5W2fvVqGMKagsM3q0Gg0SdkvyO4UitBlw1jYCgKGcoyzH8iw0NZpKhzqSn3egg/14JzqQl5LN7x0YWjG2ogw4GIPIPC3/wrFct6qrpNSMV+MX0MByAE3bKWhwXCWnB9+6ddOb+hqBQfJC0vmG48Y4J+apT09VgIZTYR7p4959Y7CkpXpMHlA6YVAxq8U/AZtn+vTpylxFUj2CAqGDOhXGmL1wLlsFsXXbTKgYqtAN5iAP9dymY1y3szR5rkK9D44HNAA/tD2KQmEqnDlzpspzha+GD85+zaKC4LB2VdcK0IhC0NDjmCJr4awkOGlMK4mJ8WQDATzICuEUC0ICDuow6KyZdLxVS/LDBhoAx9njoyrogVHcscmku3JhvrfzUXaSWTxBgVQEJB8SDnJ8HdjbMZm8//77jlN4BKPlIpwBl9JqHfwPxpedtsE+BkcoQtyuvZGi5NJWzINoepARoEXzvBEGvA/uFcab1hC75tetMP9G8dgCPCjLiwwM18R816Yin9gsEl8yfp2ChyONA7OArqlABHFxv6yw3RAP6oPDIyoCkaK8Y9O5r348XvLa1fEKJILNKEGKLR1WD6kuSEPCDBjBNWDAAFVXwolAxvSlZ+7+lvTLsvgRAhV1CtXMZKchlcbB7uTZWI+5dOmSYsWQUoRnzXPv27evYsmgbZA7zOsQrx6jyCx6ZluxLF+zb6Dnz+Tsg8PDwyZrl8ztKHH36fVkXaawmqvAgbkBOxgzFuh7W9aHr74G2SOJqAz0QCt+i47OTsfeuLanFzjIrkoQEUFmx44dE7SQlStXKq2DGhAEBe7bt8+RlmDnbLYDkFBNSqbQBZzc0DiY0etUI2YbAZNQgwjN9jlZB+BmzZql2Gw62I+68PiUoEnzAbC1tjF2RIuK8fUQTMq0jCPGI1wZdd/cNUC6F3jqvmCuwqTsGnAwsMzMmWOHNw9bzXDYBFDS9EOrWEYHQAR6D9Cki3p40unT+bCx86HWA7Wthw8f7g0KxM/BTBjh6kQoYp83BbHdellm9VB6SQRoBx6AipM2cgzgYJcqhfaHml3X6TU5jnNj/iOYj1KzOMQxOcBiA3j5kPFUx2zUr5skp98dUTG+HiLgYOwhE8PFtKIyq84IQT8hu4AT8AhqqjKZGI0a1AibQxxH0NUz4ys69UPWqenYxw4MlbQUD0sDPxj0T2a71OyAHopQw9dBX8L2zszYST1tKLF2YGHuwxlfFj8H/7cDjlASHCLA7UCOc5cl3iQYiABWPF/AApMgdcJ1MS2eP9oYlf60tjF7WtuKxKAP4fhijCEbw+Esf3PnAOnfu7G3j9B/YDQGA4+AwMEAxdxAxyPz7cwpbcJmb/sEZ/jF6J9hB5p9P66/EfU6oOgBPXfEiBGqXgeCD2FGLAdOW6ih5FDq0KGDApdgghEzjAkS/tbLYq4CIOyAIxRNBvqwHXDQ3rLEmwR6PoDVnj17VLQ+keBoG2hzmAYBUj7Hjx/3VvRLS42XkweHV0zMHlLgQDaGy1n+0pruKm0Ucr569epy9OjRsgEHg13PVupmJIYtiSHqcwVoPNyg+fq2ft6+Qh4rggGh5966dUvlTcIOj9ZBnwJIiDUINhvH3BIsngPhHIqQtwpjzEx27Cquaz3W33Yg4AhX6hHaB+2ZqHAc4pinyH6LlqM/bOvxO/+p9hWg8ZCChp6QIiORleFgWhX3a+LtK2S/LrXGoYvA6I43eUyrsDS4whn+cAOG7tRk+RzYx6N14Osg3QgfWFYEF5HSQGsdBAWS5+rLL78MaGZiVm3nO7BqHhxTFie0XTAguaz8AYV1fyDgoK2hMrSs57duk+QR4CUKHPMfQZeAyKZNm1QQJs+dRIc6ZXrD+jXkwskxFcDxkAMHYw3iUDic5ZvX9ZTU+0GB9BvILYHAw6+pipKTcXGeNNp1MxNk9+Y+YQGOKx9X+DW08H3Yl0f2DZbkGrFq5kKaZl3wCcEMPVfPjnUqEkxagUw5mFzsaK5W4GD2HUx7sQpfcxt/i53W4fScwYCD+y+tH8Zsp16/fv26NGzYULGpMP9BSMBMRZJFPhzXu3dv7wxy2vjcCt/GIwAaWj4gM93WOvB19OrWwNtnGK+B4jpsgYMIX9QVtA3iNsYOb+F6Q995baB88v6oilnQI9ShYX907VTX2/nQMHDS/v3vf5fXX39d+Tawx2OyIjlidna24o4HEqp2gXVW4CjrrJ7rY1Ky+joCgZoW4iz9Ocd1Ozk34GL+p7TrzALR5ijZC8kAzaOwsFCOHDki//M//6OAA/MgFd0Yv9SMP7i3uGKcPULjDADBJ4wMdRNAnl1W4E2AmJ6eLkxQ/GkdtsBB7VlN4UtNiRfUGDcbyLnef3toxSzoEevMdOh1qwq9wEGKCyYhfBDCsH+oC8EsGbv8qFGjVArwQAKa/2sBHGgZ6BxOhDTmJCtwYAJz8t9gwEG7y9o+2oE5juy2lO8FeGFSkdCQ54p2pD84yDEXAhyD+zepGGeP4DjzFIAa6qpcPrBrgOS1z1D9hv5DxgfHwEEHR/XVvo2CTpnyhss1xA+9XhGvodXOR215/sQYqVfXk0UZai5Ry3wICsTuTgYCHRSI9gE9l1Tg/mbk2PMDAYb+zY3KgNaSsr/88oujOAx/cRy6bSwxpwEwToDI3zGYDgjmI1CLoFzAAz8HtVB0sB9tadWqlRq/pE3HBPGo9bGK+/H4RdHwkaVuTuqJJo+N9eSwysnJUaZiO/AooXFQMhP7qQaOpfM6utow1KuKjLePhkPc3wCeM72dt//ogEDAA5MQfg6EH4IPrYPKgdBz8WXYCUynEeRusJesBZ7we7DPrl3mPu7LLnLcBA7WQ4kNMc/POtfA79i8eXOhOBPaBprG4sWL1W9a28BkpbM85LRMkwof4qM91i59MNZVk9WrrxQJmZOR//Sjt99+21brKAEcdDydzLBJ45qyb0c/V4Hj5MFhcuNiRUoRf0L3Udh/6uBwSU/zZM7FSY7zmQ+z4qtXr6pZMswqfB06IR8pwf3NyKGYWoWw3bY/rcUqhANtM6s3TVZO63KY1f/s2sY+TF/+7jFQm/iN/+LXoLofgEvRLGjNtBXaMx8YbDjJ9aRvwcz28nXFWHukNS5kKTLVLa0Dc5VJzR06dKia8Fi1jhLAwQxQd7wxLjvF0Taun5v4SL/IR0Hwl/UeUKE7tH2Q/JD8VPrzl7/8RYEFMQbMmgEPUoDj4PVX5xuh6U8Ym/vdoL0ys8dEpcGDSoHBhDq/O3XiO00tb14T/wWOcMx60G/5kgkXzQOw0B+eRUpKinf8Ht43uGKsPYL+Dev4RKa66SinxKzGACZ+xGQFBA46Xp06ngFfo0asbHyhh2tIxo1VcMkfbbXZ7NBPL8r3dj5mxrqYEEIOgEDwERSIo5z062zj87AT/gT4mQDhb700QtkU0HodDcmsSW7XJn2sXjp14qM9haoZ3b59W0WIY/bjeVGtDV8R0erm59ChQxITE6Oee7eCehWg8RiAhh5zF06McRU8clqkqX5ESAY+yIDAsXfvXu9gb9ww2dVa4sfeqmBR6Zf8OCzJX/Xkkx5mT2pqqnIOayFHjQgEIEGAzz//vFon8pk8OQQFamGsl/gG/IGFuZ9Zv/5PWZcUYdJahxN2lVMnPu2lnWg2TtqIaQvNggA/tA5Aluy3JC/U9Fv9XLW14IknKsm6ZworgOMxAg5YVsfeGuLaRH/iaA/BAs1jwoQJ/oEDNpVZ7GX00OauNQJt4/LpcRUd+THqyIBj4f2UzUSinjx5Uss3tUR4EqQ2ZcoUBRwIRbax3Vtn+AhxEyD8rbvBrDKFOf4NyCJoSDjpzd+s6wh4f+2y7odh5cTpDkOKWhuU3uW5YNpjEI8ePVqV6jUfKNevV8+TIjujToLAbnscJigV9/jAioGMdctkhbWpRpInmLd+/fqK/GFqHV4fB6q5mT79hZVdXAOOilTOD17u49TRn1v+wFaKWcr8QM89ceKEdOnSRWkd+DqWLl2qUoRfuHDBJ4UIQGIVvnbbMJuczuStgt9um3MBcGgeTsxgMLvs2mW3Dy0mWFvRtIqLi1UOKkADXj2Mxw8++EDRm83neerUKa+1oGO7OkK6+8epr1Xcq0fGfOhSLqs9W/pIw3qeIFJiOiBN2QLHxYsXvdGmWY2SXau5QR75L85NqujEj5m2wUD++OhIb11ygtYwUZkfzDukHSGIDcEIRbd///5qRg27SQtzZud2wte6D2HMLF3/z60loIGWEOzctNnapkDbaPn+wIP97733nsClX7FihZd+C53ZDPbjecJWo8a7dmgunNWhImnoYzjeGHPIWjdqd7y1e6Cq9Kr7FKZkatRo8PBqHOQP0tGm0LHcond9dGRkBWg8pp34ykfjJbdluhJocMKpDmh+EHjnzp2TjIwMb80OhGSbNm2U0NRC1WksRzgLJ+HQDmZecmpS02ACGPkzgZHni0A/Iu2h36KN4dvAUW79AMBE6etBvm97/4ox95iOOcADmeuG/F42P8/bpwgqZWJWAjgIJqLjVa1aWWDEuHFhohq/OF+hbTyuajQOO3xlWqCRJdf6YRZP7iVMMmgdfLHho4VorQPh6iSWA+AIlbHkllbCeQAWJ+3UwMES85pVk+E8xLVQ2Y9cVOT8gr5M+V3ozNYPZmZqRvOcM2onCID9uPa5ivueomSuGxHlr23pKynJnkS3sG3JgeYDHDgB4evS8chN5VZN8XMVDrrHfgBvWN3NCxxEjFuZQAhBNBHiOIiCxteBsMQh/Nprr6kZuVPgcDOZYGkABdAKxc+hAQTtQmtXXBeHPPePWQr22Zw5c5QviFIHOtjPBI+PPvrIm0J9yICmj32fqwCPKXLu/dGuTP7zO3hyVxEUTj/zAQ4K2+tZYZZLNNwjbwyWLyu0jcd+EEPLJcMy/SszM7MEGwgBqIMCcZRDN8U0A3uIWAXSfgAcmHW0oPW3RGj7M/2UBghK8x8n5W6t7UdL0UwytA3qa1ASVgf7QcXdsWOHt9aGCRqs4zTn+WJqrqDhPp5EFCtYInuRwWW1HEHLhd5N/2JC5wMczGo0cPTu3rDMF6OxHx2t8G1YX+bjuE1KBFLX0L8wp2BWsX6YRROhTWQ0Tl60Dh0UyDo2/IcFODA7OWmrHXjg9P7mm29U9tv58+crAJ00aZLydeA/8fehdgLPF/pkhU+xAji0nEEGlxU41j3TVeLjqqj+NXjw4AfAgad83LhxXuCYPrF1mS928LVBFUyqx9g5pzuuXg4vzlb9KzY2VtBu7T4wrqjZgcnKDApk++bNm0G1DQRxNGgcaCmMqVB9HbQfExWp5qmWCFkFTQItjIhwOxMfz5FaJzopKdaCix+Mfey1XN3vHvclDCtkcVnAY+uGnpKWEq/GL+EaMAzROioRNJWbm+sFjrWrupbpQjTy9JERFZ23Aji8feD5lQ/iOShv6u/DrBqSBhMZzFUEBSI4yWVFLIV1lm7dLm8fhzZtoXU4yZZrbf+ePXukcePGsmTJEuXbgFE1efJkZcby98zQbjQbMk/Fb1TkgnvcAcO8f2RxWYCDeI4GRjwHkzgFHJgO9IylRmKs7Ntetmy4B/cOEpLcmY2vWH+81eejbw6RuPvqLnmW/H2YVZMXh1QkpNnAhIrJJisrS6XYsApa63Z5s6o0cLDEvBaK1nHjxg1VXpe4Fphly5cvV9oXkeO61obdc3v//fe9k75RQ5tXZJ6umLD5yF5kMTK5tOBBttxO94s7YQ7VeasqffXVV5KW5klo1SI7tdQX0A07XpGTyufFVYCmh+FRp1Z1JeBIeBjoQ4JB7PrDhw9XwIHmAVWXdOKwr6xgYW6HM47DBAWn6wT4me3ztw5biuBHgiRJ9IimRSDkjBkzVDBjoOeFw1L7J1cs7PRI971bn82QO9fmye2rc+Tm5WmP9L26JTegxCOTtXwuzXLE4GbePgZxQ2kclKKsVs1TO6GoR9kd4+WVAffWZ0/JnWtz5fbVuXLz8oyKThVFM6/LH46T7KaedN9ot4E+zK6ZZcOo0iYbHRRIenbyRvkTwOGKHHcKFNbjoOfSJn/t1fsZgxSzIkkhQDlv3jxlooM3b0e/NZ+fmV9ux8tFj2y/BzR+urlOfvf9Lvntdzvkp1vrhDHvloB17TyXp8mtK7OUHPK0b2q5txGZXBrA0P+Z/9SDwmw64WElqorpGcvEMa3KdAFUoq8vRt4sc+vKTPnlzkuqU9Gxfrq5VuhornWGKBLCD+M9ff7JRMlr5+GDY4/HjBPo8+c//1nFLpD0kNk3phsKykBRxaSjBa51iZA24yGsgrw8toMFBcImAxjbt2+vSAHcL8WYtmzZIn/7298CPSaVqr5Jkybe8cvM8mHsH07a/O0XS+X3P+yWlUuHyoHX5srvf9gj964vjq77vTxNvv1yhQI25NCvdzcpDembS+ULHsjkspir1q8u9PYxJjjkUKtEVCrAQQrsFQs6lQk4zrw3qlxe5LdfLFMd6ZX1E+SNXbPlN9/tEjqakw5ZcUz4gR51eUBRY2/nI3U69Tn8fQGOa9euSefOnWXu3LnKZIXPg7TrONcptGQFDbb9lZ8NB2CQjdZplDpOfzt/B/dBwkLuCwIA2gbmKcxU+B6Jb/H3jNhPzAixMYzfuNgqcvXMo+tb/P7GM2qMc68jh+Wr9e++WhlVYxwT2u++3ykfvb9K1q8ZKzc/3yi/3H4pKiwgyGatQYS6fH1bP6ka46lDTjYDTMKVSF7Fy4CrC7KEelJ9PIj2+dnyYXR8/9XTqiPVrpUsPbvnyM93X5Ufvl4ttkivVMmn5JvL03063c3L0wXNhe9Npa0EmiVMVZ1BHf/ZU0HtrZxPn/ubS4Fss6Gd92ECvRkTW3uBo1+fQlm6eLasXL5QVixf6FkuWyAr+LJv2QJZsmiu9OjeVQoLuypqKo5y1GRYVpSftQMON+txOAEbrodPJtixaEGAmrXNd+7cUelV0KTQNPBXMDBxkBP8x6SOLzEtLDnGXBJpX726x3dUNyNRvrrw6Kb3YTyjZZjAAZjoceUZs+5OgjwyAXOYOWanKvnglROXH8iJO9fmqzauXj5cqlePUwCCWS0aTGpkSy6L1kEqG549rD98cpVwQrKD4KFXylDx7703h8hXFyJdS3yq3Lu+RH5zb0sJ4PjNt9uEjvXD18/Jz7c2KPMVJqxf7rwiv7m3VX6587Lcu75I7n2xRNlLf727UX777Tbhf6iYP91ar36n89y+MlN++PpZ+fn2i+pYfuMYz/Gec/H77SuzvGCEn+XeF0vVeTiW8/7mW8+xP37zvHLwacHPNdCQ/J736mx7EHyITGgrjYqAjTJjpWv7ROnaLtGz9LPeKTdBMmolKEoqs3HiOzDpoH0Q82AVxE5SnwcT8qH8TpQ6piYABA0k0H/RTqwU3bfffltR4cnVpXJ0jRoh2VlpMqBnExnQo7H0t/kO6Plgf5cOdSWmypNq/LbNrSVfno/0+HNXUOvxYLe0Aw6EMmPKd8wu9kzkMBt9sUyNKcbVd1+uuD8hnKJ+Z7whFxjTyAlkwY83X/CM8Ztr78uETUpWcMzdzxfK9zdWqd+RN4z9X+9tVtvffbVCmaTwuwBuJnD87vvd8uPNtT7j3e7+wr0P2YyM1hP9UJet7lcERMMl0Walbt08uYTSU6vJ1hd7lfrE5IEP981bz48jnM7Dy+Jrahyefbu9v+ljbn+xSY4fXiZffebxifz+e88xX115SY4dWqq+Z096Zje89O++elo55bCv6nOw/OyTtd7jf/ud5zcAAvAACH78Zo3oc5/74Fnvsfe+8oAcne7ONdgh0+X7r5/1HnvpzAveY/X1UH+ZzVjv/2HaZlLCBIVvx5wEWTk9M+h32dQM6ZWfJM2bZanZOFoHkeVEmJ89e7YEcOA7CSS8w/EbYKVjTIKBB5HhOpcV2gaObRhjMKoAw5bZmTK8KCXoc9HPbkJxmlSN8aRzgYr7MPWHUNtqBxyMJT1mGWOMF3wLmLDufr5Afvf9q94xy1gGSLjunatzvOPNM8Z2C7/r8aaXV86vk/ffXSbffb1NnRcZwFg/c/IZdd3Txz2WDvZzXf0/Ezj0PmRDOLSiUJ5jWWp1FHa+n8swNVVV6axEvn8GM1XDXn2lqNTAUR4V/pgF8GImjCmUOrWTpfKTT0psbIwCkJFD8+WXuzuFl1utWqzg/5g4tpvEx1WV6tVj5fCBReq/gETH9lkSFxsjTRrXlnp1U1VAVcd2WfLFpRflt9/R+XbLiXeXS0xMFZk9vY/06p4jNZKqSdOsOpKYEK+uuWRBsfxWzS5eUDMYOtLBNxZIm9yGUrVqFWlQL021kWtPGNtN2T/pTGhE3MO7BxZJ61YNJD79FAs9AAAgAElEQVS+qjpvelqSxMVVlVkz+qjf0ZQeZof/3q39vMDRqkk1eXpGpqPv3LG1pXnjGjJ27Bjl68CEQ+4mzDTksTK1jmCCOxzAwTmx+QIeaB9QFQNdh5xUHLd582bJzs5WjnGixPv17SVtmifIwol1HD0Xnt/YAalSpYoHOOZOb/fYAMfggR1kyYJBwhhh3DO2kGEd2jWWC6efU5PJn29vUOMmr30T6dI5W62j6SNotdx4ampviYuLUeOcMbju2TFq/B16c6EU5GdL5cpPSu1aNeTrqy/Lr9/ukmeWD1fXTE6uLi2a15Vq8bFSKz1J3tg9W52f/9GexMR4JUNSUxKlfr00NbaRI5i3QhH0bh+LjA5V09DHD+ybpZ5xUlKSXLlyRSrpcpNEBxIlqA8MZfnOa7CpIq8m3746y6NK3nlVfri5XWql15DuXVvK3S83y893PLMNDRwI+YSEONm+cap89zXqrWeGkNc+S+0/eWS5/HR7h/x4a7vqfElJ1aRf7zaqQ9CpNHBUqfykusatzzeq49FcclrWV0Kea/7OAJrYqlWkWZMMuf7pBnVe2rh4viev0LxZ/e+fm9nKHmlYP011uPOnn1Pn5dhliwarDvj0smHq2G+/9MyY3O5QkTgfCde0xpFVL9axcGR2zSy8VcvGKq04uatwmJM9FseydpQjvAMJ7HD+hp8DZzbggQkN1kmg6wF4eXl5KnU8JrhFixZI3YxkBQTcr1NQHdk3RSrfr+v+3PKCchVK4e5DpsbBRBB23luvz1PjnjH7+afrpUH9NDVJZMLHmOXrAxw3X/AAx3XPhNMOOKrGVJHWOQ0kLS1J3ntniXx/E21jt1y7sF6oKTN2ZBe58+VmNUavX9wgWVm11bFcC5nCuF2xeIhUrxYr7x9eJj/c2q72A2Q3P/P1q4b7mVnPj4xGVoci2/WxY0e0UOOXLLnQxyvVrOlJQNe4YbLgPdcHhrI8dWh4OXXaqXL3+iJla+TFmaYqZcL6frdX40hLTVSAgCbwm3ublWp56/omqVKlsmx4fqy3o+kON2p4Z/Wg9LYGDkAC5zvnhzHxu+92CiotWsXGDRO95xk+pJPa9/H7q9Q+fCrYRn+9t1NpOHROfe55s/pJSkqCMp/pfSzpsGNGdlEa0peXXhT8MOWt7lo7o9Nt1GQNHHVrV3UsHBGiCyfUkZymCTJwYH9l1sFJjImVuh06jxWpyQMJ63D+hvMbKjDAocHjj3/8o63fA1/H9u3bFXA899xzyuHdrTBf8lsnypIpGSE9FwD1yfuZS7es71VOYzAyfg4TONAE9u+eoywBv9x9RfktGS8wKsnk+tzTI71jK1TgoI9mN82UG1deVgwpZAUWh327PSQiJpfmGD11dIXq1yffXe7db5qqGMM/3sSniZ8yMs8q0HVOHhxeKhk/faInLVXVqlXlk08+kUpxcZ5CHc2yasr+V/uX6qSflnNiNZxWvEwTOH66tVa9eK1xjBiSr+yTOMBQGZVz/KstcmDvXPnpvnZidojRIwpsgWPuzH7qWt9+uVw5rLVKXC8zVebP1lrEHqU+DxnYUR2L80052e/7ZG5ee0WOvLXY29EYCONGdfVum+04uH+BokrvfXWmsstGSwcM1Dntfvv01FgvcNRKjQlJQDILH9M/VVJTkr01O5YtW6YYSAcOHFDmqmAmonACB+fGUY62ocGDJRRcq/kMMxVceGi3aBvQcLMaJMqMEbVCeiYA6pBeNb0pr1/f3i8qBJPdu3djnwkcrXMbKC3dQ3WdrsYWDnD8D1gVevXI8Y6lUIHjySeekJfWjldggX/z9pXZygHPeAVU0FLM8QkwfP8NxJdd960Nvs5xj4kqegIVGYehKAX62PlPtVf3X7lyZfn444+lEis8kOZNU0pVZ1zRcD8pHxqu7pDf3yhJx4VBhVNZA8ezK0eoF459E5ouv9MBfrn7qhw7uEReWTdB2TDHjymUbl1bKr8Fz0V3Eq1xwM9mH6kPuP5Ptzy21Pp1fYGD/+7f4+F137nqOfaby1MVM+O33233nhcVmGNzcxoI17Z+hwzqKE9UqiQvrB6tOrO+rr73h2V57cwEdZ/ca2pylZCF5JLJGdK5TZL06tVDaR06KJBssrA8cDyHGxyCnR92lQkcrOOD0U57wI3cW+TiwldD+oZ2bbKle8ckWT41NG0D4Bjc02Mt4Jke2lv82ADH0OI8NX4AE93/PQGCe4TxktOqvnd8hQocMTGV5fCbC5VFAtD45vI0YXKIGRrtHx8qY/WpqUWy+cVJ8sF7K5UvFa0E9hWywdQ4FHBEUYQ7wbiloeXqMrKYCE+fPs1Y9jBdyFNFgXKNME6XR/aXf8GmUIADdhJO5l/vbFQvGZ8I5qqUmgkyeEAHAWDeP7RMxo3uqgRdWYADZxkgoTrgfTXV45jb6e3YGjjyOjSRubP6+f0efQcNZXe50/r0QA11CR1Q97WUGqEDB4Jy2rBaktWwpkrJAcOKtOP4Ot54441yL+AEqBAlrn0dJoCwD6f45cuXhUjvBQsWKEf/hPFjpUmDBJk9OnRtQwFHjwfAcewRjhqnr5kahw4AJH5L98O71z0a/II5AxTBRY9bO+Ag4pzfbX0cVasI/k4mnR5ntmeyx/FoFZ9fWC8zpxUpJzhB0wCNBjKPfzO6gUMVeNofeoGnpxfne8fvhx9+WHaNIxqSGoYKHPhF6AgL5w6Q5BrVZMOascp5rTsby0nju5cJOKrFV5UNz49TMxc44nRw/BO/4Ke4tlF2bpmu2oAtFYE6a7qHPWW2gfV7N7YoSiBRqNALb31WvswMPVBDXV47O9Hb8UqjcSAooecWtk+S9u3aqKA4tA7ikAoKChTNNZhGEO7f8XVAtzVBQ6+TTHTKlClC+VxYVNQPz2nRWAZ1rykrQnCI8xz010fjeP3x0Tj6FnlIK5idPf1wqnz/lcdc3a5NI2ESpseRHXAAQr/9bpcM6t++BKsKX6UJHESDEyfyzbVXFBNSnxdCC77NBbP7K3aV6VeJZo2jtEkPS2gcZfVxnDpcXo7xB44mO+DAkYwj3GqqQuOA500HgC5X1Ku1clj/9tsdKlBHm5G6F7YsE3DQgevXS1XX+e232+Xu54vkhxue+BDMTvhEaAMdMDOjprRv29hz7Hc75PsbBBt6TGD4NmB67N3h8XGQQC1UoR0Nx+MH0xpHqD4OLShZzhxVSxrVS5QpUyarSoE4mAkKpJYFdTDCDQ7Bzv/v//7vJYDj7t27qn1oR+SlAvAGF/eXpg3iZfGk0E1U+nmYPo59O/o/lP3Cad80NY4aNap5x8q9LxarIGC0cbR3TCmTxnVTvzO+TOD4+fbLKh4KGjymp+ymGUGBQ6cz6pzXTMkKzomMwEfKOufpWtBc0e7Z5msCB+QZYkqiKZsvZCanFiV93IKZFh8H5TwZ0FQPw8GmD3S6PHu8fPJTmR0OJxYvDOc4pidepn6JdsCBY5vfmZnAAYdSq4+H2oe/A1smz0WzKEL1cax7bozqxCRlAxzo2FzjzIlnhI4/clhn7zXxheAgf/bpEUod1sdCK87v2FTgjd+ASx4FQUTmcw9l/fSRkV7gCJVVpQUlS2bn/QuTpXVucwE0MFlNmzZNioqKlD8hmGCPxO9QhLWmwfLixYsq7xZFqgj2W7JksTRplC6j+qaqYD/z/kJZH977Aatq64bHi1U1oG87+fbG1vtjyBPAN3l8d0UkefN+EkTG2/TJvVT6j/MfeuKlcGZjclqxZIjqj9Y4DqvGcfe6x9+xZtUoRbk/tH+Buibn4fwEAuPfhHyjZciaVSNVvBh0XvbBwERGRQt4ILOdynd9nE4ZFBMT42FVlTWO49z7o8t9pqOBoG3rhkrgDx+cp7jUUF/tgIOIbWyYR99ZojoP/g1UTTpTbqv6qvPhCINhQRwGXOxQgQMAatWynuJ+FxY0V0yNWdOLlC8FQNIdmZQJdML+fdqq63br2kK2vjxF5s/qrzQiAOzD9zwaEulVbPNvRQHNLxiImHEcjUOI47ATpNBzmzaoruIgmL2TywmHMylJ8DNEAhwCXYPkgxo4qCGCE5wcVNTagEnVr29v6ZiTKDj87e7P6T4zjmPNii7lPg6D9YGy/G5qHL17eKihjRvWUrFOaPCtcxuq8UPgL+MJRzWaPqZgmFaMo6kTe8rrO2dJz26tFFUeeREMOJR5+c5G+e6bbZLdLFMFAQ8b0kmwBBB4jDWAc1w970k3AlAQEMgYx+KAPwQHOuBR3gGA+vkjszUgOF2Os8ZxtGrVSt1kZp0E2VnKyHG89MffHiofHx0p0L2oOhXJgMDb1+aqTvLJqdUyeniBDB7YUVYtH65mFrxQZvfQbn///a77zuWp8sM3zEB2y86t06V3z1zp0C5LfYm/OHFkubJpQq9duqBYsSYun31B+O3Q/oX3z+PhZWNnpbNMm9RTdm2doQAJUxi5bNBWAKQu+dne89MWQANHGvlzcJYDHvgw0E7+v/a+AyyqM19/Y6P33jsKIiAdUZEiiKgIIogdsRfsLRFbNFbsvcYSe6/RaEyyyWaz2fTkpiebsvvs3ru793/r3vvcvff9P+83fsMBBhhggJnh+DzjOXNmOHPOd37f7/1+7f2lpfbSfpcZIkf3a4jTSGFiLCsWKYDN2bJGiJOJr4gQq1YpTKbnDs9wRliIr+iUR6uDaa3R0dF44403Ohw4WBDIIj+Cx7Vr14S1wfgGr3PGjOkI9HPAuGFurRoDgksxK8e7airHZ0zua9bA8e4TzeKJc3v3tiliDnFxJ+ctwUDWYzGOyLR18scRRI7um4nsjGjtdxnbYHoti4FHDk8CaYg4h8n0wDlOK+Ljd2ooQuiu4kLz7rVnMbooFYnxIeJcSQmhGFc6EJfPLBap8vw9ZmtywVo5e6jQQzwfvQwEsfaOT1IHUxdTJ1M3U0e3JKOK4JJXt3I8LU3DtU6uqi2t4KpSItfR3UNwfG8eLp4YiQdXStuhR8cEvPuEmRA7hKAwn1uakhpTUfOeD1Yq37celGtTchkoo/nKl+Sd4rn4t8qXPC9XP0zTo+Kk/5IAxN/TrHRIozwJv340UxQa8u/lucX5n5q4BA2m5/JFzi26oep99ykHlrhuE+8vsmFVba4qfVfVDX1vbpknYnrZIi9viFjF0wVEKhI2f+ro1FzWbrBeg8WJbJXLGAytIqbg9okKQ1IfWxHob+je9D1epuCqKi7oZdbAQQ44FuPJOci5wvmmnVvvauYrqXkY0ObcpLUgLRXdc1zDPcVz8e94Pjn/f/OEbRk0zLdv3teQqVL51/pN1m6Iea/hxxK1Wg8qtHOZ59Jc7y4RV5Xna86Cq7nfZe8N6tyLJwqEDqYuVurmlu73T/EViz4XyVUlO4iRHXdDK9hxG7ug43UsEtKvG7rhEwGBCphuKxYEcstAOFf0ZK9kuh4frPJBaBT8bLEyIbMlVwv8W9Ge8sFU8bcEBgqi5jyLRKV67fNMEJ0H+XvMJVeao2++XC6azdBaYIGS5vyLIeo6arW+nCBWI3RFvaf87muaa5Fgp7x2U9tXpvOlJ9i3erVN5VoyxBVB/m7a9NY5c+YIJc2YQkcHysmEe+rUKdCil702JowfiyBfO1QUtSz9ti6gTBjhBsseGnbcAf38asm2qclH09fLBdZUYaVznr39aBaYjss5xbnLxRWzF+sxK9yfiLcfzcRv31gmyEr5XRbkcj7zPPQOaFL0y8XclgSJ9eacWOBNFd/X/OZqwabLxk0aoKqhV6cO4LUwriHO93i2dsHa9H3WJP009V3qUOpSpUVBXduYLm7pZ70j3ARweHl5adhxKyoqxAH241jTin4czbkgouDJ/UNBX1v7U7Hr/2CaenDq5/qPZfnYaCFndFXlD3QyCHDMH++FuEhbJCfFiz4VtDqysrIEFUl7U6zXjXmQr4p90tljnem3tDZiosKQN8CxVQFxJXgww8zaUgMcocFOZg4c+suauc9L6swbL40SOtRQFkVT+puhDM7dwMBAUav0Cwo0D5AsbfGcpDZBq8YuiqRbrAW5droQZG98YsbNaMxdoBu6v9fvjtP6SClrpANXKsDW7HPVHRLgjClTykUMgVQkpPS4cOFCh7WRpbXD6lqy39J1xgB+UeEIhAVYYUaJh8HufWapJ2ytNcwP1lbdwKrghp6Betx0gYc6kbqROpK6sqVEhY3p4cY+27d1MCx6aOSMKeWiAyCrbjmZ+Ro3une7A0fdC+agnD82Ag+uluINE8gWUidk0xOSCi2xr6bnOOVspgGV58KJXshMdkRSYpyIIzBriR30+Ooo4kNmVdHyGTJkiAAN9tpwc3XGiAxNr43WAKXybyvHe8HBVjOhOa4vHRmhAoeZ6AzqPupA6sL2Boq6OnnNck3PJsoY43WU71+QIpdUuTyYlR7Q4cChvOiT+4aCxSq3zo3SZGqZiVB0NrDhaqlnmLOQMTubrgZbcUslSpcNiQLpGiJwsCqb6a979uxpdyoSWhvHjh0TzaZIiUJrIzcnE7G9bDF3rP69NuS9NbUN9tWQlHL+Vm/IVIHDRHUEgYIZUNR11HnUfUpd2JH7sviPMlZSUiJ6zvziyZMncHXVNEKJ7OViNBera6BOHcjH3QujDR5Y72yKvL3v9+ZLxfDyeNobu5mU6k0pTn6+cKI3cvo5wt/PW/BXETwIIswYJMlg3fhDW74nnTp/l7/P9Fs2nAr2dwAzoPS5l+Z+JyFK43vmpKarub2frfp7TVvcjY0RA9zUaeT806XzjOFY4bBwrVdq+fLlGuBgvnlAQID4wNHBAvu3Nb96vL1v7sRTS+T2+WK8elP16zYmmMbw2ZlDw2Fl1U3IWO9Q/bv/NUeJzir1RFS4AwpGDBerfBbdpaamYsuWLe1mdbB+g2m3tHb4+1VVVUhKjBXpt5WtLPZraCzIdUXQ4Ispue1ZP2UMsmWK10CdRd1Fy4K6rL31Z3N+79COXCTHe2tljNY0WZ5/8eWXX4qUQSl8VUv7GfWN6Lrpc0eHg7TdpihEneGaq5ZoaoUoYyQpbEgJtvb4qBwXhId4Y9GiRYLHij0v2GmP7LRtaWXIc5OTiqDB9FtNUeIk+PvYYWJB64v9GhqbiQXu2knNOJIaIG+dBdCW85E6irpKlw4z1mO7N2cjwM9eK2Ovv/66Bjh+/vlnkb4ogaN8XB+TujE54ExLO31wGK6dLtIE1juglW1bCp0pn7toWE8heMzcY9e6hpRga4/PKfNEbIQdBqUPFJ31uPoncLC+g+SDUsG3xZY9NwhYTL+lpUH6k76xERiU5IAFE1tHLdLYuLCPB+NGnL8hgY64e7FEXUAZSZyD1h8D3NRJ1E3tlTordaIhtuRAc3XRxMD9/f3xww8/aICDZgfz3yVwZKUHmiRw1B0k1oncuVCsxkOMYBKFh2gC4xY9umD88LZbfS+a7I0xea7w8nAWDZPYn3z27NmiZ8ejR4/aDDhIp07adPba4O+JGEtJMYJ9DZt+2xCABHhbiPnr6GCJa2c6nnTUlBc5hrh2xi1uXygWdRZ19ZKpvV+zPE3rZmaWIPFCuKr43/Xr17XAwVXLns3ZZgEefEj0IbLfNTN7VP9v+5vxTBEl8y8XJjbWXTHdgKm4uhQpU1T79XVAv9QkbVEge2BQobeV1cG037y8PMHQy2K/xYsXoVe4L4b0dwTThXVdpyGPxffWBMhJKb52xQDV4uiAxRJ1C3UMdY2xxy2aA14s0WAfd85fZgnWAg4Kvqenp/iQZgnNk+ac3FS+S/4sBqUMTXdiiFWKuZ5j3QpNQywKnr+XRYubFjVH0ZYXuiMkwB6TJk3SFgWycImp54amIqG18eKLL6Jnz55gvQZjG8OH5yMy1Aazxhg+/VbXOAwf5CyYYTnGBXlhKnC0I3BQl9w6Xyx4oUxFDzbnOlMSNIFx9m1iUWst4OAbrpgoeBYWXbF0XrJZAoccMOZIX35RY4WwqtlclXZH3xe7jZWM1DTEomy1ZWBcqVDp9x+UaI/oPhGiZwddsZTvoUOHGrwokMklPHdxcbFwUVVWViI4wBWjBreu14byfprap/uPbkCOsa+3HR6qiSJtOqepM2hdXD450qjqLaR+M9SWnidXZ018w8PDA7/85S/rA4ekHqHwDcsNNWvgUA4sYyH3Lo1uU0HraAXeUb/PwGCfSA05GuWqrWoZdCnWaaM9EBZoh9KS0SLDimY2rYLjx48bjIrkz3/+MzZt2oSoqCgwv3316tXolxqH6HBr0GWm67ra4piSeoTjfHB7rirPbWR1UFdQZyh1iLnuL5ydKBYjlCnOHVKN1LM4bt++DTs7O/HFsGAnMH/XXAdE132xAIdcMKze7ChFa26/y2wSd1drIVPsM05LoC0Up65zsmcHyRQjewUL3yxdSGPGjBFWB5lrDZFZxSZNbCBVVlYmrI2pU6cgNMBJ9Nrg7+u6rrY4xt+KCNasDDnJ506LV+l6DAgc1AlXTxcadZGeLp3WmmOHdw7BsNwQLXAwtZ0ZuPWAg4WATLei4PFVtcT06jlaM1DKv2VA99ENFUBaC2SrFtfUb7RV4V9jipgUH+GB1hg6NE9kDjJFtnfv3qiurm51USB7frCjX2JiogjC09pITY7FwAR7g/TaaOy+dH02dGBNIaBaz2GYJJBH18cI/i+lbugs+7s3ZYuGYxIPZOFfPeAgDTR9wPKLowt6dSqLo65AkFiMAHLrXLHK2NvC1Vt6mmYh0qXLM2CFsy6F15bHuBJnX+/QYC/R55tpsuPGjRMV5VwotdTqYID9wYMHgo9qxowZwtooKytFkK8NJhcaptdGc8eFgXgbK009h4+XnUgCaS3wd8a/JxMt5zznfkeTC9bVSe35fuOqgWB6N/GAPTg+++wzrbVB8PiFRBBud+zYoQWOYDNLy23toNPtomZj6b+S06ThatqaWlp0waQ2rJ5uTMky1pDYxw6DB2cJKhIW5yUnJ4v9v/zlLy0Cj59++kkEw9lxkOm3tDyCAr2Rmdy2xX6N3Sc/CwvQTHSmTzKbrTMq/pbeM+c253hr9YS5/P34kpo03NGjR9cCjXrA8f7772sJD4k2RB1zGQhD3Idsh8uMCjUbq3EQWVaZol2EeLv3wLw24mpqSpnyc/b39vNxxPTp00W6LJuXxcTEgASfTKdtruVx6dIlYW2QwJBWTOHIEYgItTNorw197qvud7JTHdGli8bVPKi/vwocTVjKMjuKLa45tw2hI8zlHH16a5JaevTogcOHDzcOHESSoqIi7YQvLYxQB3OX7p69L+7P1xQVNiGcLV0BmfLfsZ1lQqymLoimbkaSQ7u7qZRKlUH5lGg7xET3FiSEtBL69esnOKWaWxTImidW0A4bNkxYLazdCA9xR2FW21GpKO+lsf2JilayHPdTB4ep4KFjfpLCnIs/zmFzUfSGvI/nFvfTYoC3t7doFav0TNWzOHjg6NGjsLDQUBiEhzpj/7YcdXAbAA8+LE7Oa2cKwUCaKSt7Q177pRMj4eGmoVG3turS4StxKlv27AgJcMTEiROElcBKcvJYsShQX6uD6bcMrJPIkOm9BKDMQf0RHW6D2WXtU+zXGHDQLefr0UM76UV2lVqnpJ2XnKOcq5yzhlS05nSuQztzMXxIqFaGyLrAxVKTwMEUQ19fX+0fLpiVoA5yI8ChFBr69Zm619k7F86uiNPKT69gqw61NqSiZaCcFCAx0ZGCgJANlpgMUl5eLtIM9XFXffTRR0hJSdE2jJo1awa8PBxQMqT9iv3k/TS0zUlz1I49a2geXu3cCxrZIIlzUzlX1X3dnhQ2A2NyhUySOnDgQD3Q0GlxMLuK+e7yD/un+OLAdtXq0FfQyIB55vBw3DhbhMedsAf0nQujERTgIOSnW9dnMGxQ+2dTNaRUp4/2QGiADQoLRwo304IFC0Rh06lTp/DXv/610VgHrQ3WghA42GuD6bdp/RKQGmvfrsV+Dd2bPE7Lx8le0/vE3s4CR3flaVfchrQqjf1cpJfnHORcNEVWWn31jaG/R0PB0lIjP3WL/pRWR62sKvkBg38kTCN4uLpYmy13laEHXdf5zh8dgSe3yjpNRpaSm8rGqgumFXsYhcVBxUqrY1i6EzzcXQWvFK2OgoICDBo0CKQOaczqePvttwXIsNcGA+Ll5ZMR5GeNSSM7Jv1WAoWubWyExk3I+VswNKzTWMDMjOJc45zTNRfVY7qtDOW4JD/lpqLszJ8/X6e1odPi4EFyrnMy8Y+7de2CslGR6oPQ012lfAjK/bNHaIWMMmsrhEHxAal+Wms1qY+tUNa6lFtHHdP07LBHXl6usDpIFZKUlISDBw82aHWwYpaEiUzjZTrvihUrEB0VivQE+3athtd3zErzXNGju2bhR6vj5P58s7Y6aNlzbp09bFpNkpT6wRj2n12UCuunnTrZTvzhw4fNAw6Cx969e7VBcn9fe+zZYvwtZY1h8PW5BoIIeZzMrS6EfmRnJ00tgbVlF0wpMh5rQ6l0S4e4IiTADfPmzRPuJxYFsgETuXh0WR23bt0SPT3k90tLi4XLy5isKeX9zR3rBR/3miD5lHHRIOGksbuXmnN9nDucQ5xL+sw59TuNWxukmMoeFKhd9GVnZ+Prr79uPnCwsjY0tCa6PrE0Sn1ArbQ66grvqQP5uPxioUgNNPWJzX4EymyMPuFt01tcqSBbuj9vnCcSouzQLzVZxCoYs+jbt6/IkvrHf/zHWuDBmF9paSny8/MFbQnTbyPCfQUPFl1fLb2G1v4d62LmjG04kys/3UlLtR4U4AjGnpqjmI3xu5wjgpX2xUJw7tSdT+r7xsGhsfHZtDpdy4TbvXt3nDx5skHQaNBVxQ/4oklOdxVfvj522LExS31YBgYP+TDZ/IXm9mu3x5qkT/pgda5WVugmaU8m3JYoYVKRB/g6YerUCmF1kMQtPDwc7BsurQ4GzDmBwsLCtJ9SM+AAACAASURBVDGRIbmZokKbLq+W/K6h/ibU3xJ0SbHrIc+pC8SUqbmV0xNMEjiYFcU5wblhTg2S5Lw3lu3wvBojgWEKiQENbXUGx+WX33vvPQQGaswXix5dMWNyrAocbQQcUoBYwXrumIYj69VbY01isvM6h+fWCF6Qr2WHVorro5xZFJie4IDEhFiRnsssKU4Y1mf86U9/EuDxySefiLjGyJGaLKx5c+cgNMitXXtt6LqXGSUe8PHoIYAjNdYOzBZjvGVigZuwQuhCYzEgU3PZ550LPy8PW2HdGqMloeuaKFPkjOJcUKu6W25JSL3S2JYMIVoXs7W1qOWTGNDQtlHg4B9xInXpomkSExrkhH1b1VhHYw/B0J+dPzYCj2+MMeq2txdPFGjp00l5UZzr0qGrcV3KVtexqaM8EOxni7KyMdqiQLLnkoqE6bfbtm1DXFyctu4jO3MQEqJsjSL9NjJE4wrMTnEAKevJBVac4yKKLQkaRYOdBaDY2WiIDwkerK8x5vbJvDbKOmXe0PNIPZ9u8GFsY+jgGvp0Frd+/PHHrbM4CBw03ZV068yw6my9OoxB6E4fHIarpwrx4EqpUVkhzGgZkhWsdVP1CjKOgj9dQFH3GPuBD+7ngKjIMCxdulTEODIyMjB27Fg8fvxYZFvJ9rN0afl62greq7rn6Yj3EjgKMp3h52mBCSNqgGPCcDcUZWsoUAanOqDL057RAX4OQoZ0rfA78hhl+sqpQlDGjWGudaZrWLeyP1ycNL1cunXrJpKiGrIylMebtDj4ZfYxkHUdnu422LouQ33Abeyyakx4abpfPztKZMp0dGbWlrUZWtBgbGNsvqtJWBtS2c8s9UBEiB0KCwtErINFgZGRkSDzLSlJVq1aBXbHjI4KA91C7dmMSl6jrm2fMGtMLfZAkI+FsDK4HZ3rgtQYO6TE2GFERk3hJYFFxirHje7d4VYHZZaBbsqw6obSbQk0Nv8N9RmbNZEMU8pGVlZWk5aGBA+9gINUC7GxseIHunXrghF5nae1rKEeUluch/0CmLvO7mQvX2F6b/umXLK3dUqippk9hS/IV7PyJS+Uvq+KRr7Lzxr7XN/fUH6v7vnKC92RleKA0GAfUfDEokBmULEHAdl0Wew3fvxYBPraCVeQ8ly69pXnV+439d3mfk6ApnuKzL/829I8F/F+RIYzCrM1+/KcbC7VtevTug57C8E/194WBmWTMkpZpcx25l4XbaELWnJOVolbW3cXet3e3h5nz541LHAQZfbt2wdra00bUGur7lixMEW1OjrQ6tAlKJyMbH/75NbYdgGRFQtS0aO7xodO+mVfHy8EBPgiMMAPgQG+T/f5XrOv+az25zXHar5f95ifryf8fD3qvXx9PeDrU/+4/K6vj7v4G7nlce7L9/LvA/29EODvicyMQcJdxUD5okWLBGgwVTeub5QAFm9PZ3h7OtW8vDTvvZ4eE9unx/g9rzrfr/U9eZ5a33eCN98rjtX6Pf6NlzM83Ozg4Spftk/3beHuqtl352dufM+tnThuZVVjdQxI8WsXUk6CBWWRMqkCRcdZFrp0xa5NWegV5qK1Nsj23FjdhrQ05FYvi4NfZnFUZmam9ofioj2wZ3O2Ch5GBh5SSOgvvnRyJO5cKMarN8sMHhchB5CXp62QB+Z9U9mywdGPP/4oXsp9eczYtvIayZRw8+ZNQbU+a9Ys4bLasGGDqCxnExuSIX7wwQfaezO2+9Dneu7fvw9SZNMytLHujvXPtk2jJ8oaZY6yp7LQGhdYSN3A7aSyKDBTlvLg4+MjOlpKUNBnqzdw8GRXr16Fra1GWVhadEPFhGgVOIwUOJRCwv0zh4aJIrDXbo9rtTVC5aAs9mOdA5WvKf/7z//8T0EnwopZ0qUTOFjsFxAQAFaO/+///q8p3564dt6PzJBkXdb5YwWtXlDQqqBMscCQMlZX7tT3xgcea1f0FxyEBI2uXbuKxBB9wEL5nWYBB/+QJjzdEvxRN1drrFs5QBUWEwEPTuLje/IEYyhXhLfPF4P8Us31dzMgbmerkQEXFxexWjd5rQrgww8/FFYHiwEJHiRArKysFP06zOH+vv32W9H5kHOXr4Kh4WhJrRBlhrJDGaLleWyP2j3PVABy75bBSIr3Es+fMpCYmCisaSUo6LPfbOBgUWBISE3eL9kUeTGmMnDqddZfAZ3YmyfSIdlLhNkujWVqnT9aAKZ1UuiYaccAsrn8+9vf/oaNGzeKRBD26Rg4cKDofmYu98f7uHLlCuha5PMjAeKWNRmNLhxkBhRlgymzlBV1DtWfQ6YyJhUTY7S06ZSDM2fO6B0QVwJKs4GDf3z69GlwpUnho8tq8tg+qjCZkNXRmJCT1uHc0REi3//epdEiuCktksc3y5CfU1MhHh0dLQJq5qRYyU2Vl5cnUnJJufNv//Zv5nR74l5oRdFFwfnr52OPM4eG1wIPBrTvXhotZICyoFJ9mC5QKOd61dI0uLpoajboNaIcKMGgOfstAg7+wNy5c7XC52hvieUL1Cwr5UMyp30SyjGNcsncJFg9pV22srLCjRs3zE6p/t///R/Y2IkU6qygNcd/33zzjZZKiOCRNTAAt84X49rpIpU80EwWgHX1z84XshAd6SYWC3zmrBB///332x846A+mKc+L4Cuyl6tKgmimQkchXFaZDCdHDWU6TVwWxpnrv//4j/8Q7WT//ve/m+st4uWXX9ZmWdFrUFoUoXoNzHj+jswP16bOM4uKiU7NsTDqfrfFFgdPdPfu3Vr9yTMHBqh0JGYofFytBPpr4hpcJPTv3x+///3vzVapdpYbYytcGe/gc503PV4FDzObv6wOJzmtXOBbWlqK+qS6QNDc960CDv7Y/v37YWOjaVXJvGCuXA5Uqz3K65qKpvp+58ZMpKX4omtXDdGl7EPcWZSrOd/nX/7yF5D5VyoVJj0wVdNUZVW97vqxGHb1835ab8XnXFxcLNokNxco6n6/1cDx3XffgUVTMtjmYG+BxXOSVOEzg5ULe2zQxJWKxc7OTpi45qxMO9u90XJMSUnRPuPevVyxbb3KRWcOILRl7SCEhzqLZ8sMyH79+oH0UXVBoCXvWw0c/NFPP/0UhYWFWvBwd7MGkc4cBr8z38PUCdGiypjAQauSqar0/6v/zGsEXnnllVou5/4pvjiwXfUamPLc3705G4l9PbULguDgYFFv1RKQ0PU3BgEOnvg3v/mN6MssV6dM8yPimfLgd+Zrnzs9HiS05PNktfG0adPMS1uqd1NrBF566SWty7lLl2eQNzgYtDg78xww1Xs/WJ2DzPQALaM5F33Hjx83iKUhQcRgwMETcuXSq1evp8rmGURFuILdpUz1AXTW614yLwmeHpq4FYGDFdR//OMfayka9Y35jcCuXbu0rBDdu2tYsFXwqB83MGa9sH/bYOTnhKD700UfQaO6utqgoEFdb1Dg4AmvX78OT88aE6lvH3dUb8hUwcNEYh7L56dom9YTNJhy/U//9E/mpyXVO6o3AuTrIp+V7L1D5uOSkRGq5WEic5cgXzKylyjK5txlxtzy5cvBolZpKRhqa3DgIFPniRMn4OfnJyyPbl27ICbKHc8/q3JaGfNKhde2aHYi/HzstH5RuqhoQR45ckS1OOqpWfM68D//8z8ivZ4kjxYWNRTsVpbdUDgsXAUPIwcPtvSmpSELdJl2y6ZkzaFKbw6oGBw45I9T2UhaEqJfcKAjNq9JVy0PIxTAwztzMWdqHGxtNBxGzzzzC/SN7YUNa+eIrUWP7ojo1Qt79uwRKxcqGfWf6Y8AGX///d//Hffu3RPNq5gZ6eLiiIWVkzG6cDC6ddPQktBtxZiHGjA3TrfV/m05yEoP0MYk2QK2oqLCIGm3Up/X3bYZcNA8IngEBgaKFSyVkY+XLRbNSVSLBI0IPPZuHYyJY3oLwjsCPF/JiX1w78Y+/P7bh/j0t1dw6ujzGJKTBkcHe4SHh2PmzJl48uSJ6WvOTnwH7K+zZcsWQa3i7OyE+L69sea5mXjrySnNc3/vKqZXjNKCBwPmzLZSU3WNCzw2rUlHUpwX+Hw4d6Wl8fnnnxvcPaUEjzYDDvkjFy5cEG04pVJydLDA9EkxqulrBOCxZ0s2hubUMB3Ttz2wfxzeffMloTwIHMrXg1sHMLY0H7a21qIgcNSoUQJAmKJLjif1n3GPwH//93+DdVfLli0DucasrCyRlhqHI/tX44cv79d61nzuX358A3NnlqJ7925a92Xvnq5qkaARzF1WhFct7aet06B+JXEhny3p86X+battmwMHu6zRFGbPchl0s7XpgaGDQ8DVrrH7/c31+tgBLi7GEz2edgGj4NEltXHdHPz4VX0lIgHkd1/cw6v3j2Ll0grEREcIdyQD6Mzc4CpW/Wd8I8AK8QsXzqOkpETUa3h7uaN0dC5uXNqJrz6+WQ8w5LP+6ZsHuHl5J6L7hGmBg3LCCnOVnqRjLY8Z5bHw8a6JRzo6OmLbtm34/vvv2xw0CEZtDhwS8d555x2kpqZqiwQpgFRcG1YNBNHTXBW0sd3XwR25YOaUbPuqWal0Q+/IQDg52glLIisjUSiM7/7hToNKhcrl+8/vonrzEsTGRIjVK1ex8+bNw7vvvisKBVUrpONA5L/+679ENg0BPTIyEj16dBf92efNKsOvXjvd6HP94av7+Og3lzBr+mjxdzY2loiPC4eTU42iotyQXohBWWOTcXO+Hhb2MVmB488XF+NMRDJ0nYbU2w1t2w04eAFsAjVlypRaWRtcvcws76vGPdrB/N23LUdQiDg6aFhuKXjubo6onDsKd29vwbkzVZgzayTCQn3h5GSPjPQEHNm3Cp9/cL1RRfP5h9fF6nVCWT6Cg3zh6OiAtLQ0bNq0Ee+88+uO056d8JcZWzx58qSovaFCcXV1Ql5uf5w4tFa4IH/+5kGDz5ILgVuXd2FqeSEC/L3g4myPEcPTcPjgErz6yk5s3zpbLDCk0iKrbmKcl9oFtB3m7pGdQ7B6aRriomt7CUgjwhKIhhR8Wx1vV+DgTdDHum7dOlGlKl1XFMS87GCVlr2NBJAW3Zrl/RHbx0O7UmEwzcXFAdu2zMJrj3fXer3ycjVmTi+As7O98G9HRgRjy4b5+PyDa/jxq5cbVDy0Qv7h/WvYvmkhYqPDYWtDP7oFiopG4JWHD/Ev//IvUDOyDItmMjPqiy++EDn7bm5usLS0gKenKyrnjMOvnga7pftJ1/brT27i4pktyMtJQ4/u3WBna42heak4dWJlLbmgnFy9tB7906K1QXPN4sMac6fFq1lXbTR/mc02fXIsnJ1qFnys0SDNk6G4p5oLMO0OHPICz549i4SEBK0iI71FUIADKmfEq4FzAwrgzo1ZmFAaBfKHyZVi1y5dkJ0Vj9Mnn62nGJQgcuGlNVi5fBxSU3rD3t4G4aH+mDOjRGRc6QqmKpXSFx/dwN3re7Gwcjz6RIXBwd4OsTExmDZtKq5du6bSsrcSP5hG+9prr4ne6KS5d3d3h4+PB0pH5eClFzfh/bcvNArwfFa/+eVZbN24APFxkbC2tkLPnv6oKM/HsSPLhIWhlAXl/q3rL2BK+VC4uNhrZcrGujvS0/yw4Tm1XsuQrjKyFacm+cDaSpMqzznMfhpVVVVtmm4r9XRD2w4DDl7QBx98gNGjR4sUMqnUWHCUkxGE7c9nqLGPVgAIq0gZP4qNqrEyOMbMiJo5fQTu3d7aKGgoFcWrr+zCnp2VyMqMh7W1JSwseqC0OBd3ru3FV580HFyVQMKA+vFDa1FUkAV3N2fx9xR+xkNef/11/PM//zPok1f/NTwCtNT+9V//VSiLTZs2IS6uL5ivb2dng9TkGGxYOxfv/+p8k2DBuBWtkGULJ8LP1wMWFt0RHuaHFcvG4v4d/WWC8rFt8yx4ejiDCxE5fz3cbMDA7b5tauyjNQDCxKEp46Ph6lKz4OPzDgsLEwuvhhR6ex3vUODgTX711VfYsWOHGBApfNwG+NljUlkU2ESoNQ+gM/4tc7tZsOXipOkvLMc1Ia4nqrfN1hswlODB/ccPd+LIwSUYOyYbgQGeQmklxEXihfXz8Porx5tUWj99/TLeevIiTh1djwlj89EzPBAODvbo3bs3mNp78OABEVg35857DUND/U+YXMDUSqa0T58+HYmJiaArysPDRbiVtm5ciId3DoGuJgnSDW0/fvcyDu9bhcFZTIxwFYHuwdkJ2L5lFm5ee6HFMsG42KiidHR72sOcssbFX99oD9E1Uk18aV7iz6EduaItRXRvd1hYaAowxZhaWWH27NlgklF7gUNjv9PhwCEvjuy6I0aMqGV9cMDYH2DlwhTsV2memwRQ1mVUjI+uRVDIwktbWytMmpDbYuVQF0D4/vbNzVi+dCzCw/1gadkDjg62KBk1GLev7AbdVASJhpSYPP79F3dx9sRGTJ4wQgRjbWysRFYXXS+bN28G/fadKS7CeAVrYtgj48yZM6Lpjqi3sLQQyQoMcu/YskQvy4Jj/M2nt/Hum2exdOEkYV0wfuHgYIuJ43Nw7uxqg8rD+jVTEBzsrS1E49y1semOIVlBgiVbBZDGAeTQzlxsWp2O7PQALW0Ix5DV/DExMTh9+rRRAIbU10YDHLygL7/8EocOHUJcXJzW9OXg2dn2QFK8F5bMTVLdVzrcV3RLTZsUi5AgR7ALI8eML3JNDRwQg0MHFuPh/WqDKgoJJrdvbMLunZUoK81CYKDGComOCsOCueNw99pe0E0lgaKhLTN9Pv7NJdy5tgdrV80Sq2kPd2dRI8I42JgxY0Snybfffhsk4jO3f6zyJa35ggXzkZ6eDn9/P9ja0gUVjdnTS3D5pW349eundRbp6RrTd944g+2bFoliTnc3Jzg62oqY1ro15WDcSj47Q28JRqUlGSLpQsogt14ethg1oqdQjJ3RA9DUPdOlXDA0DHTzKceN7lzyTTG9XSpsY9kaFXDIQeFKs7KyUigOKj/lYJL2gAPd2S0QruD2bhmMBTMTENHTpdYYsc0rXUm0CB7e395miqKu4mE21tqqyUhOjgBz/1k7kJ2ZjF3bluK9X53Ht5/dQWPpoEol+OE7F7Fz61IMz0+Hm6uTiM2QO4kppuXl5WIFRjfnn//8Z5OpGWEch/EcWRS7cuVKxMfHi1W6tZUlnJ0ckJoSg2eXVYgiS+V4NLb/uy/viYw3Asyk8cNB0LW06CGAfNaMAlw813ZgUVcG+P7AvkVIjO8pCkqVc9fVxQolhRFgwgb50ZpSqOb8OV1SOzZkoWhET5BNQzlOtDJzcnJEmwqpE41ta5TAwUFiPjr7e0yYMAG2tra1BtbR3gKJfb1ECuCeLZ0vCFf9fKaI/4QGOcHSsoYOgsLn6+MmMl7OG9gVoUtBNHTswb3tOHJoCSqm5KNvbJgAEX8/T2SkJ2Ljurl4dPew3qtnKkwWozFD68DuZzFx3DDExUbA0cEObGXLYGFmZiYWLVqEU6dOidUZlbMx/CPFBxdBN27cwIYNG4QrNjo6Gq6urqJgslfPYBQWZGJd1SxcPV+Nd14/02S6sxJACMaMW4wZnYuIXkGws7NGSLA3RhYMELGs61c24EmdVOuGnpmhj9MSXVM1WTx/ZfCcMurtZYsReaFYvSyt04EHAfO5xf0wdHCwsMSUgMHg96BBgwS7OOXG2MBCeT1GCxzKi+TEy83N1XYoUw52z1BnTJ0Yg10vZJl1ESFzudnXhCa/hyK1lmPBehh7e2uUFA/CxXNr283C0FfZHD28FOPHDoa/v4eo62AmDzmx1q+ehTcfn8SXH91olsKk8mRNyYXTm1E5pwzxfSPg4uwAxkg4+ejmyc7OxLp1Vbh37w5++OF3+NOf/oj/9//+ir/97T/w97+T3dcw3FrMdmJc4q9//auY6L/+9a9x8OBBjB8/HgEBZCztJkDCydEewUF+mDh+JA7vX9MgH5gSGJT7P3/DmMUtMMh9ZF8VRhVmw92dGWrd4erqgNycJGx8fhoePdhhdM9/0YISuLk5onv3Gjcq5ZYpvAPT/PDs4lRhPZtrHIT3xfjj8gUpSEv2FckDSh1GjimSwe7cudOowUKpk00COHjB33zzDW7duiUChvb2NfnjfABduz4jVjFZ6YFYMCvRrOpAtj+fiWmTYoSF5eJshS7PaFgwpeD5+LhhTEkmThxbYXQKoy6w3Li6Efv3LsTUinykJEeKzB4WGcZE98SUSQU4ur8K77/ddEqpUqFyn3EU+vVZ9Xx0/2pUzi5DTnYKggJ90KMHgcQafn5eiIuLQs7gQaiomIDn11fh7JnjePLkEb766ssm04GZ4fTzzz8Li+bOnTsCHJYsWSLSyTMyMkRmGDOeGMz08fHCwP5JqJhcjN3bV+DKuR345aOT+LIRXqi69yTff/3pLRHjWLlkioh5+Pi4i5RoUsQUj0rH1k0zQeuSKdN1x9uY3l86vxZLl5QhJjq0VvGgBJDQYCfRhIiFqubkoqpamiYWe2wroazF4H2ziI+JIHv37sX7779vMqBBfWwywKFEuwcPHogVHU1+ruikEpVbfz97FA3vKfp/7NmcbVIBdQa6d23KEplk2YMCoaQHkffH2IGfrzumTsnHlUvrjVphNKa86EpZvqQMA/pHC54szerZEaNGZmLfzhUCREhnQh++VKTN3X7y7hVcPLMZK5ZMxrChA9A7Iliks9ICIKAwI4wxIWtra/TsGY78/KGivmT79u2iEru0tFQkaxAUaNmxhsXGxlpQzLu7uSAkxB+5g9OxcP40nDpejXffuoo/fP+4Rdf709cPRF3MR+9cFJXcM6cWIzTETyhauqF6hvuJZ37s8FKjB4rGnnvVc5MQ1TsI1ta1fftSvuNjPTFjcix2bMgEW6GaEpCwfoWegYoJ0Yjt415PN1GG6HonJc+xY8dMCiyUOtgkgYM3wBgIi8c2btwI8rWQh14KntwyG4tIn5sZhNkVcdi6LsNohXDdygGYMq4P+iX5wNfHTtv+Ud4Lt6TwSB8Yg+fXVYAruMYmpyl9xvqQl85UYevmmSgpzhBKhcFdup9YdT586EDRVIpsrp+9d6VFSlkCDive2WPk9YfHRerw+VObRexk1YqpoKIeOTwDaamxImbAGhXScDDgvHThZGzftBhnT27Czct78Pj+MXzw60v4/vP7+MN3r+D33/JVm4Zen/csyHt87zD2VC/HlIkFSEqIgo+3uwCzgAAP5AxOxIpl43Di6HLcvbXFbJ75nZubRTZeYcEA+Pm61Zu7TCN3d7VGZE9XYYmQmJPJIMYIIlycLp2XjOIRPRER7iKK9nj9yrlLwGAvG9bj3Lx5s0OrvpUA0NJ9kwWOujd85coVjBs3TgQedYEIHyJJ2WJ6u4s+ylVL+omVAYWRGQ7tJZAHqnNAhktWxi+ek4T8nFCRRkvKFaWgyX1yPdE/PHFCbpMUIaYEFk1d6+UL6wTdSXZWAlxdHEQtCvtC2NvZoF9KDBZVTsC1CzvA7CvWjeiT9quPIm+r75Dj6+tPbuGT314WoMWiyWF5A0QxHi0ePmeyz8bFhWPGtOE4emip2YBEU8+aBYhLF49BdJ8QYQVyPKT8K7cEkoH9/DB9UqxYBLI4mBZJe8VGGNimRcHf3bxmEKZOiBHNrVydaxfaymumN4R05wMGDMDu3btFokRdvWWq780GOOQDYHDy3LlzmDhxoqCTps9ZPkjllvUO5G+ibzUlwVv4IcnS+9ySfiJNzlBAsmXtICybnyzoA4YPCRUVtYH+DoKwrOvTrl3K6+I+005jokMwriwbe3bNx7UrGzqNEtGlZBgbYZbWC89PQ/nkoRiUHiuyx7p36yZW52xzO2RwGpYumITjB9eIKvbvPr/bIgvAUMDBtGM2xLp4ZivWV80WwWzWZZA9mEF8UtgnxPdEyegMrFw+Hnt3zxeJDWSh1TUGneEYKU/Ik8VgOt2XjH/VnRt8z9U7vQm+3nbCImHb1HGjI0Vq+vPPDQBbqRpi/pIynn1rKmckYGxxJDIG+IvUd3YyZZvlulaFvFYvLy8MHz5c9Kh5/PixIHaV+slctmYHHHUfzNWrVzFnzhxERUXByYnpq/VdWvKBK7duLtZCSFg3Miw3VAgm/a6LZieKLBCSj61Z1h8rFqQIgeXqo7QwAkOygpEc7y0AiWnDynPq2idLrVhtOtqJ1MWZMwpw8nh9VtLOoDiac4+PX9kpVuXz5o5Cdma8iPmwKppjyRUraeFpmcycViziJfdv7sdv3zqHT969jC8+vC6qqhtrWNUYgBAU6GJisPuz966KWAwpV04eWYcVS8qRl5sGph9rYiLdRZqsq6sjkpMiMXlinqAnby4vVHPGxly+ywXDsysniOdLJmdN1pzuhaBybllYdBOgQjborIEBIt45eWwfzJ0aJ2hQ2Dlv7cr+eG5xKhbPTcKcqXGYVNZH9LnIHBAgYhMEJWUxrfL8yn0GuJms4+3tLRIlmFHHhmZ19ZC5vTd74JAPjMVijInQGmF7RdKb9OrVS28gUQpLa/dJARIZGYihQ1KwoLJYWBXMjDHGVEpTUUIkbTx7apUgY1y7ejImTxoiqqV79QwQLiC6ubjK54o/NrqniGMMyxuIGRWj8Oyyqdi7Y4VI7314+yCevHxU+3p8/wiuX9yBI/ur8PyaOWAjpJJROUgfEA/GQMi3xYI7TdDcCkGB3hjQPwZlpdnC/VK9bY7IeKM75skj4858MtZnTSvs2uXncfjgYqxdXY7iUYOQkNAL7u5OTS7MWjtX6/49FwO+vr5gJt3MmTNx9OhRMFnn448/Fll3Ut+Y+7bTAEdDD5JpcOSBYRVvUVGRsEy4emAWDS0UFpmxkpO51vRZspKdwqNLoHQdl99jJXXekGSx2rx323yCnMaqbJTXRcXD+pZNG6dj1oyRKCpMR2pyb3h7uYj4ESk52IOC1goBoO6LmVdMTKBFw3gLRmK/BgAAEChJREFUGWH79AnB8Pw0TJ0yHGuqynH65Cqwcl75u+p+7T4vhh4Pjvfxo8sFFbynp7OYm3WZJjj/6K7W5bLmfOX3+RnnN70RNjY2cHBwEKwVnp6eohZn8ODBwmuxf/9+PHnyBD/88IPZWxQN6Ut5vNMDhxwIuf3xxx/x2WefCRbKV199FczZv3z5Mtg/5MSJEzhy5AgOHDgguJMoSCTjS05OFgLo4uKiE1QovBRSplSOLh7UKjZSQ0++znw+0rHcvLYRL52uwrHDy4Tlt2P7XPC1U/HavaNSdME78+JzYuVLN5NqPbQtKOgjl2QoWL1qEoKCvERqLy15WpZysSa3jDlYWFgIuhouEDlv9+3bJ+YxufGYFsvF48WLF0XG08OHD/HWW2+JJklkJ5a6Qd3+QTsWKnD8oWYwWioY9GmOHDlSrFponTRkecjjdFMxGNqZA6H6KAb1Ox2vnI3xGRC02UyqqHCgmGus/9FVzyWBg1YFOc4Y72zpHFf/rraeVIHDAMBBoSLD6XPPPQeatw25s6QgE0BIEzGtYhhYBGeMk1O9JlVpG6sMkOWXnFykiWciRF02BTnPuOVcYzrsG2+8oYKGgXQd9Z0KHAYcTA4oifbYxpPZFrr8rUqh5n58XDhePL5CDYx3EBmfsSpH9brqA/fli+tEYFxmzkkLvu6cku/pniIBJt1OqsVQ22Jo7XiowGFg4OADefPNN4XrikE3fcCD1seE8bkgo6iqMOorDHVMOveYMBbFTDn2RGf6emMWhgQNWv5kJGY2JRtjtVZRqn9fG3hU4GgD4KCQUWAZiGPlKDM2Glsdyc8iIwKxo3qump2jWh/qAuLxbhEDpCs3Pz9VzB85TyQ41N3yc1r6AwcOFK4pFTBqK3tDgp8KHG0EHPIhsbNbUlKSEHwKdV1hl++feeqPZWroiGH9RE2CutLu3Cvtzvz8Hz/cgcp5xaKwU5+YIeeRh4eHiDN++umnqoXRxnpNBY42HmBpfZAChTniBI/GVk40xTkJvL1dsGzpWLMituvMilC9d/0WAY8f7sLBfUvQv3+8mAdNuXr5OS36Pn36iFRauWBTt21nbXBsVeBoB+DgQH/99deiDiQyMlIUHDUFIOTBYU56YkIvbH5hBsggqyof/ZSPOk6mN06vv7oH16/twoQJRXBza7geSlroBAy+SIe/ePFifPDBB6qV0U66TAWOdhxouQJ6++23RTMqCjwrVRuzPuRn3A7L74crF9fj0UPj6/CmKmrTU9TG9Mzu3NqKtWsXIjg4qEkrg3NBVoLHxcXh/PnzKmB0gB5TLY4OGHR2M2T1Kq0Prpqasj64yuKEIa3ChHE5uGrCzZuMSWGp19KxgHf/7lasXTMFcXER2jkgF0vSslBuOVf4OdPdKysr8d5776mg0QH6S7U4OmjQpfXx0UcfYezYsYIPqzEeLOXk4b63tytWLBsr0ndV6ouOVX4q+DR//EkVQpr89IGxYuFEQKgr48r3BAt+hxZ6TEwM2HtHziF127axjIbGV7U4Ohg8GPsgRw4zr2iC0/poaiJxUpFmga1EV64Yr8Y+1PRdk5EB9pzPzUkSjMWU86ZknQsqAgf5ptauXSv4oxpSZurx9gMRFTg6GDiksJOWecmSJYKVlysrvpqaVHJVFtc3HNVbZ0Nl3W3+6le1GNp+zMhiy46Oo4oGCpmmXLNZmZRfXVuCBUGDmYh5eXkg4aicK+q2/QCiobFWgcNIgEM+oLt376KwsFA0h+HEYRBd18RSHuMkI+13bGyY6EeuKsO2V4bqGOs3xkcOLgH7int4OAuw0MfKkN+Jj4/HyZMnTb4/t5zb5rRVgcPIgIPCxYrXw4cPIzQ0VPQCYV+QpqrPJZCwDiQlOVL0/bhzczOeqG4ck3HjmAsYkSKE/U9GFaaLlHIubNjjRMpoQ1sCBt21LORbunSp6pYyQt0kwU8FDiN+OGwytX79egQHB4vYBxvMkLitoYknj7MGxNraEpERAaILnerC0m91bC6Ku6Pugx0sd1bPFTEM8q9pLAcGtus3PpOyyi2/R3DhAonJIo8ePVLdUkaslwgeKnAY+QPiQ3r33XdRXl4OZ2dn4fOl+4orM+Xk07XPycjjbHSzaEEJrlxar7LwqhaYwS0wWrYEjEHpfQXNOeWuqRiGlFfKMeW5X79+IklE5Zfq+PiFtCoa26rAYQLAwQf43XffiZUYV2R0WzH7ytbWVu8AOieyj48rRhb0x/69C9QOdiqAtBpArl3egIULStAnKhhsjUzLgqBBi1cCQ2NbgkZqaqpwy7IZWmOKSv3MuABFBQ4TAQ7lxLl06RIyMjJE/QddV5yA0rpobKLKz7p26SJy6HdVz8XN6y+0WoF0lGtE/d32d8G9fHcbTp1YicmT8+DlpaEGkS4pKV9Nbbnw8fX1xaZNm/Dzzz+rgGGCOkgFDhN8aASRL7/8EtevXxepigQNggdBpDkAYmlpgfAwX5RPysPJ4ytVAFGtkAZl4O6tLVj17EQkJUXA1UUTv9BYF43HLwgiMobB/aioKGzZsgW//e1vVcAwUd1D/aMChwk/PD7An376SXQdZA8Ce3t74cbiik4WTjW1+pOf09WQlREvfNU3rm5U+6GrIIK7t7fgpdNVmDRxCHx93bTuJ31dUQQWyiHlkT2/WcBHl6vSelb3jcsFpe/zUIHDxIFDPugvvvgCt2/fRkFBgZisjIEwS8XKyko74SVINLZlW072cy4dnYk9OyvVplKdEEDOnlmFubOL0Dc2DOwP0xwrlrIlLQxawQkJCaiurhYWhhr4Nk2QkDpGuVWBw0yAQ/lQr127JlrXurq6ijgI8+KZudJcK4QKICYmBAvmj8ZLZ6pw785WtS7EDIGEld1kXt60cToyBsXBzrbpotO6iw/ptqKM2dnZITo6Gjt37hQWsVI21X3zAA8VOMwQODg5v/32W0HTQBbRwMBAEf8gjQlBRJ9aEKkYqBAIIG5ujojuE4LZswpx4uhy1ZVlBgBy9fLzWLl8PDIG9YWPtyt69OgOdqKUz16fLWWDYMEt64zIesCul5999pnqkjJT3UL9ogKHGT9cubojD9aaNWsQFBQk6kBIS+3m5qa1QppSEBrwkKmWmhz9pMRemDenCCePr8Ct6y+oQGICQHLv9lZcOLcG69aUIyc7URANNvXsdX1OkJDJGHSJkoBw8uTJuHfvnmA9kHKnbs3DutD1HFXg6ATAIR88adxPnTqFoqIiUUxI9xVXiQQRKgBdSqLuMY3S6ALGQnr06CZ84GFhvigcOQDr107B9asbGszMUdNn2z999pUH1di9sxIV5UMREx0Kd3cnLQ1I3Wfb2HsuHmipknSQoEE5SEtLw+bNm8HmZGr8wnxBQuoP5VYFjk4EHPLBc5KTbXT+/PkIDw8XyoAAwqwsAgiVQmNKRH7G7xFALOjiEIVfzwggYZ+FhfNH4/TJZ3HtygY8fLlaBZN2sEhefWWn6NFy/uxqAeIjCwbA399D+2yk21E+v6a2/D7lgQsMR0dHARyenp4ifnb27Fn87ne/U91RnVB/UI+owNFJHzwfPgGEvZovX76MMWPGiPgHFQV91lQW+gIIFZBUStx27arps2BvZ42AAA9Bujhj+gjsqp6H+3e2qiBiYBA5fnQ5li0pw9C8FISH+YE8UXwG5Ctj33ru87k0BRTycz5/LiQoA7QyyFCQmZmJ7du346233sL333+vAkYn1hsqcHTyhy8tELllK84NGzaIFEpmZBE4CCRUOs1RPFIBSRBRvndyskNavz6YVjFMAMm5M1W4eW2jmvbbBJjQmiAn1MXza0X3vMWLSjF0SAoCAzzFs5FgzXocjrGlZdNstMrnQvcTnzWtTgIGM6N69uyJuXPnglT/aoV353JFSZ3Q0Fa1OFTwqLd6ZFX6kydPsHr1agwYMKAWpUlLAESpoCQIUdExi4erY9aNpKb0xoTxOVi9aiJOHF0GUnN39pjIhZfWYPMLMzBzRgGysxLQM9xf0HwQHMg9ZmnR42m8QZOwoLEs9M+K4rOQTcNoZRA4IiIiMHPmTFET9OGHH6qxC1U/1NMPBBMVOFTB0CkYypXGyy+/LLoT9u7dGy4uLkJZSTBo7VYDIJr2oDyXBBYWnsXGhIqg+4LKYhHgPXXyOVw6vx43rm3E/btbTTaTi33iH96vFvGIyxfX4cypVThyaCmeWzkB48cORv/+0fD1dX/q8qux9rp37yrAlmMmx6q54y/Hly4oVnTTJcW+L5MmTcKZM2fw448/NikPStlQ9zunJaIChwoceiuKzz//XATVt23bhvz8fNCdJRUX3VrNiYnIv1NuSWUhFZs8Lt9r/O528PZ2Q3CQN3pHBmJA/2iMKkrHrBkjsaZqEvbsqsTZ06tw786WDi1UJDDwxcK6ixfW4tD+xdj4/FRBbU+rKmdwogDFsFBf+Pq4CdcSe8jzXmXGEu+f46EZV/3jE3Lc6m7ls+Fv0BXFjKjly5eLFFrGudSsqM4JAC0FfhU4VODQGzjqChmLvA4ePCgC62FhYcIakS4PKiqp9OsqsZa857nk3+k6rxJ0+NvOznYCYEibkT4wBsPyUzGmJBMV5fmi/mTpkjJUrZqEDc9PxdbNM7Fj+1wBPHt3z8e+PQtqXrvng8fYb2Lblll4YcM0rF09GSuWjcP8ymJMnzoc48oGY/iwNME4TCuJ/U9cXBzQo3s3rWVQ95r5nu4mjXup5t7kPRpyy+A2uaIY4GYM6/XXX1eBQp33LZ731AMqcKgC1CoBohBxtcoiw8ePH2P37t0oKysDgYTKUa50uZImqPCYIZWiPJdUzPL8yvdyvwuv5+lLHqvZNh0bUIKT9u/0qLTWfrcZvSrkfem75W8ov0uesvT0dDz77LMiXsFmYGo2lGpV1F38tfS9ChwqcLQaOHQJH33l9+/fF61vR4wYIfzorFhnMJYgUlfRKZWese4byzXL6+CWY8k4RUBAAJKTkzF79mxR5MkEB13PRT2mgochZEAFDhU42lzBMJXzk08+wRtvvIHz588L3zpjJFR2VHxKoFBaJlJBKj/vbPvSYpP3zTGhNcFWq8x+OnToEB4+fCjYZ1XKchUUDAEK+pxDBQ4VONocOBoSRPYSob/9wIEDol4gKytL1A6wOxyVo+wrwgwgurmUcRO5LxWqqW8JCLwnAie3jEuwSjskJASJiYkYP3686JhH6vyvvvqqw55ZQ89SPd65QEsFDhU4jEYJEUjYe/qdd94R/dWvXLmCF154AdOnT0dubi4iIyNFYZpUsrosEl3H9AGV5v5d3e/zPV9S+RMA5Kvud+X18DjB0d/fX2Q5jRs3TsQkjh8/Ltx8b775JsgvploSnUspmwIIq8ChAofRAIc+E4YB3l/96ldg3/Vdu3Zh2bJlmDhxogCWuLg40ZqU/Fukkvfx8QHjKs7OzqIimgR9jLFIWpWWWC1KcOB5eD6elxXX/B3+nre3t3DDsT6CYBcbGysC1aNGjcKsWbNEZhPJJh89egSmOOtz3+p3VPAwJhn4/1gWd27/jEsQAAAAAElFTkSuQmCC;" vertex="1" parent="1">
          <mxGeometry x="40" y="510" width="115.92" height="120" as="geometry" />
        </mxCell>
      </root>
    </mxGraphModel>
  </diagram>
</mxfile>
